<?xml version="1.0" encoding="UTF-8" standalone="no"?>
<!-- Created with Inkscape (http://www.inkscape.org/) -->

<svg
   xmlns:dc="http://purl.org/dc/elements/1.1/"
   xmlns:cc="http://creativecommons.org/ns#"
   xmlns:rdf="http://www.w3.org/1999/02/22-rdf-syntax-ns#"
   xmlns:svg="http://www.w3.org/2000/svg"
   xmlns="http://www.w3.org/2000/svg"
   xmlns:sodipodi="http://sodipodi.sourceforge.net/DTD/sodipodi-0.dtd"
   xmlns:inkscape="http://www.inkscape.org/namespaces/inkscape"
   version="1.1"
   id="svg937"
   xml:space="preserve"
   width="684.65662"
   height="463.24939"
   viewBox="0 0 684.65662 463.24939"
   sodipodi:docname="fence.svg"
   inkscape:version="0.92.4 (5da689c313, 2019-01-14)"><metadata
     id="metadata943"><rdf:RDF><cc:Work
         rdf:about=""><dc:format>image/svg+xml</dc:format><dc:type
           rdf:resource="http://purl.org/dc/dcmitype/StillImage" /><dc:title></dc:title></cc:Work></rdf:RDF></metadata><defs
     id="defs941" /><sodipodi:namedview
     pagecolor="#ffffff"
     bordercolor="#666666"
     borderopacity="1"
     objecttolerance="10"
     gridtolerance="10"
     guidetolerance="10"
     inkscape:pageopacity="0"
     inkscape:pageshadow="2"
     inkscape:window-width="1212"
     inkscape:window-height="740"
     id="namedview939"
     showgrid="false"
     fit-margin-top="0"
     fit-margin-left="0"
     fit-margin-right="0"
     fit-margin-bottom="0"
     inkscape:zoom="0.63211061"
     inkscape:cx="309.22827"
     inkscape:cy="90.083523"
     inkscape:window-x="0"
     inkscape:window-y="0"
     inkscape:window-maximized="0"
     inkscape:current-layer="g945" /><g
     id="g945"
     inkscape:groupmode="layer"
     inkscape:label="Fences_Shovel"
     transform="matrix(1.3333333,0,0,-1.3333333,-56.952055,721.39272)"><path
       id="path1543"
       style="fill:#ffd299;fill-opacity:1;stroke:none;stroke-width:0;stroke-miterlimit:4;stroke-dasharray:none;stroke-opacity:1"
       d="m 69.358375,197.74069 c -6.08297,7.3638 2.366179,22.58113 0.916061,32.42551 1.946906,86.05432 4.2853,172.12301 3.957831,258.21039 -4.392766,10.24223 1.146456,16.78852 9.882216,14.99046 l 28.637747,-2.96625 c 1.79346,-31.80643 1.74344,-73.7826 2.11901,-105.62726 -6.04806,-31.71789 10.80011,-213.33626 -15.403564,-197.22211 0,0 -26.749372,0.40942 -30.109301,0.18926 z m 110.219925,-1.2954 c -0.97886,0.14631 -3.15574,0.53681 -4.83749,0.86778 l -3.05774,0.60176 -1.21917,4.56743 c -0.67054,2.51209 -1.49499,6.30268 -1.8321,8.42356 -0.90142,5.67114 -0.75489,20.48165 0.33695,34.05607 0.85177,10.58967 0.88496,16.65753 0.29725,54.33827 -0.36386,23.32958 -0.68766,67.91237 -0.71955,99.07285 -0.0553,54.03991 0.002,57.29905 1.24935,70.59683 1.37243,14.63559 1.36126,27.50028 -0.0281,32.2659 -0.4675,1.60369 -0.48228,2.4243 -0.0485,2.69241 0.3432,0.21211 3.88287,0.88282 7.86592,1.49047 20.1411,3.07269 25.62253,-3.62905 22.81378,-27.89271 -1.22197,-10.5561 -1.232,-14.57979 -0.0864,-34.6591 1.88539,-33.04711 2.20601,-45.94683 2.49189,-100.25935 0.19463,-36.97666 0.0556,-62.29229 -0.41685,-75.93609 -0.81615,-23.56608 -0.85318,-26.70157 -0.51504,-43.60392 0.2238,-11.18649 0.13048,-12.82162 -0.91405,-16.01777 -1.45252,-4.44451 -5.33358,-8.57049 -9.11989,-9.69541 -2.81658,-0.83681 -9.45203,-1.32876 -12.26035,-0.90898 z m 47.32343,2.03433 c -3.43535,0.67803 -7.25027,2.46236 -9.20708,4.30638 -1.38436,1.30457 -1.63002,2.01338 -1.62213,4.68029 0.005,1.7286 -0.10675,31.57444 -0.24861,66.32409 -0.25678,62.90354 -0.60957,81.19285 -2.54618,131.99826 -1.3216,34.67126 -1.44303,75.93609 -0.22345,75.93609 1.76562,0 3.4841,-11.28165 4.00389,-26.28523 0.21233,-6.12877 0.59054,-10.52285 0.86807,-10.08526 0.27049,0.4265 0.4959,2.6664 0.50089,4.97757 0.005,2.31117 0.31415,5.72114 0.687,7.57772 0.88514,4.4074 0.15237,8.82279 -3.26312,19.66244 -3.11191,9.87622 -3.6868,13.43275 -2.74394,16.97532 0.98944,3.71758 3.05413,6.1285 6.83081,7.97626 5.93452,2.90349 17.37047,3.04254 22.79114,0.27711 2.98686,-1.52377 5.70309,-4.87603 6.96743,-8.59887 1.30437,-3.84071 1.2865,-13.40869 -0.0432,-23.15558 -1.62685,-11.92474 -1.83491,-17.93254 -0.79256,-22.8856 0.50973,-2.42215 1.07911,-6.80659 1.26529,-9.74318 0.18618,-2.93659 0.87134,-13.74859 1.52257,-24.02665 1.59208,-25.12713 3.39337,-63.3634 4.17818,-88.69097 0.73531,-23.72992 0.88408,-89.63153 0.24519,-108.61464 -0.42334,-12.57861 -0.44878,-12.76679 -1.87738,-13.89053 -4.914,-3.86534 -19.14305,-6.32351 -27.29278,-4.71502 z m -98.04636,-0.6613 c -5.9436,1.10394 -7.6882,1.80996 -8.05176,3.25848 -0.19329,0.77012 0.0696,17.37898 0.58419,36.90859 1.98975,75.51523 2.24166,99.49895 1.80103,171.47275 -0.23933,39.09404 -0.45761,74.81756 -0.48505,79.38559 -0.0478,7.94985 0.0197,8.43876 1.57635,11.41736 2.94927,5.64353 7.93098,7.66207 17.53005,7.10301 9.42205,-0.54875 13.95334,-2.89997 16.55946,-8.59248 1.98543,-4.33675 1.94536,-10.87682 -0.14388,-23.48948 l -1.55856,-9.40884 0.62796,-19.95707 c 1.45305,-46.17897 0.30656,-148.25796 -2.39817,-213.52326 -0.57515,-13.87832 -0.5421,-15.85099 0.30089,-17.95783 2.82733,-7.06621 -0.61382,-13.22784 -8.79038,-15.7398 -3.52537,-1.08304 -13.70451,-1.59166 -17.55213,-0.87702 z m 396.82966,13.25797 c -1.98549,1.03046 -2.99617,2.10441 -4.20032,4.46322 -2.2512,4.40988 -2.5846,9.01136 -1.41205,19.4883 1.61787,14.45577 2.69607,59.14475 4.04122,167.49796 0.81776,65.8718 0.78308,75.38888 -0.29671,81.41872 -0.80212,4.47925 -0.79218,4.60208 0.4019,4.96883 0.67339,0.20682 4.02745,1.58056 7.45348,3.05276 5.03331,2.16287 7.09831,2.73185 10.75678,2.96392 4.47968,0.28416 4.55074,0.26601 6.70656,-1.71303 l 2.17891,-2.00024 -0.0389,-30.84903 c -0.0518,-41.05224 -0.54379,-62.12214 -3.86511,-165.51692 -1.36017,-42.34328 -1.64253,-76.77673 -0.6619,-80.71885 l 0.45187,-1.8165 -5.65092,-1.29806 c -7.52512,-1.72858 -12.45593,-1.71026 -15.8648,0.0589 z m 3.54522,21.28484 c -0.33688,-3.69825 -0.42802,-7.16877 -0.20254,-7.71226 3.1477,14.6008 3.39308,43.21352 0.20254,7.71226 z m -0.0301,82.37022 c -0.129,4.61611 -0.45364,7.31218 -0.93876,7.79621 -0.59317,0.59186 -0.74157,-0.81743 -0.74157,-7.04246 0,-4.28032 0.17326,-8.2339 0.38502,-8.78573 0.90678,-2.36305 1.48554,1.22564 1.29531,8.03198 z M 365.26574,204.67448 c -4.50048,1.58473 -6.79833,5.9373 -6.8914,13.05372 -0.0563,4.30648 1.03016,80.36477 1.77541,124.28601 0.33138,19.52911 0.32253,42.00882 -0.0229,58.43518 -0.37504,17.83019 -0.36055,29.35611 0.0437,34.70516 2.37193,31.39119 2.26117,57.918 -0.27534,65.94554 -0.87064,2.75538 10.30044,3.2516 26.13448,1.16088 5.2206,-0.68933 10.45548,-1.25383 11.63307,-1.25446 l 2.14107,-0.001 0.3714,-5.19094 c 0.88631,-12.38775 1.10694,-79.76493 0.39582,-120.87482 -0.41202,-23.81901 -0.99287,-63.99691 -1.29078,-89.28422 -0.2979,-25.2873 -0.58591,-48.64655 -0.64002,-51.90942 -0.0541,-3.26289 0.12797,-9.27807 0.4046,-13.36707 0.46266,-6.83881 0.40552,-7.65484 -0.71304,-10.18354 -0.66881,-1.51194 -1.91642,-3.2079 -2.77247,-3.76882 -2.35128,-1.54061 -6.46124,-2.09813 -10.8673,-1.47416 -2.93381,0.41548 -4.93563,0.33899 -8.00046,-0.30572 -5.0586,-1.06411 -8.34744,-1.0561 -11.42567,0.0278 z m 76.23271,0.1134 c -1.14331,0.59209 -2.43711,1.89373 -2.87911,2.89657 -0.80392,2.25497 -0.90995,1.71404 -2.42757,0.19641 -8.16499,-4.74527 -13.51652,-0.7266 -18.59868,4.35557 l 0.39842,28.55228 c 0.21914,15.70377 0.71539,39.49776 1.10279,52.87557 1.15588,39.91531 0.88639,72.93587 -0.90055,110.34461 -2.24579,47.01447 -2.47509,58.47959 -1.59896,79.94574 l 0.76268,18.68624 7.4728,0.80284 c 14.57921,1.56633 31.57724,0.78171 32.45204,-1.49799 0.14757,-0.38457 -0.12309,-2.5599 -0.60148,-4.83406 -1.55492,-7.39184 -1.69363,-12.64988 -0.71106,-26.95532 0.52666,-7.66776 1.24665,-19.14717 1.6,-25.50978 0.95311,-17.16255 1.35595,-98.59241 0.62071,-125.4725 -1.67026,-61.06475 -3.16344,-109.93494 -3.4116,-111.65785 -0.23106,-1.60431 -0.62358,-2.00542 -2.47644,-2.53068 -4.47414,-1.26834 -8.5911,-1.34365 -10.80399,-0.19765 z m -123.55366,-2.16759 c -2.72009,0.68012 -6.49293,2.55676 -7.44397,3.7027 -2.13204,24.97543 -0.96132,51.85228 -3.13796,77.29092 -0.37611,4.34108 -0.79897,47.4938 -1.07549,109.75136 -0.30372,68.38487 -0.66178,103.20833 -1.07374,104.42933 l -0.61807,1.83187 8.38482,2.91414 8.38482,2.91414 10.38189,-0.1559 c 5.71003,-0.0857 11.07196,-0.29749 11.91538,-0.47056 1.48047,-0.30379 1.51592,-0.41123 1.02514,-3.10698 -1.24387,-6.83238 -1.23304,-28.77411 0.0254,-51.43887 0.68843,-12.39893 1.52723,-27.7493 1.86401,-34.11191 0.33677,-6.36262 0.88838,-16.77416 1.2258,-23.13677 1.71594,-32.35672 1.66427,-96.35058 -0.11376,-140.89703 -0.84,-21.04554 -0.91911,-33.37852 -0.24829,-38.70819 l 0.46651,-3.70641 -2.29589,-2.28341 c -3.76955,-3.74907 -7.95808,-5.00012 -17.42378,-5.20427 -4.40489,-0.095 -9.01414,0.0786 -10.24279,0.38584 z m -42.25989,-2.18916 c -3.6784,0.95477 -6.14423,2.23253 -7.79809,4.04088 l -1.27233,1.39117 c 0.65289,92.04751 -2.9451,190.5667 -5.64939,275.56492 -0.10896,3.42602 -0.5542,7.8695 -0.98943,9.8744 -0.75559,3.48072 -0.72685,3.77532 0.63658,6.52576 1.18905,2.39866 2.01613,3.17819 4.94447,4.66023 3.45519,1.74869 3.67638,1.77976 12.67101,1.77976 h 9.15445 l 1.73601,-2.07638 c 4.2587,-5.0937 5.05054,-14.38672 2.82303,-33.13092 -0.70759,-5.95427 -1.11682,-12.13678 -0.94847,-14.32913 2.21072,-28.78872 2.55981,-43.32486 4.6161,-192.2132 0.55817,-40.41477 0.81573,-48.78806 1.56938,-51.01955 1.77668,-5.26057 0.87504,-7.57833 -3.84679,-9.8885 -2.65641,-1.29966 -4.18836,-1.60096 -8.9429,-1.75884 -3.42214,-0.11365 -6.93436,0.12017 -8.70363,0.5794 z m 200.88525,7.12756 c -0.36774,0.4431 -1.20131,2.88847 -1.85239,5.43416 -1.568,6.13081 -1.5638,17.25219 0.0127,33.80463 0.65817,6.91012 1.16292,16.55332 1.13342,21.65365 -0.0292,5.05746 0.24327,20.80826 0.6056,35.00178 0.6215,24.34572 0.13585,83.35669 -0.87882,106.78511 -0.19078,4.40489 -0.58534,21.89095 -0.8768,38.85792 -0.53726,31.27439 -1.06661,38.78842 -3.25068,46.14302 -0.56597,1.90583 -0.68324,3.15794 -0.31698,3.38431 1.06722,0.65958 19.35971,2.53007 21.71728,2.2207 1.27825,-0.16774 4.72675,-0.64609 7.66334,-1.063 l 5.33926,-0.75803 0.0969,-20.21749 c 0.0532,-11.11963 0.52826,-28.49335 1.05552,-38.60827 1.76825,-33.92242 1.78606,-50.10228 0.10582,-96.1066 -4.00277,-109.59381 -4.19384,-117.86046 -2.97655,-128.77856 0.29462,-2.64252 0.1476,-3.23278 -1.20591,-4.84133 -2.50974,-2.98266 -5.7499,-3.71763 -16.38945,-3.71763 -7.12225,0 -9.47101,0.18956 -9.9823,0.80563 z"
       inkscape:export-xdpi="96"
       inkscape:export-ydpi="96" /><g
       id="g947"
       transform="matrix(0,-610.6,789.1,0,-25.613337,986.41693)"
       style="fill:none;fill-opacity:1"><path
         style="fill:#000000;stroke-width:0.00051864"
         d="m 1.2691774,0.11644235 c -0.1567913,0.003939 -0.31364766,0.005555 -0.47044867,0.006934 -0.0231488,0.001884 -0.008733,0.0521212 0.001162,0.05175 -0.0104932,-0.025818 -0.0135413,-0.0601037 0.0218053,-0.0481979 0.14395718,-5.0044e-4 0.28788017,-0.002823 0.43180107,-0.00564 0.010803,-0.001594 0.063398,0.00928 0.034917,-0.001868 l -0.019236,-0.002981 z m 0.019234,0.002978 c 0.00196,0.0126921 0.012218,0.0572068 -0.014771,0.050438 -0.1064862,0.00463 -0.2131825,0.006981 -0.31978718,0.007091 -0.0513415,-0.001087 -0.10266321,0.00184 -0.15396219,-0.001823 -0.0234294,0.006096 0.0336965,0.004094 0.0418639,0.005552 0.10013907,9.255e-5 0.20036367,9.8311e-4 0.30040087,-0.003306 0.0484,8.8091e-4 0.096889,-0.002233 0.1452078,-0.003922 0.013381,-0.004738 0.010273,-0.051728 0.00105,-0.05403 z m 0.00323,9.3412e-4 c -7.603e-4,0.001702 -0.00143,-0.00164 0,0 z m -0.06597,0.0105361 c -0.040194,0.0108776 -0.081513,0.004749 -0.1224573,0.005483 -0.00419,0.00615 0.038177,4.0735e-4 0.05154,0.003344 0.02808,0.001086 -0.042954,0.006325 -0.056213,0.008457 -0.014856,5.2286e-4 -0.07061,0.0130966 -0.030131,0.007532 0.046792,-0.007495 0.094298,-0.012658 0.1412735,-0.0166254 -0.031095,3.7843e-4 0.032436,-0.006963 0.015987,-0.008189 z m -0.37270881,0.006708 c 0.0202573,0.001857 0.0618456,0.006976 0.0694753,0.005606 -0.0228225,-0.004282 -0.0463032,-0.005798 -0.0694753,-0.005606 z m 0.125,0.002986 c 0.0226635,0.004448 0.0744974,0.004802 0.0810626,0.001781 -0.026844,5.2864e-4 -0.054229,-0.001119 -0.0810626,-0.001781 z m -0.0861165,0.002757 c -0.0237084,0.003332 -0.0540252,-0.003011 -0.0737761,0.004183 0.0394188,-0.001579 0.0788937,-0.001976 0.11815146,0.001673 0.0384381,-0.001913 -0.0188512,-0.002048 -0.0281295,-0.005165 l -0.009812,-6.4954e-4 z m 0.0607627,0.003956 c 0.001611,8.9261e-4 0.001489,-0.00161 0,0 z m 0.10229951,0.001157 c -0.0570137,0.00812 -0.11435646,0.0103044 -0.17165847,0.008487 -0.0131101,-9.349e-4 -0.0593169,0.004093 -0.0220318,0.001719 0.0670728,0.00136 0.13492186,0.002265 0.20106107,-0.0100757 -0.00532,0.001357 0.00206,-0.005089 -0.00737,-1.303e-4 z m 0.1474,0.002851 c -0.016565,-0.002364 -0.053257,0.006911 -0.014785,0.003309 0.015927,4.8414e-4 0.08274,-0.005675 0.074876,0.003854 -0.017575,0.002181 -0.036025,0.008235 -0.010323,0.003439 0.044141,-0.00186 -0.010822,-0.0168318 -0.027973,-0.0107568 -0.00727,1.761e-5 -0.014531,0 -0.021796,1.548e-4 z m 0.079456,0.0285934 c -0.151402,0.007463 -0.30311839,0.005153 -0.4546611,0.004633 -0.0255131,-4.2319e-4 -0.0579749,-9.0677e-4 -0.0454813,0.0351953 0.007906,0.0364156 0.0615451,0.00772 0.089506,0.0157865 0.0929562,8.4551e-4 0.1859641,0.001508 0.2788674,-0.001253 0.046594,1.8006e-4 0.09378,-0.003196 0.1400712,-0.002647 0.00698,-0.0112958 0.015147,-0.0541731 -0.0083,-0.0517148 z m 0.00649,0.006281 c 0.00886,0.0200563 0.00365,0.0535257 -0.027571,0.0416324 -0.1293843,0.004456 -0.2588719,0.00524 -0.38831825,0.003962 -0.0288587,-0.007461 -0.0888014,0.0234365 -0.0877135,-0.0226964 -0.001882,-0.036193 0.0565877,-0.0144299 0.081177,-0.0209402 0.13952555,0.003227 0.27910165,4.767e-5 0.41856315,-0.002814 z m -0.38222875,0.0142489 c 0.0448611,0.008748 0.0907331,0.0238995 0.13699585,0.0179036 0.017122,-0.006749 -0.032415,0.003832 -0.039425,-0.001485 -0.0326343,-0.00331 -0.0658265,-0.0143985 -0.0975708,-0.0164186 z m 0.30232275,3.331e-5 c -0.010561,0.002471 -0.057159,-4.484e-5 -0.048401,0.00568 0.012895,-0.001561 0.058201,-0.001865 0.05372,-0.005908 z m -0.33480113,0.001268 c -0.0244691,0.00338 -0.0725816,-4.8962e-4 -0.0828178,0.004854 0.023555,0.001287 0.0779447,-5.7428e-4 0.0861871,-0.004566 l -0.001739,3.513e-5 z m 0.12423443,9.937e-4 c 0.0339409,0.004986 0.0738779,0.002884 0.1095248,5.6569e-4 -0.036484,-6.4925e-4 -0.073185,0.001127 -0.1095248,-5.6569e-4 z m 0.1069468,0.001116 c -8.567e-4,0.002073 -0.00369,-0.001806 0,0 z m 0.1714747,-0.001591 c -0.030219,4.6848e-4 -0.00548,0.007294 0.00824,9.6183e-4 l -0.00404,-0.001101 z m -0.1680475,0.002359 c 0.00254,7.2341e-4 3.681e-4,-9.0847e-4 0,0 z m 0.1053514,0.001146 c -0.038475,0.006366 -0.078182,0.006309 -0.116703,0.0109057 0.04466,-0.001509 0.090567,-0.002575 0.1341024,-0.0111327 l -0.00782,-2.5542e-4 -0.00958,4.8325e-4 z m -0.1058305,0.009948 c -0.00143,0.00164 -7.603e-4,-0.001702 0,0 z m -0.020293,-5.7026e-4 c -0.00541,0.004336 0.014779,-1.7873e-4 0,0 z m 0.00603,4.2569e-4 c 0.00254,7.2343e-4 3.681e-4,-9.085e-4 0,0 z m -0.15973051,7.9411e-4 c -0.0375189,0.002369 -0.075147,8.9056e-4 -0.1125639,0.002949 0.0352289,9.2821e-4 0.0899813,0.002647 0.11553839,-0.003143 l -0.002973,1.9334e-4 z m 0.002842,9.9471e-4 c -0.002414,0.001064 -5.0451e-4,-0.001084 0,0 z m 0.005814,-4.7988e-4 c -0.003166,0.00241 0.0260599,-0.001553 0,0 z m 0.007747,2.372e-5 c -0.002414,0.001064 -5.0451e-4,-0.001084 0,0 z m 0.002948,0 c -0.002414,0.001064 -5.0451e-4,-0.001084 0,0 z m 0.29123571,0.0242019 c -0.091106,0.005748 -0.1823528,-0.001311 -0.2735398,0.001419 -0.0586454,-3.5888e-4 -0.12413545,-2.2617e-4 -0.18265066,0.003623 0.0294402,0.008001 0.0772974,-0.003037 0.11131022,-7.554e-5 0.092263,2.132e-5 0.18461764,-3.7005e-4 0.27693564,0.001542 0.038027,0.001347 0.078442,-0.008326 0.1151544,0.002702 0.017749,0.0572307 -0.053711,0.0323288 -0.085801,0.0384687 -0.1140555,0.002144 -0.22814876,0.00221 -0.34210726,-0.003499 -0.0276037,-0.00338 -0.0892269,0.0194228 -0.0752429,-0.0307949 0.007957,-0.0344434 -0.0230973,0.0476611 0.0130094,0.0362546 0.0959948,-0.003547 0.19189115,0.006082 0.28794106,0.003402 0.066672,-0.001041 0.1337704,-0.001282 0.2000664,-0.003169 0.020667,-0.0197707 0.00385,-0.0608451 -0.028775,-0.0495013 l -0.00834,-1.4094e-4 z m -0.39131187,0.0150595 c 0.0424661,0.006711 0.0858066,0.0110577 0.1289441,0.0113957 -0.041101,-0.004756 -0.0835003,-0.006373 -0.12493265,-0.0118393 l -0.00401,4.4298e-4 z m 0.0975172,0.001037 c 0.0320455,0.007788 0.0815244,0.002704 0.12006827,0.003702 0.013662,9.8862e-4 0.050774,-7.0823e-4 0.014321,-0.001941 -0.044815,-7.064e-4 -0.0897097,0.001656 -0.13438927,-0.001761 z M 1.1859,0.26152237 c 0.00366,0.008858 0.060323,8.2371e-4 0.022617,9.2303e-4 C 1.200987,0.26277117 1.19336,0.2601054 1.1859,0.26152237 Z m 0.064563,0.003925 c 0.011997,0.007871 0.049386,-6.7065e-4 0.015621,5.5194e-4 -0.00476,0.001557 -0.0111,-0.002492 -0.015621,-5.5194e-4 z m -0.4101819,0.003194 c -0.0149547,-1.6018e-4 -0.0369871,0.004424 -0.008058,0.003226 0.0137754,-9.6398e-4 0.0487911,-0.003971 0.008058,-0.003226 z m 0.3434552,0.001049 c -0.017586,0.002363 0.0067,0.003097 0.00501,-2.4158e-4 z m -0.27177802,0.002525 c 0.0104858,0.007212 0.0459231,0.002999 0.0518574,0.001021 -0.0172407,2.303e-4 -0.0349475,-2.914e-4 -0.0518574,-0.001021 z M 1.1684062,0.27204212 c 0.00162,0.002148 0.00162,-0.002148 0,0 z m -0.082154,6.706e-5 c -0.021676,0.002848 -0.049674,-8.2886e-4 -0.067905,0.00395 0.045964,5.6046e-4 0.092141,-9.7653e-4 0.1381725,-0.001574 -1.877e-4,-0.003927 -0.048886,-7.2201e-4 -0.064076,-0.002344 z m 0.076258,6.1725e-4 c 9.338e-4,0.001959 0.0052,-0.001815 0,0 z m -0.2824784,0.003381 c -0.0161094,0.005092 -0.0541649,-0.001785 -0.0601571,0.005538 0.0183526,0.001073 0.0504938,-0.001029 0.0601571,-0.005538 z m 0.001228,7.2487e-4 c -0.00143,0.00164 -7.6033e-4,-0.001702 0,0 z m 0.002358,-2.2811e-4 c 5.8039e-4,0.002455 0.001362,-0.002416 0,0 z m -0.0539505,0.0210315 c -0.0238449,-0.006009 -0.053741,0.004931 -0.0440892,0.0336095 0.003884,0.0423647 0.0665101,0.0116799 0.0950907,0.0209055 0.1356609,0.008171 0.2715553,0.0109697 0.4074289,0.00854 0.013586,-0.0249551 0.00821,-0.0715955 -0.031249,-0.0587544 -0.1217905,0.001532 -0.2435847,-6.3366e-4 -0.36527128,-0.004694 -0.0206344,3.5848e-4 -0.0412786,-3.9339e-4 -0.0619101,3.934e-4 z m 0.0589623,0.003584 c 0.10267155,0.003267 0.205368,0.005727 0.3080504,0.004951 0.027752,9.3136e-4 0.055472,-5.3567e-4 0.083238,1.574e-5 0.021354,0.0107085 0.00753,0.0530964 -0.00245,0.0502055 -0.1307873,0.003355 -0.2615997,-5.3248e-4 -0.39218181,-0.007875 -0.0299678,-0.009496 -0.10684764,0.0246511 -0.0953064,-0.0321286 0.0126419,-0.0323774 0.0530915,0.001724 0.0805388,-0.007064 0.0128779,0.001385 0.0292437,-0.001906 0.005555,-0.001929 -0.010825,8.6386e-4 -0.059675,-0.002809 -0.0488265,-0.005859 0.0204545,-9.6861e-4 0.0409178,-5.5636e-4 0.0613825,-3.1664e-4 z m 0.0417205,0.0133036 c 0.0193529,0.008107 0.052903,0.002382 0.0682449,0.008022 -0.0566772,0.0130496 -0.11495639,0.0150756 -0.1727617,0.0175925 -0.0224699,-1.5193e-4 0.0237216,0.005166 0.0333727,5.9652e-4 0.050149,1.0617e-4 0.10019775,-0.008044 0.1488751,-0.0183089 0.03035,0.001414 -0.0223365,-0.005643 -0.0313042,-0.005256 -0.0155176,-3.077e-4 -0.0309862,-0.001708 -0.0464268,-0.002646 z m 0.1315162,4.6405e-4 c 0.013941,0.006833 0.048944,0.006652 0.014449,0.00149 -0.0046,-3.9107e-4 -0.00984,-0.003867 -0.014449,-0.00149 z m 0.068803,0.002417 c 0.013553,0.004076 0.052453,0.003257 0.055999,6.6115e-4 -0.018686,-8.686e-5 -0.037505,-5.4276e-4 -0.055999,-6.6115e-4 z m 0.1068259,7.911e-4 c 0.00946,0.008279 0.047511,-0.001319 0.01534,3.1617e-4 l -0.00778,-4.5092e-4 z m -0.37010818,0.006475 c -0.0153498,-0.001051 -0.057846,0.002718 -0.0173533,0.003146 0.0272394,-9.5661e-4 0.0593611,5.5238e-4 0.0836547,-0.002392 -0.0220603,-0.001416 -0.0442151,-5.8051e-4 -0.0663014,-7.54e-4 z m 0.33277038,0.005404 c -0.00662,0.003115 0.00657,-0.001016 0,0 z m -0.1246178,6.505e-4 c -0.021886,0.004273 -0.058331,-3.3274e-4 -0.072,0.006426 0.023676,-0.001035 0.06388,-3.2014e-4 0.07779,-0.006845 z m 0.1129127,0.001079 c -0.031716,0.0089 -0.075242,0.006329 -0.1002566,0.0142855 0.03585,-0.001641 0.073776,-0.006554 0.1073304,-0.0149683 l -0.0019,4.475e-5 -1.75e-5,4.1e-7 z m 0.029985,0.007708 c -8.626e-4,0.005337 0.00673,-0.004439 0,0 z m -0.27688989,0.003999 c 0.00147,0.00799 0.0409117,-6.806e-4 0.00979,-3.7589e-4 z M 0.7904341,0.36128879 c -0.0143124,0.0233005 -0.005721,0.0595623 0.02853,0.045713 0.0865784,-0.002638 0.17298138,0.003127 0.2595105,0.002662 0.068236,0.002418 0.1366937,-0.001066 0.2047982,0.003722 0.018933,-0.008813 0.011162,-0.0620779 -0.01868,-0.0475356 -0.1571135,0.002903 -0.314119,-0.004899 -0.47116995,-0.007011 z m 0.05309,0.002424 c 0.14460317,0.003389 0.289185,0.008606 0.433853,0.006534 0.016674,0.004615 0.015148,0.0505626 -0.00962,0.0377472 -0.1279534,-0.002502 -0.2559894,-0.001599 -0.38390094,-0.005718 -0.0293974,-0.006085 -0.0706602,0.0108071 -0.093497,-0.005062 -0.004416,-0.0218801 9.9842e-4,-0.0420068 0.0271087,-0.0338434 0.008686,7.289e-5 0.0173712,1.7717e-4 0.0260552,3.422e-4 z m 0.412441,0.0101217 c -0.033334,0.002421 -0.066868,0.003892 -0.099709,0.0103873 -0.042852,0.001412 0.016662,0.003096 0.027776,-0.001345 0.023111,-0.001989 0.059783,-0.006314 0.071933,-0.009042 z M 1.033017,0.37421005 c 0.012535,0.008415 0.044963,0.002735 0.00987,0.001171 l -0.00841,-0.001833 z m -0.15722334,6.939e-5 c -0.0205586,0.002556 -0.0413189,0.00194 -0.0618987,0.003637 0.0228514,0.002197 0.0500594,0.001592 0.0704603,-0.003518 z m 0.0604586,0.001631 c 0.008392,0.009067 0.0802021,0.0117045 0.0380515,0.005875 -0.0129055,-3.1468e-4 -0.0251926,-0.006911 -0.0380515,-0.005875 z m 0.18113344,0.007154 c -0.019914,0.001007 -0.073996,0.005183 -0.073999,0.007846 0.027497,-0.00217 0.055778,-0.003939 0.083158,-0.007267 l -0.00916,-5.7952e-4 z m -0.16615178,0.002645 c -0.0395285,0.003883 -0.10030752,-0.00177 -0.1279454,0.004841 0.042994,-3.3124e-4 0.0869615,0.001327 0.12931625,-0.004685 z m 0.27819828,0.002069 c -0.015833,2.3496e-4 -0.073189,0.005532 -0.027713,0.004752 0.00436,2.2752e-4 0.057123,-0.003671 0.027713,-0.004752 z m -0.2232914,0.001592 c -0.004,0.009198 0.051368,-0.001236 0.01799,3.7409e-4 -0.00601,2.1618e-4 -0.011989,-4.759e-4 -0.01799,-3.7409e-4 z m 0.1187404,0.001509 c -0.013825,0.006888 0.024846,0.005478 0.00518,0.001378 0.00399,-0.002832 -0.00668,-0.001491 -0.00518,-0.001378 z m -0.32661505,0.025343 c -0.0125623,0.00753 0.0766789,0.002635 0.11321756,0.004311 0.0762269,-1.494e-4 0.15245939,3.4351e-4 0.22867849,7.0082e-4 0.045545,0.003609 0.091614,0.002243 0.1370386,0.003934 0.014597,0.0104915 0.010124,0.0591092 -0.019235,0.0462696 -0.1118368,0.004091 -0.2238293,0.005926 -0.33563032,-4.1151e-4 -0.0428297,1.0159e-4 -0.0960557,-0.007126 -0.13728115,-3.8019e-4 0.0410479,0.002373 0.0909825,0.001976 0.13251365,0.004198 0.0957848,0.004575 0.19168112,0.006414 0.28752142,0.002261 0.030739,-0.00703 0.09359,0.0178354 0.08365,-0.035775 4.524e-4,-0.0415524 -0.06226,-0.0124336 -0.088636,-0.0215069 -0.088262,-0.005602 -0.1767263,-0.001434 -0.26508721,-0.00345 -0.0455668,6.6899e-4 -0.0913517,5.7788e-4 -0.13675004,-1.5082e-4 z m 0,0 c -0.0270222,0.0102233 -0.004989,0.10080304 -0.010678,0.034718 -0.002306,-0.0125356 0.00673,-0.024243 0.010678,-0.034718 z m 0.1231559,0.011579 c 0.0226584,0.008894 0.0562286,0.008319 0.0824785,0.008247 0.022674,0.002238 -0.0110529,-8.8696e-4 -0.0212559,-0.001745 -0.0206034,-3.0623e-4 -0.0409154,-0.003531 -0.0612226,-0.006502 z m -0.0425204,0.008647 c 0.0217418,0.00807 0.055246,0.007609 0.0723977,0.005416 -0.0241548,-7.7125e-4 -0.0488418,-0.002241 -0.0723977,-0.005416 z m 0.27388675,3.878e-5 c 0.015774,0.008307 0.059152,0.006024 0.017781,0.002038 -0.00583,-0.001455 -0.011728,-0.003433 -0.017781,-0.002038 z m -0.1158193,0.001663 c 0.00966,0.005443 0.06381,0.007772 0.064699,0.004576 -0.021496,-4.7794e-4 -0.043358,-0.003553 -0.064699,-0.004576 z m -0.222041,5.5823e-4 c 0.0150424,0.005391 0.0686132,-8.0161e-4 0.0236429,-1.249e-5 -0.007882,6.865e-5 -0.015762,-2.6559e-4 -0.0236429,1.249e-5 z m 0.3976803,0.005886 c -0.042443,0.006016 -0.084553,0.0119363 -0.1276308,0.0119048 -0.015543,0.005625 0.035042,0.001103 0.048721,-9.4161e-4 0.029131,-0.002635 0.058418,-0.005763 0.087189,-0.0113985 l -0.00827,4.3508e-4 z m -0.1432498,0.004797 c 0.003,0.002314 0.00221,-0.001329 0,0 z m -0.00395,3.4594e-4 c -0.025254,0.001259 -0.0738115,8.307e-5 -0.0833727,0.004767 0.0226987,-0.001424 0.0740599,-0.002043 0.0833727,-0.004767 z m 0.00866,-1.825e-5 c 0.00234,8.1245e-4 0.00233,-0.001496 0,0 z m -0.14121641,0.002749 c -0.0374983,0.003125 -0.0758895,-0.001062 -0.11325967,0.004515 0.0114366,0.002553 0.0599278,-0.00202 0.0844671,-0.001363 6.003e-4,7.12e-5 0.0409539,-0.002146 0.0287926,-0.003152 z m -0.0169621,0.00119 c -0.002414,0.001064 -5.045e-4,-0.001084 0,0 z m 0.0278719,-7.317e-4 c 0.00143,0.00164 7.6032e-4,-0.001702 0,0 z m 0.27771221,0.006066 c 0.012856,0.006246 0.020863,-0.004111 0,0 z m -0.43031517,0.0282217 c 0.0155707,0.008421 0.12783939,6.22e-4 0.12783939,6.22e-4 0.10286478,0.003944 0.20569808,-0.001528 0.30858698,-5.3211e-4 0.022086,5.6167e-4 0.065833,-0.0106288 0.051317,0.0276366 0.0111,0.0393467 -0.038161,0.0164658 -0.059059,0.0235235 -0.139048,-9.5742e-4 -0.29302349,0.005423 -0.43203637,7.8041e-4 -0.00515,0.009794 0.0574127,7.5728e-4 0.0703,0.003993 0.11118737,0.003114 0.22230527,-0.002129 0.33359447,-3.4593e-4 0.029413,0.001434 0.07943,-0.004553 0.088806,0.002664 0.00508,-0.0267694 0.015309,-0.0793816 -0.02955,-0.0627009 -0.087274,-7.7346e-4 -0.1744732,0.00262 -0.26172502,0.002269 -0.0633543,-0.001454 -0.13472485,0.002312 -0.19807345,0.00209 z m 0,0 c -0.009637,0.0129784 -0.002098,0.0357005 -0.003352,0.0520304 0.0166999,0.0144385 -0.001903,-0.0316071 0.003522,-0.0462616 -0.001207,-0.003179 0.0127011,-0.0139555 -1.7e-4,-0.005769 z m 0.36520687,0.0120901 c 0.022189,0.005366 0.049504,8.962e-4 0.073511,0.002347 -0.024091,-0.003995 -0.049195,-0.003163 -0.073511,-0.002347 z m -0.18360877,2.5693e-4 c 0.005679,0.007167 0.0582723,0.007044 0.0496243,0.005521 -0.016512,-0.002094 -0.0332488,-0.002259 -0.0496243,-0.005521 z m -0.14781882,0.002197 c -0.009293,0.006254 0.0409363,0.004483 0.0559852,0.004822 0.0126498,-0.004087 -0.031511,-0.001685 -0.0441788,-0.004388 -0.00393,-2.2877e-4 -0.007869,-9.2231e-4 -0.0118064,-4.34e-4 z m 0.23476589,0.00386 c 0.010048,0.007228 0.052452,0.001851 0.048454,1.9676e-4 -0.016099,0.001425 -0.032488,0.001433 -0.048454,-1.9676e-4 z m -0.1585735,6.186e-5 c 0.0165576,0.009853 0.0452327,0.005965 0.0666505,0.005877 -0.009831,-0.003415 -0.0458346,0.001022 -0.0653232,-0.005891 z m 0.3026336,0.001109 c 0.00812,0.007315 0.071278,0.003076 0.026379,0.001732 -0.00872,7.688e-5 -0.017809,-0.003538 -0.026379,-0.001732 z m 0.047108,0.006108 c -0.021393,0.001252 -0.071921,0.0102469 -0.075966,0.0137323 0.024791,-0.0015 0.059403,-0.009698 0.075966,-0.0137323 z m -0.1256044,0.00113 c -0.040427,0.005122 -0.081349,0.007739 -0.1215787,0.0134516 0.032438,0.001502 0.071111,-0.006324 0.1057559,-0.009088 0.014269,-0.002914 0.04958,-0.001794 0.051031,-0.004256 -0.011697,-0.001173 -0.023499,-9.7224e-4 -0.035208,-1.076e-4 z m -0.20115959,0.004872 c -0.0347845,0.004992 -0.0818315,-0.004312 -0.11043754,0.005192 0.0553043,-8.5055e-4 0.11054141,-0.002605 0.1658584,-0.004341 -0.0169662,-0.002832 -0.0372061,6.373e-5 -0.0554209,-8.51e-4 z m -0.0776613,0.03547 c -0.0145164,-0.001606 -0.0876625,0.00674 -0.0432322,0.00671 0.0879608,-0.005091 0.19085586,0.005832 0.27889029,0.003326 0.061781,-0.00138 0.1235782,-0.002637 0.18536,-0.002363 0.019781,0.008546 0.014479,0.0317504 -0.00958,0.0244461 -0.012739,-0.001516 -0.066405,0.00889 -0.029043,0.005616 0.020641,9.3891e-4 0.06434,-0.0195731 0.049969,0.0167802 -0.1494144,0.003069 -0.29907169,0.009812 -0.44840948,7.2261e-4 -0.0167282,-0.001965 -0.0611504,0.006139 -0.0272162,0.004683 0.0551088,-2.4659e-4 0.12488268,0.005236 0.18012929,0.003752 0.0750547,0.001106 0.15019519,-0.001573 0.22524339,-0.003516 0.027376,-0.00679 0.090199,0.0187768 0.075758,-0.0291751 0.00618,-0.0186282 -0.020427,-0.0228732 -0.00421,-0.027123 -0.1202996,-0.00171 -0.2407656,0.006705 -0.36097515,-0.002436 -0.0241846,-0.00142 -0.0484763,-0.001466 -0.0726873,-0.001423 z m -0.0531572,0.003389 c -0.0114829,0.0082 -0.0111598,0.0611065 -6.3376e-4,0.0544957 -0.007138,-0.0129716 -0.001279,-0.0479 6.3376e-4,-0.0544957 z m 0.0466984,0.0109944 c 0.0110313,0.002021 0.0584012,0.008681 0.0424517,0.003694 -0.0138103,-0.003905 -0.0282089,-0.003948 -0.0424517,-0.003694 z m 0.1333533,0.006541 c 0.0257759,0.008944 0.0624909,0.006222 0.0927232,0.004734 0.013358,-2.3893e-4 0.042423,-0.00576 0.011835,-0.003281 -0.034828,0.004417 -0.069816,0.001567 -0.10455819,-0.001453 z m -0.0544913,0.002507 c -0.0303008,0.003424 -0.0620019,0.003091 -0.0918688,0.006903 0.0326347,1.978e-5 0.0670234,-7.6268e-4 0.0984359,-0.006821 l -0.006566,-8.182e-5 z m 0.23890709,0.002003 c 0.017269,0.004626 0.068355,0.00412 0.071254,0.001606 -0.023748,4.921e-5 -0.047589,-0.00254 -0.071254,-0.001606 z m -0.1142245,0.008157 c -0.00621,0.007127 0.04159,0.001082 0.054508,0.004279 0.022609,-2.6742e-4 0.059486,0.003954 0.074086,0.002621 -0.042426,-0.005652 -0.085791,-0.005821 -0.1285943,-0.006901 z m -0.0662509,0.00387 c -0.0229029,0.001821 -0.0467153,-0.001725 -0.0688975,0.004832 0.0193725,-0.002222 0.0686836,-4.2897e-4 0.0688975,-0.004832 z m 0.2917341,0.0320761 c -0.028529,0.0108549 -0.068079,0.003616 -0.1004165,0.007006 -0.07707,0.002629 -0.1541338,0.002226 -0.23119938,-1.6498e-4 -0.0443224,0.001339 -0.097779,-0.001492 -0.14179445,-0.003211 0.0269374,0.009324 0.0852488,0.005244 0.12068056,0.007122 0.0836024,0.001254 0.16717497,0.003723 0.25077127,3.5259e-4 0.034498,0.003218 0.082958,-0.009167 0.1095335,0.001626 0.00166,0.0192497 0.00408,0.0422402 -0.023278,0.0332317 -0.089885,0.002296 -0.1797628,0.004557 -0.26962679,0.007202 -0.0578805,8.4325e-4 -0.13142366,-0.005729 -0.18920571,-0.002919 -0.0110573,0.008287 0.0476323,0.003613 0.0595382,0.005925 0.0864104,0.001774 0.1728398,9.7405e-4 0.2591878,-0.002872 0.054497,3.9897e-4 0.109128,-0.00425 0.1635042,-0.002175 0.00837,-0.008066 0.01187,-0.0513496 -0.0077,-0.0511237 z m -0.47341033,0.00363 c -0.0162559,0.009784 0.008329,0.0754907 7.221e-4,0.0348426 -0.005431,-0.00994 0.007293,-0.0404093 -7.221e-4,-0.0348426 z m 0.13362522,0.010385 c 0.0269906,0.0104647 0.0609485,0.005541 0.0905899,0.005499 -0.0299302,-0.004381 -0.0608252,9.8615e-4 -0.0905899,-0.005499 z m 0.29622531,0.004129 c -0.040614,0.005116 -0.081238,0.0084 -0.1222716,0.00758 -0.014194,0.002722 -0.066138,-0.001342 -0.053587,0.004335 0.039907,-0.001363 0.082139,-0.002961 0.1140324,-0.002513 0.027846,-0.003057 0.055676,-0.008948 0.083786,-0.006817 -0.00706,-0.002715 -0.014573,-0.002508 -0.021959,-0.002586 z m -0.077687,0.00887 c -0.0044,0.002697 7.34e-5,-0.002625 0,0 z m -0.33375266,-0.002485 c 0.0186878,0.005474 0.0617237,0.004706 0.0707805,0.004309 -0.0231591,-0.004337 -0.0472798,-0.004256 -0.0707805,-0.004309 z m 0.43921736,0.005424 c -0.011389,6.9762e-4 -0.064067,0.002049 -0.024593,0.004674 0.00273,-0.001177 0.038107,-0.001882 0.024593,-0.004674 z m -0.26097767,6.1463e-4 c -0.0527946,0.002724 -0.10576649,0.006962 -0.15865323,0.007306 0.0310858,0.005111 0.0641437,-8.2729e-4 0.0960068,-0.001498 0.0228348,-0.003178 0.0695706,-0.00315 0.0779779,-0.005999 -0.00531,0.001829 -0.009037,-0.002366 -0.0153315,1.91e-4 z m 0.0228479,0.003446 c 0.02003,0.005586 0.020743,-0.002869 0,0 z m 0.2455892,0.0262928 c -0.037577,0.006217 -0.079684,0.005439 -0.1191085,0.006142 -0.1118419,0.001005 -0.22370231,0.003584 -0.33553473,0.002556 0.0347269,0.009795 0.0829864,0.001195 0.12307721,0.003797 0.0939111,-9.1257e-4 0.18785892,-0.001485 0.28173082,-0.003764 0.026144,-0.001053 0.075485,-0.0134003 0.057784,0.0298214 -0.00755,0.045223 0.027689,-0.0457013 -0.00795,-0.0385524 z m -0.44492737,0.008698 c -0.0425804,0.0487581 0.0192609,0.0472702 0.0454458,0.0416986 0.13367504,8.6303e-4 0.27595867,-0.004017 0.40960407,-0.003847 0.00724,-0.0102425 -0.048045,-0.004254 -0.060668,-0.006515 -0.1320166,0.003185 -0.26621183,0.007746 -0.39811567,0.00726 -0.0195784,-0.009126 0.003019,-0.0283629 0.003734,-0.0385966 z m 0.27000347,0.008512 c 0.010315,0.004925 0.051592,-6.7896e-4 0.013823,-2.8442e-4 -0.00462,-1.2399e-4 -0.00925,-9.8923e-4 -0.013823,2.8442e-4 z m 0.1574351,0.001265 c -0.012829,0.001736 -0.071029,0.002166 -0.028973,0.003653 0.00516,-0.001227 0.051803,-0.002647 0.028973,-0.003653 z m -0.26426398,0.001347 c 0.0154218,0.006432 0.0564088,0.004414 0.0630723,0.002493 -0.021079,2.852e-4 -0.0422024,-0.001272 -0.0630723,-0.002493 z m 0.20356748,-2.16e-5 c -0.026025,0.00197 -0.090447,0.005911 -0.091373,0.0132688 0.028961,-0.00609 0.067426,-0.00886 0.091373,-0.0132688 z m -0.34517083,0.003011 c 0.009957,0.00399 0.0588748,0.006217 0.0462226,0.002267 -0.0152619,-2.3828e-4 -0.031263,-0.003897 -0.0462226,-0.002267 z m 0.19766473,0.007576 c -0.064155,0.001142 -0.12931706,0.003486 -0.19413098,0.003131 -0.0354242,-3.068e-5 0.0194826,0.004802 0.0317907,0.003472 0.0569638,-0.003038 0.11432669,-0.003288 0.17133248,-0.005902 -0.00176,-0.002818 -0.00674,8.8597e-4 -0.00899,-7.01e-4 z m 0.00958,-8.851e-5 c 3.642e-4,0.001237 0.00345,-4.524e-4 0,0 z m 0.1636203,0.001027 c -0.034217,0.005861 0.067842,8.0141e-4 0.011498,-1.9982e-4 l -0.00788,8.04e-5 z"
         id="path1494"
         inkscape:connector-curvature="0"
         sodipodi:nodetypes="cccccccccccccccccccccccccccccccccccccccccccccccccccccccccccccccccccccccccccccccccccccccccccccccccccccccccccccccccccccccccccccccccccccccccccccccccccccccccccccccccccccccccccccccccccccccccccccccccccccccccccccccccccccccccccccccccccccccccccccccccccccccccccccccccccccccccccccccccccccccccccccccccccccccccccccccccccccccccccccccccccccccccccccccccccccccccccccccccccccccccccccccccccccccccccccccccccccccccccccccccccccccccccccccccccccccccccccccccccccccccccccccccccccccccccccccccccccccccccccccccccccccccccccccccccccccc"
         inkscape:export-xdpi="96"
         inkscape:export-ydpi="96" /></g><rect
       style="fill:none;fill-opacity:1;stroke:none;stroke-width:0;stroke-miterlimit:4;stroke-dasharray:none;stroke-opacity:1"
       id="rect1497"
       width="14.238015"
       height="15.424516"
       x="42.714043"
       y="-541.04456"
       transform="scale(1,-1)" /></g></svg>