<?xml version="1.0" encoding="UTF-8" standalone="no"?>
<!-- Created with Inkscape (http://www.inkscape.org/) -->

<svg
   xmlns:dc="http://purl.org/dc/elements/1.1/"
   xmlns:cc="http://creativecommons.org/ns#"
   xmlns:rdf="http://www.w3.org/1999/02/22-rdf-syntax-ns#"
   xmlns:svg="http://www.w3.org/2000/svg"
   xmlns="http://www.w3.org/2000/svg"
   xmlns:sodipodi="http://sodipodi.sourceforge.net/DTD/sodipodi-0.dtd"
   xmlns:inkscape="http://www.inkscape.org/namespaces/inkscape"
   version="1.1"
   id="svg842"
   xml:space="preserve"
   width="126.77061"
   height="580.01184"
   viewBox="0 0 126.77061 580.01184"
   sodipodi:docname="shovel.svg"
   inkscape:version="0.92.4 (5da689c313, 2019-01-14)"
   inkscape:export-filename="/Users/jennadeboisblanc/Desktop/plants/shovel.png"
   inkscape:export-xdpi="96"
   inkscape:export-ydpi="96"><metadata
     id="metadata848"><rdf:RDF><cc:Work
         rdf:about=""><dc:format>image/svg+xml</dc:format><dc:type
           rdf:resource="http://purl.org/dc/dcmitype/StillImage" /><dc:title></dc:title></cc:Work></rdf:RDF></metadata><defs
     id="defs846" /><sodipodi:namedview
     pagecolor="#ffffff"
     bordercolor="#666666"
     borderopacity="1"
     objecttolerance="10"
     gridtolerance="10"
     guidetolerance="10"
     inkscape:pageopacity="0"
     inkscape:pageshadow="2"
     inkscape:window-width="1058"
     inkscape:window-height="758"
     id="namedview844"
     showgrid="false"
     inkscape:zoom="0.77674609"
     inkscape:cx="97.489206"
     inkscape:cy="281.72277"
     inkscape:window-x="0"
     inkscape:window-y="0"
     inkscape:window-maximized="0"
     inkscape:current-layer="g850"
     fit-margin-top="0"
     fit-margin-left="0"
     fit-margin-right="0"
     fit-margin-bottom="0"
     showguides="false" /><g
     id="g850"
     inkscape:groupmode="layer"
     inkscape:label="Fences_Shovel"
     transform="matrix(1.3333333,0,0,-1.3333333,-310.51079,873.74721)"><g
       id="g852"
       transform="matrix(610.6,0,0,789.1,-415.78277,50.558622)"><path
         style="fill:#000000;stroke-width:0.00051864"
         d="m 1.153966,0.21510949 c -0.043112,0.0163402 -0.078953,0.0549989 -0.085188,0.1016379 -0.00138,0.0277709 -0.010576,0.0613494 -0.00422,0.0858719 0.022003,0.006612 0.044781,-0.0103884 0.063692,-0.001245 -0.00872,0.0432404 -0.013605,0.0871435 -0.011569,0.13133338 -1.548e-4,0.0415984 0.00191,0.0864993 -0.00562,0.12750509 -0.014764,0.0336431 -0.047004,0.0546816 -0.03866,0.0976797 0.011373,0.0162643 0.046363,0.003438 0.066468,0.007281 0.020576,-0.005795 0.063584,0.0138177 0.055175,-0.0238436 0.01348,-0.0433978 -0.046022,-0.0598259 -0.038988,-0.10147403 0.00414,-0.0446805 0.00203,-0.0897796 0.00355,-0.1345263 0.00199,-0.0347643 -0.010621,-0.0771306 -0.0054,-0.10726652 0.019137,-0.002713 0.069648,0.0163236 0.062515,-0.0214255 -0.00221,-0.0371995 0.011849,-0.079094 -0.010673,-0.1121418 -0.012633,-0.0187731 -0.028737,-0.0442034 -0.05108,-0.049386 z m 0.00627,0.006519 c 0.039482,0.0271825 0.058947,0.0748762 0.049958,0.12190846 -0.0044,0.0189644 0.011306,0.0617024 -0.023254,0.0517376 -0.017499,0.001163 -0.023445,-0.0102014 -0.040786,-2.9539e-4 -0.016927,3.0395e-4 -0.032166,-0.005944 -0.048974,0.001787 -0.013301,-6.5922e-4 -0.040159,0.006895 -0.028592,-0.0167542 0.00432,-0.0422739 0.00294,-0.0901064 0.034377,-0.12326654 0.014986,-0.0144759 0.036021,-0.0382225 0.057272,-0.0351167 z m -0.016496,0.0746539 c -0.010063,-0.0256317 -0.01597,0.0604762 -0.00911,0.0671426 0.00612,0.007728 0.00216,-0.0432297 0.00911,-0.0671426 z m -0.01841,0.0607817 c -0.012864,0.0117482 0.00609,0.0122785 0,0 z m 0.016219,0.0424432 c 0.00731,0.0339546 0.00878,0.0688535 0.00954,0.1034952 -0.012279,-0.004354 -0.036106,0.006128 -0.02759,-0.0170039 0.00258,-0.027494 0.00138,-0.0655978 0.018047,-0.0864913 z m 0.00307,0.10763942 c 0.015076,0.007881 0.00215,0.0395277 0.00641,0.0562394 -0.0039,0.0226429 0.00621,0.0607538 -0.00657,0.0761606 -0.022713,0.00688 -0.01515,-0.0177811 -0.016835,-0.0331099 1.811e-4,-0.032249 -0.00926,-0.0679325 -0.00245,-0.0983197 0.00631,-0.002049 0.013004,-0.001569 0.019441,-9.7035e-4 z m -0.00604,0.1622463 c -0.00153,0.001657 -0.00153,-0.001657 0,0 z m -0.013413,0.0103648 c 0.020265,-0.006792 0.033077,0.00755 0.04477,0.0218663 0.011175,0.0162497 0.02035,0.0590823 -0.013007,0.0495341 -0.019376,-0.003614 -0.054369,0.007604 -0.064293,-0.006492 -0.0012,-0.0245728 0.010645,-0.0543123 0.032531,-0.0649087 z"
         id="path856"
         inkscape:connector-curvature="0"
         sodipodi:nodetypes="cccccccccccccccccccccccccccccccccccccccccccccccccc" /></g><path
       style="fill:#b1afb1;fill-opacity:1;stroke:none;stroke-width:0;stroke-miterlimit:4;stroke-dasharray:none;stroke-opacity:1"
       d="m 62.359346,382.24337 c -0.742793,-1.38792 -2.754304,-7.37577 -4.470025,-13.30634 -3.323043,-11.48644 -5.287676,-27.24917 -7.281025,-58.41745 -0.679274,-10.62124 -1.576994,-20.78512 -1.994932,-22.58641 -1.379167,-5.94414 2.534062,-8.59628 13.809986,-9.35954 l 9.865174,-0.66776 -0.573617,17.59427 c -1.213742,37.22851 -5.422517,86.68422 -7.558795,88.82049 -0.245427,0.24543 -1.053972,-0.68934 -1.796766,-2.07726 z"
       id="path11457"
       inkscape:connector-curvature="0"
       transform="matrix(0.75000002,0,0,-0.75000002,232.8831,655.31042)" /><path
       style="fill:#b1afb1;fill-opacity:1;stroke:none;stroke-width:0;stroke-miterlimit:4;stroke-dasharray:none;stroke-opacity:1"
       d="M 71.317621,572.29743 C 61.718092,569.54048 49.947536,558.41604 34.158222,537.17783 17.417207,514.65948 10.34815,486.85267 6.8113075,429.60611 6.045732,417.21467 4.8732948,405.39659 4.2058915,403.3437 c -2.035377,-6.26068 -1.4630283,-10.75202 1.6478429,-12.93096 3.4143883,-2.39153 18.2796026,-2.7448 23.7688916,-0.56486 8.128659,3.22809 12.879031,3.65534 24.928243,2.24203 10.720211,-1.25742 12.811067,-1.17341 16.350697,0.65701 5.041635,2.60713 9.997002,2.65989 17.022262,0.18123 2.989226,-1.05466 10.079847,-2.0685 15.756932,-2.25299 9.9814,-0.32435 10.41242,-0.21591 13.06316,3.28666 2.61102,3.45008 2.79293,5.64324 3.83116,46.18797 0.948,37.02097 0.81338,44.22015 -1.03344,55.26492 -4.14238,24.77322 -13.73702,46.84478 -28.247459,64.98059 -6.602366,8.25194 -13.382095,14.13878 -15.301128,13.28596 -0.143704,-0.0639 -2.247647,-0.68658 -4.675432,-1.38383 z m -6.03199,-79.08233 c -0.237637,-8.14636 -3.173161,-55.93237 -3.887769,-63.28713 -0.361194,-3.71743 -1.168118,-6.75897 -1.793164,-6.75897 -4.747765,0 -3.593915,59.81023 1.407634,72.96531 1.809757,4.76002 4.4448,2.95995 4.273299,-2.91921 z M 51.67418,425.52114 c -0.444139,-4.49724 -3.621979,-6.74747 -3.621979,-2.56472 0,3.53086 1.310512,6.64969 2.794153,6.64969 0.677189,0 1.049711,-1.83824 0.827826,-4.08497 z"
       id="path11459"
       inkscape:connector-curvature="0"
       transform="matrix(0.75000002,0,0,-0.75000002,232.8831,655.31042)" /></g></svg>