<?xml version="1.0" encoding="UTF-8" standalone="no"?>
<!-- Created with Inkscape (http://www.inkscape.org/) -->

<svg
   xmlns:dc="http://purl.org/dc/elements/1.1/"
   xmlns:cc="http://creativecommons.org/ns#"
   xmlns:rdf="http://www.w3.org/1999/02/22-rdf-syntax-ns#"
   xmlns:svg="http://www.w3.org/2000/svg"
   xmlns="http://www.w3.org/2000/svg"
   xmlns:sodipodi="http://sodipodi.sourceforge.net/DTD/sodipodi-0.dtd"
   xmlns:inkscape="http://www.inkscape.org/namespaces/inkscape"
   version="1.1"
   id="svg4048"
   width="332.95798"
   height="310.85858"
   viewBox="0 0 332.95798 310.85858"
   sodipodi:docname="0.svg"
   inkscape:version="0.92.4 (5da689c313, 2019-01-14)">
  <metadata
     id="metadata4054">
    <rdf:RDF>
      <cc:Work
         rdf:about="">
        <dc:format>image/svg+xml</dc:format>
        <dc:type
           rdf:resource="http://purl.org/dc/dcmitype/StillImage" />
        <dc:title />
      </cc:Work>
    </rdf:RDF>
  </metadata>
  <defs
     id="defs4052" />
  <sodipodi:namedview
     pagecolor="#ffffff"
     bordercolor="#666666"
     borderopacity="1"
     objecttolerance="10"
     gridtolerance="10"
     guidetolerance="10"
     inkscape:pageopacity="0"
     inkscape:pageshadow="2"
     inkscape:window-width="1167"
     inkscape:window-height="820"
     id="namedview4050"
     showgrid="false"
     inkscape:zoom="1.2136524"
     inkscape:cx="164.23517"
     inkscape:cy="176.676"
     inkscape:window-x="0"
     inkscape:window-y="0"
     inkscape:window-maximized="0"
     inkscape:current-layer="svg4048"
     fit-margin-top="0"
     fit-margin-left="0"
     fit-margin-right="0"
     fit-margin-bottom="0" />
  <path
     style="fill:#000000"
     d="M 122.3125,0.00488191 C 99.833445,-1.2351995 78.137714,4.9079775 56.210657,8.7663512 50.491355,8.4100515 42.455003,16.60383 39.05267,9.2880056 34.539471,11.602715 20.267634,22.660577 21.575701,17.144183 16.902921,21.035798 -8.3438135,19.536356 3.9898735,28.092542 20.878135,24.321997 37.044767,31.608409 42.627528,48.88477 c 6.62174,4.140298 2.35078,13.794071 8.294352,14.891602 3.17642,14.97786 12.06632,27.345971 15.17187,42.509758 5.667776,13.74341 11.230231,27.23923 15.70703,41.42188 5.427418,16.11254 12.997841,31.891 20.13086,47 9.28826,12.95714 12.2485,28.15002 20.67157,41.58393 8.84599,9.41338 12.05779,23.29321 22.09156,30.59398 1.70151,8.56346 7.33434,16.1525 18.14097,24.12703 8.38182,6.7903 17.90717,11.51197 28.66426,14.70286 17.68377,7.40492 42.28485,8.62839 54.39411,-9.1637 7.4252,-13.10627 19.11002,-23.43047 24.40277,-37.8988 4.25793,-11.43762 3.70268,-28.59773 5.26238,-36.60857 -0.54104,-10.00004 -3.2842,-20.70594 0.0714,-30.24449 3.13256,-5.80833 9.54855,-3.68733 14.95014,-4.01604 12.28213,-3.48527 23.90433,-10.66916 32.32767,-21.51401 14.28962,-11.10955 10.3619,-30.35089 4.39405,-44.81542 C 318.81653,102.26566 303.01602,87.529198 287,74.467782 262.35091,56.873307 236.58217,40.325729 207.8653,30.286705 181.48008,20.778075 156.97624,5.548885 129.17174,0.35072677 c -2.27633,-0.26254653 -4.57,-0.32534493 -6.85924,-0.34584486 z m 0.65234,14.91796009 c 21.57547,1.257045 40.29399,13.301945 59.69145,21.486142 6.65024,6.62045 16.91071,13.606148 20.26609,21.185603 -12.91086,-6.510645 -26.7022,-12.02237 -40.05987,-16.16562 -14.97342,1.397815 -26.13926,-12.286735 -37.46963,-21.009832 -0.91234,-1.319718 -7.42426,-5.457146 -2.42804,-5.496293 z m -15.10742,0.4375 c 8.91487,3.316616 24.66429,16.37477 24.98109,21.31943 C 112.91854,34.124984 93.91487,26.937623 74.19651,23.139047 60.647186,19.740138 87.100613,19.292564 91.245769,17.448949 96.823405,17.04177 102.30289,15.902675 107.85742,15.360342 Z M 56.84766,35.809562 C 69.905796,52.616799 84.111967,69.122607 94.543539,87.852533 109.382,123.3224 125.62745,158.35677 145.8978,191.10779 c 15.11802,22.78827 39.06995,36.85778 58.58574,55.24641 -6.53549,9.6918 -26.66976,4.1967 -35.97377,13.3401 -10.4611,-0.31485 -14.35043,-21.08257 -17.40684,-29.5606 7.58672,0.64271 26.72133,-11.58376 10.56985,-11.38616 -9.26374,2.06997 -12.30034,7.36738 -15.42083,-2.13334 -8.2268,-3.65595 -18.44312,-24.54963 -14.5664,-26.8222 13.54037,1.05305 0.35638,-10.42118 -6.26404,-10.95351 C 114.28046,160.68352 108.0601,139.78225 100.48759,119.904 93.505291,98.553965 84.092134,77.756738 71.852368,58.890539 67.342513,51.138295 58.108945,43.174664 56.84766,35.809562 Z m 34.07422,3.99414 c 17.52433,-0.481832 34.10715,6.15481 49.9121,12.9043 25.85937,7.661641 53.03676,11.837867 77.15214,24.605125 13.40339,4.790288 23.0433,14.889023 31.0918,25.928383 10.43129,15.95889 22.05138,31.94721 27.77797,50.24372 1.39354,8.25946 3.21217,20.06345 -8.99938,13.05183 -12.69635,-1.42152 -22.52609,-1.48892 -34.39102,-10.31376 C 216.96867,145.54513 202.99747,131.50668 187.24805,119.89941 166.44934,102.1235 146.34598,83.368361 123.79554,67.777499 113.7642,57.12332 92.313104,48.401904 86.687459,39.994331 l 1.876461,-0.137282 z m 108.375,3.66016 c 10.61593,6.965971 30.40913,7.624313 33.69017,21.159994 -1.94666,14.668069 6.86987,8.622115 7.24814,-0.943515 7.42266,3.391495 29.02453,11.881546 15.10509,18.228815 6.73638,14.738586 11.83638,-11.099439 17.46513,2.631969 10.55786,11.794987 5.13741,29.725845 6.90676,44.198265 -3.40425,3.74968 -9.30786,-17.95847 -16.30863,-22.10785 C 254.0825,95.516418 243.16559,85.054979 232.57422,74.708002 217.92584,67.1626 207.82946,56.373644 199.29688,43.463862 Z m -118.59571,5.57422 c 21.85577,13.120084 44.37431,25.824861 63.80774,42.669246 23.46024,18.987822 45.44195,39.693462 69.49109,57.936222 11.60902,9.25274 23.70148,23.35291 28.61133,35.59565 -2.70624,7.63788 8.50901,5.16628 3.81834,15.627 -0.23568,14.13491 -1.01694,38.77469 -21.12696,36.3945 -17.25782,2.737 -30.77533,-10.44929 -43.87281,-19.21324 -4.79776,-8.85938 -12.41345,-10.86697 -17.42992,-19.83906 -4.83118,-8.97409 -12.13511,-11.74062 -13.91992,-19.1895 -4.2157,-9.08755 -6.89441,-5.83088 -9.14341,-15.66031 -5.97163,-1.81994 -8.66713,-20.82317 -9.85855,-14.65019 -4.06891,-11.5081 -10.33389,-18.75659 -15.55664,-26.23047 C 109.95007,109.00335 104.42835,94.259735 97.501677,81.186192 93.35853,70.08945 83.827723,59.389799 80.70117,49.038082 Z m 204.17774,45.47461 c 14.38508,11.047948 28.01781,27.062218 28.92036,46.023618 -0.18099,11.25784 -16.53782,28.66197 -26.71299,27.14975 -1.73,-23.44724 -1.27835,-47.15817 -2.35976,-70.501498 -0.38302,-0.418203 -0.81321,-2.369288 0.15239,-2.67187 z M 129.61133,142.05175 c -2.95385,2.06184 4.45911,2.08698 0,0 z m 5.89844,11.03515 c -0.78804,3.99176 5.34436,3.21039 0,0 z m 4.43164,11.6211 c 3.62418,2.15161 -2.21372,2.78333 0,0 z m 95.78125,1.0508 c 8.3786,2.4489 -1.68611,2.81101 0,0 z m 16.70898,37.2422 c 3.27412,3.24205 -0.4093,8.0256 0,0 z m 1.12305,5.6718 c 3.70226,13.96967 -6.02848,28.66236 -10.15656,42.4865 -2.89628,8.28375 -4.89405,9.80364 -9.93329,8.1991 -2.0739,-0.11988 -2.27669,-5.01611 -5.03711,-3.9004 -3.81415,-4.49449 -4.73351,2.56978 -8.24478,-4.22645 7.12597,-9.58243 28.48878,-6.24711 28.51803,-24.73415 2.31611,-5.679 1.4488,-12.8375 4.85371,-17.8246 z m -40.4961,36.0352 c 2.19564,2.03262 -3.34534,2.26436 0,0 z m 0.93555,8.6797 c 6.14006,5.95004 26.45152,7.40344 17.19141,16.8242 -8.61479,11.7874 -27.69505,19.24507 -42.73828,13.0215 -9.0904,-4.84197 -27.96263,-19.54881 -7.05983,-21.3174 11.01483,-2.27014 21.81676,-5.38771 32.6067,-8.5283 z"
     id="path4058"
     inkscape:connector-curvature="0"
     sodipodi:nodetypes="ccccccccccccccccccccccccccccccccccccccccccccccccccccccccccccccccccccccccccccccccccccccccccccccccccccccccccccccccc" />
  <path
     style="fill:#63dd92;fill-opacity:1;stroke:none;stroke-width:0;stroke-miterlimit:4;stroke-dasharray:none;stroke-opacity:1"
     d="m 214.02229,236.68498 c -13.48418,-2.69876 -37.81579,-21.75246 -50.6202,-39.63989 -2.04036,-2.85033 -5.72892,-7.39926 -8.19681,-10.10872 -2.46788,-2.70946 -4.48706,-5.68432 -4.48706,-6.6108 0,-0.92648 -1.34945,-3.28825 -2.99878,-5.24837 -1.64933,-1.96011 -4.14006,-5.5873 -5.53496,-8.06041 -1.39489,-2.47312 -3.54344,-5.93583 -4.77454,-7.69492 -1.88564,-2.69434 -1.97745,-3.36349 -0.58263,-4.24631 1.35124,-0.85524 1.2848,-1.05125 -0.36125,-1.06581 -1.15532,-0.0103 -2.32031,-1.22635 -2.72699,-2.84667 -0.39049,-1.55585 -1.5087,-3.13531 -2.48491,-3.50992 -1.07813,-0.41372 -1.54286,-1.56851 -1.18379,-2.94158 0.32512,-1.24326 0.18826,-2.41671 -0.30413,-2.60766 -2.38605,-0.92532 -14.84757,-21.29678 -18.38886,-30.06117 C 104.40523,94.787294 94.712629,74.53416 88.119012,63.443344 84.610945,57.542589 81.927458,52.15445 82.155707,51.469702 c 0.46821,-1.404629 30.597373,16.579709 44.408053,26.507521 9.58838,6.892618 21.24298,16.43947 51.53794,42.217267 10.25423,8.72527 23.93025,20.11536 30.39113,25.3113 6.46089,5.19595 14.85072,12.83738 18.64407,16.98097 7.95172,8.68589 15.90048,21.46455 15.03935,24.1777 -0.33601,1.05871 0.67302,3.04489 2.34473,4.61538 2.72063,2.55591 2.8868,3.31481 2.27914,10.40928 -1.77283,20.69793 -4.82761,30.1163 -10.73846,33.10834 -4.17624,2.11401 -15.89369,3.11752 -22.03937,1.88752 z"
     id="path9564"
     inkscape:connector-curvature="0" />
  <path
     style="fill:#63dd92;fill-opacity:1;stroke:none;stroke-width:0;stroke-miterlimit:4;stroke-dasharray:none;stroke-opacity:1"
     d="m 269.27857,167.29095 c -0.3762,-0.3762 -4.70759,-1.18352 -9.6253,-1.79406 -11.20876,-1.39158 -17.88466,-3.90978 -27.42945,-10.34664 -9.37057,-6.31936 -35.40566,-27.43508 -64.06626,-51.96084 C 141.86789,80.692516 122.91718,65.9414 103.18451,52.614787 95.11833,47.167223 88.284332,41.971441 87.997853,41.068605 c -0.430946,-1.358121 1.065645,-1.514805 8.668604,-0.907548 10.526343,0.840751 21.895533,3.80527 36.540713,9.527996 5.61582,2.194431 19.5594,6.425753 30.98572,9.402939 40.70735,10.606502 61.39327,19.509983 73.91019,31.811879 13.98618,13.745899 35.70388,49.849359 38.67709,64.296679 1.81659,8.82717 0.72329,12.77441 -3.53825,12.77441 -1.80364,0 -3.58715,-0.30781 -3.96335,-0.68401 z"
     id="path9566"
     inkscape:connector-curvature="0" />
  <path
     style="fill:#63dd92;fill-opacity:1;stroke:none;stroke-width:0;stroke-miterlimit:4;stroke-dasharray:none;stroke-opacity:1"
     d="m 161.45864,254.89666 c -3.00241,-3.41955 -9.57516,-19.59545 -9.57516,-23.56498 0,-0.71881 1.6956,-1.64606 3.768,-2.06054 4.27162,-0.85432 12.54555,-5.95885 12.54555,-7.73986 0,-2.52067 -5.65584,-3.40715 -10.60262,-1.66182 -6.44929,2.27544 -9.11109,2.15165 -10.11819,-0.47054 -0.46001,-1.19775 -2.5182,-3.58519 -4.57376,-5.3054 -3.83939,-3.21305 -11.99356,-17.98504 -11.99356,-21.72738 0,-1.40369 1.02931,-2.21841 3.11459,-2.46527 1.71302,-0.20279 3.31409,-0.97701 3.55793,-1.72048 0.56611,-1.72608 -4.95832,-6.87752 -9.30735,-8.67895 -4.4635,-1.84884 -11.05999,-15.07239 -21.15385,-42.40572 C 94.074923,101.77016 91.124288,94.372709 85.740014,83.494024 78.713495,69.297254 73.482096,60.623347 65.875116,50.557085 c -3.518971,-4.65663 -6.109125,-8.755605 -5.755897,-9.108832 0.794311,-0.794311 20.795296,25.108523 27.98697,36.245307 2.906186,4.500422 9.074482,16.822986 13.707321,27.38347 11.44873,26.09719 27.47221,58.0314 38.23814,76.20725 10.93061,18.45387 18.72677,26.9136 44.45894,48.24304 10.57469,8.76537 19.2267,16.46141 19.2267,17.1023 0,2.0997 -7.96627,5.04979 -18.42188,6.82202 -5.64581,0.95697 -11.52646,2.56641 -13.06811,3.57654 -4.23681,2.77606 -6.95049,2.23991 -10.78866,-2.13152 z"
     id="path9568"
     inkscape:connector-curvature="0" />
  <path
     style="fill:#63dd92;fill-opacity:1;stroke:none;stroke-width:0;stroke-miterlimit:4;stroke-dasharray:none;stroke-opacity:1"
     d="m 193.49663,284.8267 c -4.66511,-0.70317 -17.27637,-9.68573 -19.89606,-14.17126 -3.12355,-5.34825 -1.4685,-6.5956 13.32227,-10.0406 6.68439,-1.5569 15.36336,-3.72958 19.2866,-4.82818 l 7.13316,-1.99746 6.84989,3.14128 c 14.67222,6.7285 15.59616,8.19449 9.39172,14.90158 -9.50517,10.27522 -22.67273,15.01668 -36.08758,12.99464 z"
     id="path9570"
     inkscape:connector-curvature="0" />
  <path
     style="fill:#63dd92;fill-opacity:1;stroke:none;stroke-width:0;stroke-miterlimit:4;stroke-dasharray:none;stroke-opacity:1"
     d="m 232.19857,257.61208 c -1.32988,-1.32988 -4.22662,-2.71146 -6.4372,-3.07019 -2.21058,-0.35873 -4.32005,-1.13897 -4.68771,-1.73386 -1.22333,-1.97937 3.18228,-5.39868 10.97587,-8.51867 13.67696,-5.47526 15.08909,-7.19159 17.72841,-21.54746 1.89765,-10.32176 2.30435,-11.65254 3.56118,-11.65254 1.58638,0 1.30361,6.69729 -0.56579,13.40043 -2.63534,9.44954 -11.24896,31.29302 -13.2106,33.50106 -2.37998,2.67892 -4.41093,2.57446 -7.36416,-0.37877 z"
     id="path9572"
     inkscape:connector-curvature="0" />
  <path
     style="fill:#63dd92;fill-opacity:1;stroke:none;stroke-width:0;stroke-miterlimit:4;stroke-dasharray:none;stroke-opacity:1"
     d="m 286.62217,153.70059 c -0.36601,-7.8509 -0.95908,-24.42694 -1.31794,-36.83565 l -0.65247,-22.561296 5.57031,4.890855 c 8.32136,7.306341 14.19592,14.843201 18.44892,23.669311 7.3036,15.15693 6.24634,23.78177 -4.32669,35.29577 -4.55623,4.96172 -12.19973,9.72257 -15.71743,9.78978 -0.90189,0.0172 -1.55655,-4.63588 -2.0047,-14.24877 z"
     id="path9574"
     inkscape:connector-curvature="0" />
  <path
     style="fill:#63dd92;fill-opacity:1;stroke:none;stroke-width:0;stroke-miterlimit:4;stroke-dasharray:none;stroke-opacity:1"
     d="m 272.2952,119.29649 c -3.7502,-6.97564 -8.6369,-12.96088 -21.50298,-26.336916 -9.15743,-9.520391 -18.77173,-18.624997 -21.36511,-20.23246 -9.47878,-5.875248 -17.14662,-12.454306 -22.80887,-19.570147 -3.18675,-4.00484 -5.79409,-7.539497 -5.79409,-7.854793 0,-0.629787 11.33117,3.640274 20.2063,7.614585 7.36724,3.299072 11.25033,7.941925 11.27341,13.479169 0.01,2.354164 0.50217,5.045996 1.09412,5.981847 0.92109,1.456219 1.42254,1.38818 3.47792,-0.471914 1.3209,-1.195403 2.40967,-2.747647 2.41949,-3.449429 0.01,-0.701781 0.46207,-1.976794 1.00502,-2.83336 0.78927,-1.24517 2.24574,-0.927391 7.265,1.585107 10.91204,5.462267 13.55756,9.191457 9.61275,13.550413 -1.55604,1.719414 -1.63733,2.436066 -0.43994,3.878828 2.13913,2.577504 4.70771,2.178402 8.33291,-1.294759 1.75925,-1.685474 3.89983,-2.795426 4.75685,-2.46656 0.85701,0.328866 3.11686,3.412075 5.02189,6.851575 3.29497,5.949007 3.49207,7.090989 4.04632,23.443404 0.37545,11.07743 0.16828,17.18315 -0.58263,17.17115 -0.64089,-0.0103 -3.34915,-4.08083 -6.01836,-9.04574 z"
     id="path9576"
     inkscape:connector-curvature="0" />
  <path
     style="fill:#63dd92;fill-opacity:1;stroke:none;stroke-width:0;stroke-miterlimit:4;stroke-dasharray:none;stroke-opacity:1"
     d="M 194.99788,53.808854 C 184.73809,48.627303 165.8565,41.950562 158.53372,40.914718 c -3.7126,-0.525165 -8.95624,-2.267273 -11.65254,-3.871352 -5.87583,-3.495641 -24.52587,-18.877176 -25.15972,-20.750371 -0.68001,-2.009583 11.48233,-0.261853 21.44054,3.081009 4.61989,1.550844 15.39858,6.058836 23.95265,10.017759 12.20283,5.647607 17.26857,8.734151 23.5182,14.329582 7.36392,6.593084 12.08456,12.075005 11.15835,12.957816 -0.21143,0.201525 -3.26842,-1.090114 -6.79332,-2.870307 z"
     id="path9578"
     inkscape:connector-curvature="0" />
  <path
     style="fill:#63dd92;fill-opacity:1;stroke:none;stroke-width:0;stroke-miterlimit:4;stroke-dasharray:none;stroke-opacity:1"
     d="M 116.92585,33.493868 C 83.764989,25.588125 70.186313,21.773046 72.240739,20.939091 73.42507,20.458335 81.948233,19.027786 91.1811,17.760094 c 15.48743,-2.126457 17.06611,-2.161417 20.39195,-0.451585 8.25191,4.242361 20.5011,15.217697 20.5011,18.369094 0,1.076788 -3.72335,0.540041 -15.1483,-2.183735 z"
     id="path9580"
     inkscape:connector-curvature="0" />
</svg>
