<?xml version="1.0" encoding="UTF-8" standalone="no"?>
<!-- Created with Inkscape (http://www.inkscape.org/) -->

<svg
   xmlns:dc="http://purl.org/dc/elements/1.1/"
   xmlns:cc="http://creativecommons.org/ns#"
   xmlns:rdf="http://www.w3.org/1999/02/22-rdf-syntax-ns#"
   xmlns:svg="http://www.w3.org/2000/svg"
   xmlns="http://www.w3.org/2000/svg"
   xmlns:sodipodi="http://sodipodi.sourceforge.net/DTD/sodipodi-0.dtd"
   xmlns:inkscape="http://www.inkscape.org/namespaces/inkscape"
   version="1.1"
   id="svg4048"
   width="322.38562"
   height="289.91666"
   viewBox="0 0 322.38562 289.91666"
   sodipodi:docname="1.svg"
   inkscape:version="0.92.4 (5da689c313, 2019-01-14)">
  <metadata
     id="metadata4054">
    <rdf:RDF>
      <cc:Work
         rdf:about="">
        <dc:format>image/svg+xml</dc:format>
        <dc:type
           rdf:resource="http://purl.org/dc/dcmitype/StillImage" />
        <dc:title />
      </cc:Work>
    </rdf:RDF>
  </metadata>
  <defs
     id="defs4052" />
  <sodipodi:namedview
     pagecolor="#ffffff"
     bordercolor="#666666"
     borderopacity="1"
     objecttolerance="10"
     gridtolerance="10"
     guidetolerance="10"
     inkscape:pageopacity="0"
     inkscape:pageshadow="2"
     inkscape:window-width="1047"
     inkscape:window-height="761"
     id="namedview4050"
     showgrid="false"
     inkscape:zoom="1.7163636"
     inkscape:cx="150.31128"
     inkscape:cy="172.08112"
     inkscape:window-x="0"
     inkscape:window-y="0"
     inkscape:window-maximized="0"
     inkscape:current-layer="svg4048"
     fit-margin-top="0"
     fit-margin-left="0"
     fit-margin-right="0"
     fit-margin-bottom="0" />
  <path
     style="fill:#000000"
     d="M 90.492479,4.1803509e-4 C 70.158833,-0.40064513 48.184715,7.0213323 37.179345,25.326497 c -5.382172,7.494047 -10.086743,19.23519 -7.15229,19.432408 -3.727314,10.643364 0.477747,23.498462 -0.12073,30.093157 3.326814,5.926292 -3.343615,9.204299 -6.444501,13.427884 C 12.892105,100.09837 5.1948898,114.77744 0.57717363,129.9201 -2.1061602,158.23354 6.9927468,188.41068 27.085739,208.97529 c 18.727936,19.2179 42.288533,34.58797 68.617372,40.77106 14.178959,4.54391 28.668829,8.06131 43.121269,11.4508 16.88239,2.05685 33.72241,4.3417 50.65256,5.90307 22.70199,2.85376 45.52762,4.52767 68.31563,6.75152 16.69581,0.91925 32.51709,6.10062 47.79361,12.67607 13.40231,6.16762 21.9442,-1.35547 9.90667,-12.74735 C 305.29908,263.49519 296.94704,253.83278 288.94402,242.33084 272.4544,217.73763 253.83231,193.89891 243.65891,165.79205 232.28894,142.66292 222.49653,118.78448 209.5083,96.47183 195.38229,71.076262 181.1486,44.223895 156.62189,27.265511 139.25515,14.354117 120.90725,-1.1399167 97.827486,0.12861335 95.383656,0.03782981 92.937781,-0.00530215 90.492479,4.1803509e-4 Z M 84.410449,14.730818 c 16.027861,-2.175609 19.377841,17.846832 33.144691,23.412287 8.18245,-6.497526 -25.909832,-19.655228 -10.85942,-21.659737 15.69427,3.166634 28.09656,14.139266 40.28114,23.80215 -31.36912,-1.51585 -64.717803,-3.320246 -93.500001,11.4649 -6.116429,1.788441 -16.607454,15.956264 -11.439557,1.700731 1.453677,-14.688961 11.38808,-28.295426 24.629254,-34.499579 5.769228,-1.872801 11.673935,-3.691386 17.743893,-4.220752 z m 37.609381,29.7852 c 13.9736,4.948648 30.8066,7.338883 43.43122,13.673343 5.14456,9.542199 18.72657,22.893362 17.58597,31.568944 -8.55091,-5.049705 -31.00045,-9.621171 -14.75336,-20.328912 -14.71614,9.226766 -30.77543,3.736739 -46.79518,3.38277 C 98.76265,72.241297 75.827091,73.199967 53.732359,78.653518 51.034508,73.214533 34.589077,72.277375 46.636522,63.241891 57.460038,54.303913 69.730625,48.46671 83.476859,46.684018 c 12.75681,-1.830056 25.678211,-1.950463 38.542971,-2.168 z m -25.542971,33.3789 c 15.168581,5.932824 32.324161,5.524802 47.811771,11.181322 17.44858,5.159279 30.71683,18.42217 44.89149,29.18571 8.35149,10.53731 16.97846,20.0564 24.69827,29.59997 5.9828,3.12215 -1.2408,11.38212 5.58287,8.3491 5.2829,13.78373 12.03257,27.19884 19.95222,40.11208 9.89506,18.49155 23.33769,34.67915 35.06338,51.94452 -10.47104,-4.33469 -24.48188,-15.92068 -37.4787,-18.73341 -7.3536,-8.6915 -18.6961,-11.04977 -26.99713,-15.99375 -4.13719,-3.16964 -20.51957,-11.24586 -27.77216,-19.15087 -11.46418,-8.20295 -18.77936,-13.86432 -28.08732,-22.89588 -9.47406,-9.59385 -21.56332,-16.63203 -29.3725,-26.81333 C 108.56463,126.85196 89.274971,112.31417 69.054495,99.440794 62.494101,95.102012 43.357011,85.150558 60.875606,82.212521 c 11.636721,-2.779034 23.724292,-3.2128 35.601253,-4.317603 z m 48.496091,3.3125 c 15.63763,3.097641 30.91221,10.126406 44.12085,18.939952 2.14988,6.44186 13.35221,21.51464 11.48466,21.31395 -10.82503,-11.08672 -23.40844,-21.09831 -36.80277,-28.642602 -3.35896,-6.061153 -20.42384,-6.736334 -18.80274,-11.6113 z m -102.191401,11.1738 c 12.948067,14.436242 18.335615,34.280102 30.613175,49.438912 16.896033,19.21093 30.896216,40.78637 45.582136,61.68809 10.49557,17.19143 24.22724,34.51385 43.4341,42.09886 -10.5938,0.23683 -15.70525,-3.02118 -25.45225,-2.5066 -11.46125,0.31002 7.55972,-15.11924 -5.48185,-5.88916 -13.23044,6.1372 -29.30261,-5.30566 -43.500001,-7.5762 -17.818673,-5.64104 -35.011362,-14.90215 -47.76562,-28.705 7.293493,-6.77473 17.315232,-15.40704 12.515672,-26.31153 -5.948724,-17.87666 -11.014178,-36.12982 -10.911285,-55.13906 0.403247,-8.78376 -2.554215,-19.1333 0.965923,-27.098312 z m 11.06836,2.6914 c 18.246938,13.955742 38.795016,25.045802 55.294971,41.339972 17.77241,16.72215 34.73982,34.42587 54.43868,48.93975 12.83969,11.97673 26.85556,23.18591 42.8933,30.94298 22.05049,11.06212 42.75275,25.73824 65,35.7558 3.82358,1.18175 10.90395,4.91085 9.61196,7.43004 -11.77588,-6.26962 -25.38802,-4.11709 -38.31538,-6.52652 -13.69004,4.03688 -8.08465,-12.80115 -14.5146,-16.46694 -4.80039,4.87503 3.08042,19.56799 -7.81255,15.28746 -11.88648,-0.1762 -18.34771,-4.39913 -30.23733,-2.41904 -11.04428,-2.37219 -22.80221,-4.06949 -32.13618,-12.90065 -12.12264,-7.46763 -23.33379,-16.70796 -30.59432,-29.25755 -16.53024,-25.18918 -34.458163,-49.43027 -53.252025,-72.99151 -6.365234,-11.04704 -14.367843,-24.59895 -19.370232,-33.74454 0.465716,-1.658867 -2.70722,-3.855553 -1.006294,-5.389252 z m -18.81446,9.461002 c 1.988088,19.46728 0.182877,40.09775 8.00782,58.7581 6.911152,9.95972 5.313504,35.58347 -8.262665,32.57407 -12.649257,-14.37762 -18.085356,-34.32256 -18.599378,-53.19593 -0.462473,-15.69568 11.652372,-24.958 17.935393,-37.27705 l 0.91883,-0.85889 z m 19.27149,82.6777 c 0.993223,10.08368 17.482244,23.86927 24.997025,34.82738 4.619418,6.9283 20.817196,-0.22397 5.945881,-2.23737 C 73.75622,210.08844 67.783113,194.56067 54.306939,187.21132 Z m -8.5918,12.1406 c -6.298,3.85986 0.350281,3.80441 0,0 z m 216.761721,53.9883 c -4.75075,0.76063 4.75205,0.76192 0,0 z"
     id="path4058"
     inkscape:connector-curvature="0" />
  <path
     style="fill:#63dd92;fill-opacity:1;stroke:none;stroke-width:0;stroke-miterlimit:4;stroke-dasharray:none;stroke-opacity:1"
     d="M 32.488378,192.96509 C 22.236164,179.83822 15.963617,159.30281 16.667239,141.16897 c 0.369199,-9.51505 1.135956,-11.20033 13.084929,-28.75991 2.299745,-3.37959 4.295764,-6.46452 4.435596,-6.8554 0.660381,-1.84602 1.002166,1.04955 1.843902,15.62135 1.495137,25.88321 2.602282,31.70864 8.799565,46.30036 1.291496,3.04088 1.66209,4.95268 1.88081,9.70266 0.526032,11.42391 -3.374622,18.84607 -9.904398,18.84607 -1.636671,0 -2.293406,-0.46512 -4.319265,-3.05901 z"
     id="path10204"
     inkscape:connector-curvature="0" />
  <path
     style="fill:#63dd92;fill-opacity:1;stroke:none;stroke-width:0;stroke-miterlimit:4;stroke-dasharray:none;stroke-opacity:1"
     d="m 150.54433,244.36883 c -3.36467,-0.58593 -8.00134,-1.08481 -10.3037,-1.10863 -4.88097,-0.0505 -7.17796,-0.75987 -7.16809,-2.21373 0.004,-0.56871 0.66545,-2.18586 1.47019,-3.59366 0.80476,-1.4078 1.35959,-2.66323 1.23296,-2.78986 -0.12662,-0.12662 -1.5213,0.57235 -3.09929,1.55328 -3.74359,2.32715 -8.73129,3.15716 -14.0261,2.33411 -2.16565,-0.33665 -8.52573,-2.16815 -14.13351,-4.07 -5.607788,-1.90186 -12.022529,-3.87926 -14.254982,-4.39422 -4.623507,-1.0665 -15.547521,-5.2609 -21.548101,-8.27363 -9.032306,-4.53486 -17.585209,-10.4951 -24.348466,-16.96765 l -3.928029,-3.75918 4.977421,-5.16329 c 5.869668,-6.08885 8.419239,-10.74349 8.401304,-15.33789 -0.0071,-1.82801 -0.987332,-5.95146 -2.631461,-11.06991 -2.994231,-9.32155 -6.241489,-22.04806 -7.581732,-29.71399 -1.795923,-10.27233 -2.838478,-42.234286 -1.482349,-45.444912 l 0.738283,-1.747881 1.738166,2.039195 c 3.246457,3.808702 7.889612,11.333228 13.302297,21.557208 9.169063,17.31937 11.167144,20.423 19.930572,30.9583 10.51435,12.64024 28.624367,37.69029 43.748917,60.51415 7.04631,10.63331 11.70853,16.43883 18.26191,22.74021 6.01631,5.78497 11.29464,9.67543 17.44515,12.85818 l 4.39126,2.27238 -2.50752,-0.0566 c -1.37913,-0.0311 -5.26043,-0.53602 -8.6251,-1.12195 z M 90.682955,223.56385 c 1.086859,-0.98359 1.084058,-1.02266 -0.14465,-2.01761 -0.689134,-0.55803 -2.214578,-1.195 -3.389877,-1.41548 -2.778602,-0.52127 -6.114254,-3.9421 -14.809206,-15.18734 -6.557695,-8.48112 -12.391644,-14.50029 -16.210595,-16.72526 l -1.897884,-1.10574 0.39311,1.96555 c 0.640097,3.20049 4.531781,9.12654 10.652245,16.22068 3.156796,3.65899 7.39333,8.64045 9.414519,11.06991 5.678189,6.82515 6.944832,8.0938 8.387697,8.40104 2.316801,0.49332 6.451616,-0.16228 7.604641,-1.20575 z M 45.671448,200.33892 c 0,-0.54393 -0.282098,-0.72653 -0.728284,-0.47141 -1.562304,0.89328 -2.158755,1.55373 -1.851764,2.05045 0.469298,0.75935 2.580048,-0.53248 2.580048,-1.57904 z"
     id="path10206"
     inkscape:connector-curvature="0" />
  <path
     style="fill:#63dd92;fill-opacity:1;stroke:none;stroke-width:0;stroke-miterlimit:4;stroke-dasharray:none;stroke-opacity:1"
     d="m 278.69429,258.3599 c -3.10163,-1.60103 -8.29619,-2.77818 -15.1203,-3.42642 -15.27592,-1.4511 -22.101,-1.90277 -23.24856,-1.53855 -1.93099,0.61288 -5.21471,-0.74861 -6.14514,-2.54788 -0.4536,-0.87715 -1.38493,-3.80485 -2.06962,-6.50602 -2.76113,-10.89278 -5.81395,-9.91565 -5.82156,1.86332 -0.002,3.66543 -0.23087,5.21555 -0.84379,5.72423 -0.88715,0.73628 -1.31603,0.69157 -17.0167,-1.77387 -3.89326,-0.61135 -9.92345,-1.11392 -13.40043,-1.11682 -4.56892,-0.004 -8.01803,-0.3929 -12.43937,-1.40327 -11.0421,-2.52336 -15.6823,-4.51029 -23.01416,-9.85463 -2.71167,-1.9766 -7.41859,-5.39489 -10.45982,-7.59622 C 139.85947,223.4845 134.57232,217.69614 125.94532,204.8178 111.21271,182.82506 95.468538,161.07537 81.046275,142.79229 76.191732,136.63819 72.365737,130.80225 65.907124,119.69995 56.463032,103.46563 52.898333,96.50908 53.642335,95.765078 c 0.265322,-0.265322 1.792146,0.513878 3.392941,1.731556 1.600795,1.217679 8.940727,6.356166 16.310961,11.418866 24.037551,16.51168 25.564499,17.75619 47.184123,38.45657 18.09803,17.32854 25.84339,24.3409 34.9663,31.65719 3.84534,3.08384 9.87553,8.12536 13.40043,11.20336 14.13677,12.3445 23.37396,18.7181 39.03601,26.93461 5.76801,3.02597 17.56621,9.63283 26.21822,14.6819 19.137,11.16782 28.17127,16.05896 37.09516,20.08323 6.38351,2.87868 10.20444,5.59636 9.72483,6.91692 -0.12077,0.33253 -1.0871,0.12485 -2.27702,-0.48938 z"
     id="path10208"
     inkscape:connector-curvature="0" />
  <path
     style="fill:#63dd92;fill-opacity:1;stroke:none;stroke-width:0;stroke-miterlimit:4;stroke-dasharray:none;stroke-opacity:1"
     d="m 263.53929,242.27103 c -12.07558,-7.06849 -17.96602,-10.11565 -22.39644,-11.58584 -2.28262,-0.75746 -4.77514,-2.23252 -7.1824,-4.25052 -2.53886,-2.12832 -6.98294,-4.70618 -14.27436,-8.28007 -13.81095,-6.76942 -32.36634,-18.24484 -35.38744,-21.88504 -0.41448,-0.49941 -4.18048,-3.46467 -8.36889,-6.58945 -9.45359,-7.0529 -13.04457,-10.04351 -20.4331,-17.01693 -3.20445,-3.02442 -9.759,-8.75515 -14.56568,-12.73497 -4.80667,-3.97982 -10.30991,-8.95682 -12.22942,-11.06001 -6.72016,-7.36321 -19.28422,-19.60195 -25.05871,-24.40987 C 92.894894,115.50945 83.718546,108.91137 66.063398,97.437525 50.788619,87.510651 50.13522,84.506596 62.688727,81.922188 c 7.146984,-1.471359 12.849126,-2.205154 24.833669,-3.195783 8.733868,-0.721933 9.019996,-0.709012 12.866254,0.580978 3.93462,1.319628 11.66412,2.936976 27.3179,5.716093 9.2,1.633338 19.10297,4.606512 25.64818,7.70037 9.85931,4.6604 33.26516,22.471434 39.41977,29.997054 5.1263,6.26825 18.83286,22.52316 21.39188,25.3691 2.00378,2.22845 2.21482,2.77182 2.21482,5.70267 0,3.14224 0.0454,3.23449 1.51281,3.07181 1.41793,-0.15719 1.72191,0.30729 4.84703,7.40644 9.02974,20.51231 20.9027,40.94558 35.94327,61.85804 12.42575,17.27682 15.49769,21.74896 14.93948,21.74896 -0.27823,0 -4.81626,-2.52311 -10.0845,-5.60689 z"
     id="path10210"
     inkscape:connector-curvature="0" />
  <path
     style="fill:#63dd92;fill-opacity:1;stroke:none;stroke-width:0;stroke-miterlimit:4;stroke-dasharray:none;stroke-opacity:1"
     d="m 196.82987,117.88296 c -7.011,-7.15669 -17.43775,-15.44127 -27.35016,-21.731081 -2.884,-1.830013 -6.32358,-4.186435 -7.64351,-5.236493 -1.33739,-1.063951 -5.07756,-2.88053 -8.44809,-4.103193 -5.54005,-2.009656 -9.42567,-4.421596 -8.54382,-5.303449 1.0438,-1.0438 19.4467,5.162637 28.13118,9.487331 10.33148,5.144863 15.70362,8.677189 16.83375,11.068635 0.57067,1.20759 3.28145,5.93732 6.02396,10.51052 2.7425,4.57319 4.86775,8.43352 4.72276,8.57851 -0.14499,0.14499 -1.82172,-1.32686 -3.72607,-3.27078 z"
     id="path10212"
     inkscape:connector-curvature="0" />
  <path
     style="fill:#63dd92;fill-opacity:1;stroke:none;stroke-width:0;stroke-miterlimit:4;stroke-dasharray:none;stroke-opacity:1"
     d="m 179.967,88.216463 c -1.28178,-0.613024 -4.82124,-2.25762 -7.86547,-3.654658 -9.62901,-4.418891 -11.39634,-7.424778 -7.13723,-12.139097 l 2.18479,-2.418309 -2.36539,1.206737 c -6.34584,3.237404 -14.5934,4.074209 -27.34848,2.774801 -25.26539,-2.573881 -53.252056,-1.486811 -75.937472,2.949597 L 53.72765,78.455071 52.175714,77.024692 C 51.322149,76.237984 49.105732,74.743362 47.25034,73.70331 43.15587,71.408127 41.742597,69.551403 42.621606,67.62219 43.998347,64.600573 54.408647,57.047096 62.774971,52.999367 73.582202,47.770698 82.66996,46.100584 106.07622,45.041628 l 14.66855,-0.66364 8.34523,2.379043 c 4.58987,1.308473 10.96704,3.062813 14.17149,3.898531 7.60591,1.98362 12.43522,3.535624 17.63524,5.66747 4.19721,1.720728 4.27222,1.790201 8.44809,7.825009 2.3173,3.348877 5.6202,8.10722 7.33976,10.574095 3.54094,5.079818 5.64035,9.297394 6.22039,12.49635 0.44958,2.479478 0.2801,2.537049 -2.93797,0.997977 z"
     id="path10214"
     inkscape:connector-curvature="0" />
  <path
     style="fill:#63dd92;fill-opacity:1;stroke:none;stroke-width:0;stroke-miterlimit:4;stroke-dasharray:none;stroke-opacity:1"
     d="M 41.193922,57.213189 C 42.97281,44.065844 47.83293,33.990027 56.07759,26.356925 c 6.33403,-5.864194 11.500618,-8.285223 22.696037,-10.63521 10.480473,-2.199916 14.96686,-0.797886 21.817213,6.818049 8.78482,9.766584 11.86847,12.839087 14.34668,14.294821 2.46961,1.450688 2.58199,1.464438 3.35284,0.410247 1.62714,-2.225251 -0.33446,-4.920047 -8.15408,-11.201844 -7.9101,-6.354495 -9.01792,-8.419964 -4.92183,-9.176519 3.89087,-0.71865 14.83448,3.791014 23.76805,9.794381 3.83905,2.57985 14.09081,10.380716 16.20009,12.32712 0.58783,0.542443 -4.52767,0.686729 -23.01377,0.649114 -19.87343,-0.04044 -24.952655,0.121465 -30.987027,0.987729 -19.671305,2.82391 -35.524472,8.422675 -45.129531,15.938115 -2.197639,1.719535 -4.265183,3.126426 -4.594541,3.126426 -0.368647,0 -0.470049,-0.951818 -0.263799,-2.476165 z"
     id="path10216"
     inkscape:connector-curvature="0" />
</svg>
