<?xml version="1.0" encoding="UTF-8" standalone="no"?>
<!-- Created with Inkscape (http://www.inkscape.org/) -->

<svg
   xmlns:dc="http://purl.org/dc/elements/1.1/"
   xmlns:cc="http://creativecommons.org/ns#"
   xmlns:rdf="http://www.w3.org/1999/02/22-rdf-syntax-ns#"
   xmlns:svg="http://www.w3.org/2000/svg"
   xmlns="http://www.w3.org/2000/svg"
   xmlns:sodipodi="http://sodipodi.sourceforge.net/DTD/sodipodi-0.dtd"
   xmlns:inkscape="http://www.inkscape.org/namespaces/inkscape"
   version="1.1"
   id="svg64"
   width="427.02539"
   height="586.76324"
   viewBox="0 0 427.0254 586.76324"
   sodipodi:docname="2.svg"
   inkscape:version="0.92.4 (5da689c313, 2019-01-14)">
  <metadata
     id="metadata70">
    <rdf:RDF>
      <cc:Work
         rdf:about="">
        <dc:format>image/svg+xml</dc:format>
        <dc:type
           rdf:resource="http://purl.org/dc/dcmitype/StillImage" />
        <dc:title />
      </cc:Work>
    </rdf:RDF>
  </metadata>
  <defs
     id="defs68" />
  <sodipodi:namedview
     pagecolor="#ffffff"
     bordercolor="#666666"
     borderopacity="1"
     objecttolerance="10"
     gridtolerance="10"
     guidetolerance="10"
     inkscape:pageopacity="0"
     inkscape:pageshadow="2"
     inkscape:window-width="1243"
     inkscape:window-height="789"
     id="namedview66"
     showgrid="false"
     fit-margin-top="0"
     fit-margin-left="0"
     fit-margin-right="0"
     fit-margin-bottom="0"
     inkscape:zoom="1.0545455"
     inkscape:cx="296.76141"
     inkscape:cy="296.33165"
     inkscape:window-x="0"
     inkscape:window-y="0"
     inkscape:window-maximized="0"
     inkscape:current-layer="svg64" />
  <path
     style="fill:#000000"
     d="m 424.35209,0.00796722 c 1.60797,7.49527298 -18.93473,4.63010268 -21.291,18.73632878 -13.35073,10.876496 -31.50293,18.521933 -44.7852,30.955078 -10.00824,4.380042 -15.07895,7.449954 -28.80339,15.965753 -20.25081,6.818694 -44.11586,24.617535 -63.69116,39.051783 -21.33231,13.24354 -43.04203,25.20922 -62.11087,41.71132 -17.35073,20.35539 -39.2539,35.65245 -60.13868,51.97027 -4.94723,9.07482 -0.96167,-3.22829 -12.0664,9.05087 -36.721014,31.17986 -71.778175,65.45892 -98.604221,105.64824 -14.521188,23.80097 -32.44637435,47.6599 -31.769095,76.99156 -1.91229847,27.20865 -4.2594744,59.1392 16.430781,80.19334 9.911344,7.97081 22.492243,11.771 36.578428,13.42323 15.390928,0.94989 33.958358,2.82404 47.946127,-0.26418 10.87257,3.2593 26.53234,0.25997 33.89414,11.41834 2.5898,9.97677 -2.33667,22.73502 6.21829,32.15394 9.04821,23.12111 24.7314,43.79884 48.64868,52.52621 22.06967,11.573 48.18808,7.61974 68.72104,-5.27631 23.58351,-12.24727 37.17656,-35.86844 54.57172,-54.91351 40.72688,-61.57599 75.21132,-128.73048 89.0628,-201.91579 14.44172,-75.85572 10.06923,-153.54859 14.14471,-230.315034 -2.4274,-25.063531 5.20161,-49.076051 8.83114,-72.31575 0.34203,-4.304459 2.91542,-12.0919379 -1.78784,-14.79568878 z m -0.4824,25.69140678 c 0.14078,6.945305 -4.32109,5.660231 0,0 z m -17.8809,16.929687 c -14.72,44.120116 -7.55747,91.422729 -9.56906,137.110339 0.48961,39.94276 -2.19478,79.9621 -12.17354,118.76468 -7.64126,47.04642 -20.39606,93.97239 -43.53998,135.9952 -5.69818,12.19161 -13.45217,27.60905 -22.89512,40.20009 -12.57993,22.27363 -26.03696,46.75175 -48.8125,61.01172 -10.6006,13.01598 -0.92759,-16.35697 -12.5859,1.46094 -3.41904,1.50538 -18.95717,15.22784 -30.87621,15.90331 -9.56164,-3.81025 -24.28957,-4.66926 -29.25504,-21.89018 -18.58873,-29.77252 -42.42412,-62.04563 -79.90006,-66.89464 -24.914189,-1.47284 -50.053576,-0.8343 -74.758716,-3.75045 -24.799929,-13.86929 -24.520061,-46.2727 -19.816688,-70.77477 1.104135,-23.66408 10.128626,-46.32253 26.926501,-63.24874 33.357084,-38.36301 73.314883,-70.35521 108.312783,-107.20828 25.67756,-24.76899 48.88952,-52.40151 79.70867,-71.12408 26.59985,-20.50505 57.32178,-35.19771 83.29546,-56.473157 24.8379,-13.293191 51.31926,-24.239025 73.5117,-42.003907 4.31706,-2.043928 8.37959,-4.557924 12.4277,-7.078075 z m -23.5527,22.06836 c -16.59746,17.584262 -29.27982,39.895519 -40.95546,61.229719 -0.45078,-24.13198 -16.91995,1.84595 -6.24632,12.11656 -7.39196,26.20037 -22.63021,48.70172 -37.7639,70.93681 -5.07194,-22.63113 -3.01873,-49.70034 4.65318,-72.46083 6.68016,-14.09539 -1.50653,-21.14111 -4.31151,-2.48152 -10.6363,28.0713 -9.66023,59.07698 -6.45019,88.47957 -20.07792,31.02855 -36.81138,64.1492 -56.9395,95.18164 -2.55278,-18.49922 2.32188,-46.55499 -5.47384,-59.86281 -3.2615,25.83235 9.05157,55.27247 -5.85212,78.42085 -9.99004,10.7498 -15.25265,38.88371 -25.66234,23.64313 6.63875,23.46289 -15.25706,41.73208 -24.59142,61.87425 -14.94356,25.6042 3.66598,-33.33091 -0.70578,-43.3723 -0.845,-32.04311 -1.6057,-65.33174 9.01694,-95.95496 11.46995,-23.61375 10.48623,-50.78521 20.73472,-74.58911 -9.06532,-14.27273 -12.71449,30.56578 -15.48881,40.80481 -4.87011,13.47261 -5.35664,34.12172 -8.56235,8.80337 0.20169,-13.00435 -16.27849,-31.05838 -8.08709,-7.6694 10.93115,27.99487 -3.49093,56.86928 -3.63227,85.41309 -2.10268,32.94753 1.44195,66.43174 -6.99652,98.81408 -2.45914,22.81205 -20.35425,-24.05679 -21.37962,-33.16317 -5.96488,-35.82969 -18.4317,-72.55097 -9.84159,-108.94629 -12.51298,-2.1826 -8.51739,36.15327 -7.0379,48.65465 6.32602,30.19671 7.43873,62.80198 22.05779,90.43597 -21.2826,-19.64469 -42.8896,-39.46903 -57.825798,-64.6714 -6.54241,-12.66949 -13.950008,-14.55355 -4.668165,-0.25089 14.698941,27.39824 35.484343,51.08709 60.281463,69.6591 15.25595,16.85862 -25.43578,-13.16612 -35.14455,-5.99219 -12.296623,1.80224 -47.468731,-12.63527 -47.425748,-0.40919 24.061737,5.12643 51.035298,1.64693 73.745708,12.68499 9.90426,4.59775 20.09804,9.05567 19.57073,18.67342 12.29897,-11.25726 35.1874,13.23246 47.3908,23.92912 6.9126,7.63748 33.41758,33.64739 17.68688,8.91399 -14.57378,-17.57298 -33.64775,-31.52998 -51.29058,-44.35483 24.38042,2.96583 49.84854,7.43538 73.83822,-0.23879 17.23687,-3.01548 36.33415,22.20767 45.64703,19.73745 -1.77178,-16.904 -51.35739,-20.80988 -18.49271,-28.79682 18.20275,-9.83285 42.41606,-18.54197 52.26078,-36.71117 -18.35025,6.28484 -33.96037,23.74505 -53.52576,30.45474 -26.47669,10.93194 -55.12037,17.48878 -83.79409,12.52277 -34.08661,1.37725 7.15364,-30.483 10.99233,-47.33927 5.68715,-8.86132 8.35026,-20.32014 20.9277,-16.88672 23.57419,-11.55955 -19.04928,1.34252 -3.50553,-14.02309 9.1147,-22.95734 27.07343,-37.35418 50.97423,-42.65465 11.89968,-8.04356 36.64572,-4.04722 39.5723,-16.46875 -21.65253,-0.60944 -50.38422,17.96725 -66.09453,20.52204 18.11233,-32.09894 37.74991,-63.32514 55.75295,-95.49291 0.21885,15.77668 10.88148,17.94826 19.55838,8.88498 20.79567,-0.31785 35.30624,-32.8145 55.97634,-41.15079 8.34556,-2.32615 40.21134,-28.89796 16.2018,-15.03055 -9.14463,3.93622 -30.17689,21.11699 -14.45117,2.26772 4.46935,-12.00351 20.26497,-28.81631 17.79063,-38.90279 -17.03358,17.00711 -23.4311,42.43973 -40.76269,59.5943 -10.02682,12.38986 -29.43465,27.82209 -42.54631,25.52292 -8.76392,-27.0033 21.99434,-44.80895 29.38218,-68.56375 1.55942,-19.7498 22.49919,-33.47878 27.91902,-45.53394 -9.98066,0.66126 -10.87425,7.98228 -3.5723,-6.05078 5.26956,-15.804855 33.48588,-35.712599 27.14636,-50.152379 z m -83.8145,18.001953 c 1.77701,2.692244 -3.56122,1.908186 0,0 z m -82,57.999996 c 1.77701,2.69224 -3.56122,1.90819 0,0 z m 166.0645,122.91211 c -17.88475,24.84806 -33.38836,51.86115 -52.42858,76.00587 -18.57995,19.97426 -40.45675,36.81104 -65.24722,48.08202 -20.04445,12.46834 -39.85232,25.7344 -62.78545,32.22421 -9.61975,2.35527 -37.60915,15.31068 -29.43741,22.62331 18.77822,-19.98007 48.15622,-20.15109 70.27366,-34.84166 18.50026,-11.72486 39.2204,-21.27867 58,-33.41406 22.90039,-16.0694 42.96581,-36.62761 55.83787,-61.67407 9.91614,-14.87596 22.97416,-31.56826 25.78713,-49.00562 z m -13.4766,59.27148 c -10.8588,-2.74029 -41.93723,28.06685 -16.9106,13.60523 1.85302,-6.01124 29.98689,-6.7484 16.9106,-13.60523 z m -71.8476,114.81641 c -6.9131,4.19638 24.07015,21.55101 5.8105,2.75 l -2.65535,-2.11489 z M 1.5728121,441.54703 c -1.08039228,3.4566 0.9859068,7.0125 0,0 z m 0.87304,6.15234 c -1.86721168,4.95505 3.4988101,5.32659 0,0 z m 1.78125,9.70117 c 1.5600318,8.50752 5.8817069,5.50173 0,0 z m 5.45508,8.01172 c 3.4782249,8.27201 7.1174789,3.00876 0,0 z m 5.3203099,5.28711 c -2.234724,1.65481 3.424215,2.50139 0,0 z m 244.724598,62.44336 c 5.49516,1.38964 -5.22163,7.93687 0,0 z m -26.166,19.52148 c -8.89036,5.99773 -22.18202,8.38516 -4,0.64063 1.33333,-0.21354 2.66667,-0.42709 4,-0.64063 z"
     id="path74"
     inkscape:connector-curvature="0" />
  <path
     style="fill:#63dd92;fill-opacity:1;stroke:none;stroke-width:0;stroke-miterlimit:4;stroke-dasharray:none;stroke-opacity:1"
     d="m 216.56025,549.93909 c -10.06013,-3.45509 -15.68359,-8.01057 -18.78331,-15.21607 -1.17992,-2.74282 -4.71939,-8.83971 -7.86549,-13.54866 -22.01256,-32.94762 -43.90263,-50.98359 -67.8647,-55.91605 -3.47116,-0.71451 -15.48576,-1.56796 -26.699126,-1.89654 -32.2544,-0.94514 -52.188881,-2.39891 -55.356601,-4.037 -8.531955,-4.41205 -16.280115,-16.59451 -19.00611,-29.88337 -2.472112,-12.05123 -2.03966,-21.36568 2.409576,-51.89913 1.829197,-12.5531 7.998749,-28.16414 15.388565,-38.93826 7.394608,-10.78111 30.267843,-34.56352 62.728366,-65.22171 13.03879,-12.31483 41.84267,-40.35841 64.00861,-62.31907 22.16595,-21.96065 43.58923,-42.58469 47.60729,-45.83121 10.64534,-8.60123 42.60689,-30.63514 61.44443,-42.35906 16.45279,-10.23971 33.53892,-21.67722 40.34575,-27.007552 3.15352,-2.469481 15.1018,-9.231926 26.55172,-15.027655 22.212,-11.243283 37.95711,-20.329126 46.71226,-26.955698 5.67165,-4.292737 16.25279,-10.559196 16.83927,-9.972712 0.18893,0.188934 -0.29293,2.457226 -1.07081,5.040648 -2.08264,6.916618 -4.94208,22.330957 -6.14863,33.145406 -0.62993,5.646073 -1.1864,34.229373 -1.37535,70.646553 -0.3934,75.81626 -1.61832,94.01644 -8.67977,128.96551 -1.84414,9.12715 -4.81125,24.1766 -6.59357,33.44323 -6.42384,33.39863 -16.37548,66.96855 -27.231,91.85842 -7.64584,17.53058 -24.46515,49.96857 -31.86355,61.45252 -3.54795,5.50719 -9.26133,14.76236 -12.69642,20.56706 -12.84735,21.7098 -24.64719,35.85159 -36.68645,43.96779 -1.82543,1.23061 -4.10369,3.03803 -5.0628,4.0165 -2.33341,2.38048 -3.84503,1.69939 -4.41996,-1.9915 -0.26077,-1.67412 -0.79418,-3.02705 -1.18534,-3.00652 -0.39116,0.0205 -1.19018,0.0374 -1.77559,0.0374 -0.74963,0 -0.72549,0.40836 0.0816,1.38088 1.21009,1.45808 0.60366,3.3605 -1.07123,3.3605 -0.54657,0 -0.75149,-0.63136 -0.45537,-1.40302 0.29611,-0.77167 -1.76677,0.47454 -4.58416,2.76934 -9.22865,7.51684 -23.25609,14.904 -27.87486,14.6795 -0.84714,-0.0412 -5.24242,-1.34634 -9.76728,-2.90038 z m 4.90806,-46.84701 c 0,-0.28155 -0.91114,-2.30849 -2.02477,-4.50431 -4.54572,-8.96315 -20.88862,-24.74661 -41.65258,-40.22675 -6.14401,-4.58055 -11.05096,-8.44825 -10.90432,-8.59489 0.14663,-0.14664 5.7666,0.45958 12.48879,1.34717 7.3574,0.97144 18.82741,1.62827 28.81702,1.65017 14.24255,0.0312 17.84795,-0.27448 25.43536,-2.15674 12.80399,-3.17638 15.70695,-2.29012 35.08082,10.70997 7.0918,4.75867 11.64491,7.20109 13.42415,7.20109 2.20938,0 2.60505,-0.33423 2.2053,-1.8629 -0.91265,-3.48998 -6.75132,-8.08541 -17.51261,-13.78365 -13.34816,-7.06801 -13.77043,-8.28946 -4.10716,-11.88032 15.5254,-5.76922 39.86858,-19.72599 47.30879,-27.12375 4.44823,-4.42284 8.58362,-9.72995 8.02053,-10.29304 -0.9517,-0.95169 -11.26938,4.82278 -25.26018,14.13729 -17.03471,11.34103 -24.52714,15.05755 -42.22838,20.94683 -23.77221,7.90912 -41.99879,10.21056 -64.48618,8.14256 -14.63289,-1.34569 -17.11529,-2.25985 -17.52584,-6.45401 -0.38484,-3.93162 1.85528,-8.10248 11.09905,-20.66521 4.22138,-5.73707 9.91758,-14.86605 12.65821,-20.28662 2.74063,-5.42057 6.52514,-11.59763 8.41,-13.7268 3.17361,-3.58494 3.80861,-3.88069 8.58666,-3.99917 5.26041,-0.13044 8.12905,-1.13092 10.11955,-3.52932 0.93758,-1.12972 0.11835,-1.42374 -5.14392,-1.84615 -7.64694,-0.61382 -9.03661,-1.67859 -6.84492,-5.2446 0.87018,-1.41583 2.89531,-5.20488 4.50027,-8.42011 8.67188,-17.37233 22.87449,-29.2695 42.35349,-35.47845 3.59497,-1.1459 7.7453,-2.69407 9.22294,-3.44039 1.47764,-0.74631 8.37642,-2.57849 15.33062,-4.07149 13.5694,-2.91324 17.52688,-4.46619 19.85623,-7.79178 2.24993,-3.21225 1.86219,-3.59756 -3.02434,-3.00541 -9.18982,1.11362 -17.31611,3.63134 -36.27155,11.23776 -18.52591,7.43405 -24.65517,9.58723 -24.65517,8.6612 0,-0.61541 8.50389,-15.28764 28.90862,-49.87763 9.99912,-16.95043 19.82741,-33.77773 21.84066,-37.394 2.01326,-3.61626 3.8209,-5.96324 4.01698,-5.21551 1.78784,6.8177 3.4968,9.69139 6.51284,10.95156 2.79825,1.16918 3.64927,1.15239 6.72498,-0.13273 1.93673,-0.80922 4.17703,-2.03655 4.97845,-2.72739 0.80142,-0.69084 2.81257,-1.51107 4.46922,-1.82272 7.3569,-1.38397 12.24231,-4.93536 28.281,-20.55849 13.71899,-13.36353 17.27755,-16.30166 23.88574,-19.72129 11.20873,-5.80035 27.29037,-18.07975 25.72634,-19.64378 -0.57021,-0.57021 -8.72892,3.67494 -19.56317,10.17911 -4.33517,2.60255 -8.12878,4.48525 -8.43025,4.18379 -0.30147,-0.30148 0.94531,-2.79978 2.77063,-5.55179 12.07471,-18.20489 22.2215,-38.39757 20.2555,-40.30954 -1.25935,-1.22471 -8.51455,7.87119 -14.79302,18.54611 -3.27424,5.56701 -8.5361,14.51552 -11.69301,19.88557 -13.8337,23.5317 -38.23552,44.55841 -52.30447,45.07001 -4.47073,0.16258 -4.59182,0.0927 -5.46372,-3.1527 -2.65531,-9.88368 2.13776,-22.20242 15.86537,-40.77586 8.70715,-11.78078 14.19938,-21.9608 15.07979,-27.95087 0.94037,-6.39805 5.84788,-14.73126 15.33408,-26.03805 12.16995,-14.50562 13.326,-16.75453 7.79766,-15.16902 -1.6916,0.48514 -3.1899,0.88208 -3.32955,0.88208 -0.13965,0 1.42023,-3.32971 3.46641,-7.39935 2.04617,-4.06965 8.08796,-12.92417 13.42619,-19.676728 12.45331,-15.75272 17.07849,-25.264986 14.36237,-29.538053 -1.68957,-2.658078 -19.88041,22.288862 -33.42579,45.840181 -4.11257,7.15052 -7.64767,12.39319 -7.85577,11.65038 -0.2081,-0.74282 -0.76692,-2.63074 -1.24182,-4.1954 -1.92763,-6.35098 -7.51179,-1.27378 -8.50377,7.73176 -0.38543,3.49915 -0.0462,5.47615 1.42191,8.28499 l 1.92813,3.68916 -3.40405,9.11257 c -5.82738,15.59977 -14.4213,31.32282 -29.12234,53.28086 -5.94381,8.87793 -5.61686,9.23214 -7.28943,-7.89702 -1.70204,-17.43095 0.75062,-37.73551 6.77336,-56.07358 3.10358,-9.4498 3.38091,-12.17095 1.40737,-13.80884 -1.09125,-0.90566 -1.63904,-0.69501 -2.78061,1.06923 -0.7819,1.20839 -1.70802,3.47725 -2.05805,5.04191 -0.35002,1.56465 -1.8329,6.68534 -3.29527,11.37931 -4.58967,14.73207 -6.09186,27.03367 -5.90565,48.36206 0.091,10.43104 0.5043,22.16595 0.91829,26.07759 l 0.75272,7.11207 -5.32375,8.53448 c -2.92806,4.69397 -13.07196,21.88088 -22.542,38.19314 -22.02437,37.93726 -27.66986,47.0281 -28.59622,46.04803 -0.41219,-0.43609 -0.94735,-11.03428 -1.18924,-23.55152 -0.34849,-18.03341 -0.78046,-23.83168 -2.08054,-27.92693 -1.40967,-4.44047 -1.78048,-4.91862 -2.63298,-3.39527 -1.00494,1.79573 -0.67977,11.8122 1.13577,34.98573 1.56411,19.96435 -0.76638,31.24636 -9.04365,43.78084 -2.39979,3.63405 -5.78998,9.42207 -7.53378,12.8623 -5.84733,11.53584 -9.66837,14.3962 -13.76234,10.30223 l -1.93421,-1.93421 0.61254,4.61758 c 1.33297,10.04838 -2.36776,19.6453 -15.34161,39.78466 -4.11405,6.38626 -8.93903,14.17398 -10.72217,17.30603 -1.78314,3.13204 -3.59671,5.69462 -4.03017,5.69462 -1.38256,0 -0.85674,-6.46216 1.7256,-21.20721 2.40909,-13.75573 2.50509,-15.61611 2.30658,-44.69796 -0.1557,-22.80963 0.167,-33.5418 1.29955,-43.21932 1.69284,-14.46534 5.05237,-29.43937 8.43732,-37.60664 4.20831,-10.15392 6.38679,-18.02319 10.61185,-38.33297 2.31552,-11.13068 5.35919,-23.55776 6.7637,-27.61574 2.27457,-6.57178 2.39756,-7.53421 1.12539,-8.80639 -3.93623,-3.93624 -7.27839,3.47736 -10.86904,24.10979 -2.01659,11.58766 -6.80906,32.97228 -8.50822,37.96476 -0.83093,2.44145 -1.51295,0.30169 -2.76805,-8.68452 -1.29259,-9.25467 -4.23739,-16.67757 -7.9457,-20.02856 -1.84531,-1.6675 -2.02168,-1.67803 -2.60595,-0.15544 -0.34468,0.89821 0.1341,4.26341 1.06395,7.47822 0.92986,3.2148 2.31084,7.97872 3.06885,10.58647 2.5217,8.67535 1.80842,24.99921 -2.0718,47.41379 -3.33853,19.28545 -3.476,21.02089 -4.35692,55 -0.50029,19.29742 -1.3565,40.04989 -1.90269,46.11662 -1.12849,12.53483 -4.8339,31.68407 -6.4421,33.29227 -2.67972,2.67972 -10.0742,-9.57198 -15.68102,-25.98145 -2.55741,-7.48474 -13.00242,-58.92331 -14.69996,-72.39295 -2.29823,-18.23575 -2.15659,-31.25221 0.49871,-45.83611 0.52594,-2.88864 0.3876,-3.13597 -1.59121,-2.84483 -1.39767,0.20564 -2.87168,1.66576 -4.15105,4.11197 -1.80771,3.45637 -1.97789,5.30842 -1.9169,20.86207 0.0631,16.08992 0.34867,18.70866 4.9791,45.65574 5.65173,32.89062 9.09069,47.40423 13.82939,58.36475 1.84724,4.27265 3.2509,7.87618 3.11924,8.00785 -0.13167,0.13166 -6.32383,-5.54928 -13.76036,-12.62432 -16.50663,-15.70424 -29.543431,-30.71151 -38.161866,-43.92988 -3.570563,-5.4763 -7.898837,-11.62492 -9.618387,-13.66361 -2.788484,-3.30601 -3.158521,-3.49065 -3.423112,-1.70802 -0.326818,2.20185 7.494966,16.17161 15.774486,28.17335 11.208369,16.2473 24.382479,30.58509 40.098189,43.64011 8.72763,7.25002 11.91626,10.56302 11.02462,11.45465 -0.24544,0.24544 -5.51634,-1.87202 -11.7131,-4.70548 -14.48952,-6.62529 -17.73524,-7.45865 -26.21051,-6.72975 -5.43173,0.46715 -9.541896,0.0524 -19.668404,-1.98434 -18.88999,-3.7995 -27.499999,-3.48311 -27.499999,1.01054 0,1.88285 1.473987,2.10193 38.060649,5.65711 17.883334,1.73775 28.024784,4.4875 40.852964,11.07689 9.47394,4.86643 14.01742,9.22435 14.01742,13.44495 0,1.34175 0.40708,1.59711 1.65948,1.04099 0.91272,-0.40529 3.50036,-0.92281 5.75033,-1.15004 8.02069,-0.81004 20.2516,7.39518 40.47812,27.15516 12.54997,12.26049 19.35245,18.14955 20.96462,18.14955 0.72592,0 1.31986,-0.23037 1.31986,-0.51192 z m 87.24137,-55.45754 c 0,-1.56105 -7.46152,-9.20777 -9.50661,-9.74258 -2.25244,-0.58902 -3.15201,0.58895 -2.35865,3.08861 1.20877,3.80849 11.86526,9.78459 11.86526,6.65397 z m -130.3162,-9.95316 c 7.17851,-5.84698 15.03006,-9.61492 34.54035,-16.57582 17.37381,-6.19865 22.89197,-8.65889 30.93553,-13.79239 2.67187,-1.70523 14.62015,-8.52824 26.55172,-15.16227 11.93158,-6.63402 25.10757,-14.3173 29.27998,-17.07396 18.81896,-12.43343 37.35631,-30.88891 48.68862,-48.4736 3.30891,-5.13454 10.28651,-15.94976 15.50575,-24.03381 5.21925,-8.08406 10.70045,-17.08836 12.18043,-20.00956 2.98183,-5.88556 6.92833,-16.96031 6.27621,-17.61242 -0.54896,-0.54896 -8.40512,10.67904 -21.01581,30.03577 -19.10379,29.32329 -29.29471,42.81123 -40.64394,53.79329 -15.32505,14.82928 -31.27351,26.43149 -47.76439,34.74772 -3.52909,1.7797 -13.10797,7.31736 -21.28641,12.30591 -19.54469,11.92155 -31.27306,17.72268 -46.0944,22.79938 -6.69786,2.29419 -15.2774,5.73213 -19.06565,7.63986 -10.46081,5.26797 -17.34849,12.35552 -14.63959,15.0644 0.93687,0.93689 0.87412,0.97187 6.5516,-3.6525 z m 170.00794,-99.00806 c 1.96993,-1.00499 4.11856,-2.47414 4.77474,-3.26479 0.65618,-0.79065 4.68151,-2.5857 8.94519,-3.989 4.26366,-1.40331 8.28553,-2.97348 8.93747,-3.48926 1.87089,-1.48017 1.38933,-3.49812 -1.10615,-4.63513 -4.32008,-1.96837 -14.48768,3.01258 -23.34071,11.43428 -5.77649,5.49505 -4.92586,7.3698 1.78946,3.9439 z"
     id="path10824"
     inkscape:connector-curvature="0" />
</svg>
