<?xml version="1.0" encoding="UTF-8" standalone="no"?>
<!-- Created with Inkscape (http://www.inkscape.org/) -->

<svg
   xmlns:dc="http://purl.org/dc/elements/1.1/"
   xmlns:cc="http://creativecommons.org/ns#"
   xmlns:rdf="http://www.w3.org/1999/02/22-rdf-syntax-ns#"
   xmlns:svg="http://www.w3.org/2000/svg"
   xmlns="http://www.w3.org/2000/svg"
   xmlns:sodipodi="http://sodipodi.sourceforge.net/DTD/sodipodi-0.dtd"
   xmlns:inkscape="http://www.inkscape.org/namespaces/inkscape"
   version="1.1"
   id="svg64"
   width="412.66217"
   height="259.63678"
   viewBox="0 0 412.66218 259.63678"
   sodipodi:docname="3.svg"
   inkscape:version="0.92.4 (5da689c313, 2019-01-14)">
  <metadata
     id="metadata70">
    <rdf:RDF>
      <cc:Work
         rdf:about="">
        <dc:format>image/svg+xml</dc:format>
        <dc:type
           rdf:resource="http://purl.org/dc/dcmitype/StillImage" />
        <dc:title />
      </cc:Work>
    </rdf:RDF>
  </metadata>
  <defs
     id="defs68" />
  <sodipodi:namedview
     pagecolor="#ffffff"
     bordercolor="#666666"
     borderopacity="1"
     objecttolerance="10"
     gridtolerance="10"
     guidetolerance="10"
     inkscape:pageopacity="0"
     inkscape:pageshadow="2"
     inkscape:window-width="1243"
     inkscape:window-height="789"
     id="namedview66"
     showgrid="false"
     fit-margin-top="0"
     fit-margin-left="0"
     fit-margin-right="0"
     fit-margin-bottom="0"
     inkscape:zoom="1.0545455"
     inkscape:cx="185.0725"
     inkscape:cy="92.301166"
     inkscape:window-x="0"
     inkscape:window-y="0"
     inkscape:window-maximized="0"
     inkscape:current-layer="svg64" />
  <path
     style="fill:#000000"
     d="M 172.63618,0.00136409 C 125.16524,3.5248588 79.361274,19.032132 36.391302,38.645091 19.895247,40.169639 -10.308888,53.321467 13.219133,69.708215 38.860701,97.88802 47.138267,138.14803 76.320067,163.51747 c 19.403636,20.99106 38.191623,42.6079 58.208073,62.95968 26.02872,23.64203 61.59176,34.47023 96.40252,32.96296 31.96983,0.52974 66.57376,-0.13643 94.32586,-17.98364 13.02013,-11.64911 14.04591,-30.22815 20.40903,-45.42813 3.27459,-17.45651 -4.53513,-35.23407 0.33053,-52.55578 15.62202,-13.83131 43.29561,-5.18085 54.87016,-25.22318 C 418.36891,97.606296 414.78907,64.618362 395.81013,46.148895 382.18177,26.605122 361.3382,9.9588207 336.52975,9.5388392 308.6659,7.0311914 280.58885,7.7499562 252.81904,4.0390327 226.15787,1.2313616 199.30187,1.5622538 172.63618,0.00136409 Z M 227.4936,19.661524 c 24.58177,1.769475 49.23711,3.781983 73.39243,8.621651 22.9381,3.911081 46.05627,8.486828 68.70589,12.740333 19.31246,8.398626 28.75999,41.15507 3.18129,48.184465 -18.88692,3.023724 -17.0882,28.439847 -30.81108,33.664507 1.56827,-19.02234 2.22819,-39.614885 -8.91911,-56.934588 -3.31602,-5.520232 -9.57706,-32.849029 -13.80932,-20.323464 5.07675,23.071802 22.14091,44.330241 17.60563,68.936452 -15.61581,4.92876 -26.42918,-17.409721 -32.31701,-30.407609 -7.12588,-10.491441 0.21155,19.488849 -12.27368,6.934305 C 273.15786,82.38393 257.7532,67.297992 246.72188,49.895846 241.25161,43.648857 223.30905,24.225521 221.64944,33.76049 232.13076,48.435991 252.61048,55.22841 257.50669,73.896457 232.96062,60.42159 205.93696,52.491829 179.17914,44.732224 c 4.04012,18.205963 30.70003,10.869356 43.35077,20.906838 28.01305,11.391328 55.69623,24.061826 81.90861,39.128438 6.04686,4.6855 26.14268,16.08735 21.53156,18.01593 -20.4988,-3.96955 -41.12159,-6.37575 -61.88115,-3.26179 -27.09295,1.16263 -54.4492,2.09357 -81.31291,-2.3795 -17.42113,-11.79098 -27.52873,-31.475248 -43.9838,-44.358009 -3.52602,-6.90409 -25.66767,-14.781072 -10.95259,-2.358043 11.2732,14.681357 39.84688,27.564266 37.74754,46.138882 -13.15933,-6.32615 -24.9139,-8.62177 -39.22003,-6.57045 -15.03251,-3.79385 -27.154268,-14.859605 -35.642836,-27.414391 -7.199649,-9.389555 -16.625202,-2.906296 -4.908848,3.411111 6.49083,3.605532 14.475364,19.66634 1.336182,9.533245 C 73.239403,86.717768 60.602106,73.550763 43.699232,71.17203 c -8.426096,4.656841 15.927877,13.304423 21.633199,17.517179 11.105854,5.959099 28.714741,14.285671 18.627123,26.362731 17.019686,-2.71737 37.387176,-4.84178 52.345956,5.91809 1.45239,17.42463 22.93833,-13.19899 25.11812,6.27793 -12.98601,10.20422 -28.27428,16.84596 -44.19338,21.44839 -13.6532,8.85072 15.62874,5.64062 19.77226,0.96397 18.2559,-10.85273 35.44468,-27.92856 58.74632,-23.09857 24.85753,0.40966 49.72489,1.71928 74.58707,-0.72769 16.07743,-0.31292 45.38333,-2.29797 52.49348,7.43782 -16.06748,11.29777 -36.97314,12.29279 -54.50692,20.92709 -32.21058,10.73449 -64.95661,19.73994 -97.5756,29.1252 -12.18692,13.59186 24.30739,-0.17443 31.64868,-2.39836 8.78985,-4.35828 38.87303,-11.00615 21.69134,4.24357 -7.30993,3.02488 -16.11192,24.76569 -3.25134,11.27328 10.61079,-13.99244 29.29705,-39.08189 47.6297,-30.51166 -4.32987,20.94476 7.67502,-17.84894 19.93277,-10.98329 10.48958,-6.12211 42.19366,-15.78926 24.57608,5.57806 -11.92232,20.98178 -26.32384,42.63152 -49.00218,53.04176 -9.67072,12.68842 10.43328,6.83893 11.27275,-2.44896 11.31863,-15.41749 29.34377,0.93582 30.49682,8.34258 -4.28835,-14.83916 -11.7484,-30.5988 3.19178,-42.84725 5.70924,-7.63904 17.08702,-31.77882 20.63887,-27.85817 0.92017,21.82994 4.86896,45.30282 -8.23645,64.61344 -4.5636,23.40572 -27.95498,26.45905 -47.45926,28.87709 -20.3266,3.09768 -40.91158,0.88303 -61.34336,2.72522 -36.2247,-1.6422 -70.21388,-23.03993 -89.9436,-53.14595 -16.50719,-20.35034 -36.013597,-38.13 -54.461167,-56.48259 C 55.303272,114.98221 46.011922,92.484012 31.537701,73.150292 36.490894,50.669221 68.877855,56.85852 83.960759,43.226253 121.65242,27.36492 162.54558,20.222746 203.3604,21.148648 c 8.05737,-0.22319 16.11999,-0.58031 24.1332,-1.487124 z m 129.32422,42.1797 c -2.93803,6.453641 -15.36204,27.571991 -6.32841,24.292218 4.75441,-6.808639 12.77281,-15.967424 6.32841,-24.292218 z m 28.26562,29.0722 c 21.1009,8.161754 -11.61654,29.946456 -24.24052,28.594006 -13.25274,-8.65221 14.98608,-27.387728 24.24052,-28.594006 z m -59.37109,78.283296 c -13.40583,2.497 7.40692,27.06013 0.0729,9.13598 -0.17333,-3.04671 1.49843,-6.21271 -0.0729,-9.13598 z m -59.80078,74.6054 c 2.68972,2.29028 -5.08052,-0.89185 0,0 z"
     id="path74"
     inkscape:connector-curvature="0" />
  <path
     style="fill:#63dd92;fill-opacity:1;stroke:none;stroke-width:0;stroke-miterlimit:4;stroke-dasharray:none;stroke-opacity:1"
     d="m 202.23629,243.83852 c -9.27081,-1.31169 -22.15661,-5.38941 -31.5196,-9.97439 -17.67523,-8.6554 -32.51299,-21.20347 -45.72402,-38.66811 C 116.22527,183.60576 95.782226,161.61973 80.560429,147.41018 67.956524,135.64443 67.729138,135.32113 52.4234,107.40458 46.847377,97.234324 39.934675,85.371815 37.061841,81.043451 31.376566,72.477716 31.230819,71.353489 35.075378,65.720748 c 3.216085,-4.71195 10.43247,-8.246029 25.381529,-12.430093 12.816436,-3.587168 20.103912,-6.458732 21.299206,-8.392758 0.876557,-1.418299 19.235867,-8.311914 31.661727,-11.888452 28.11511,-8.092377 47.48841,-10.719542 88.34431,-11.980148 46.60224,-1.43791 60.34347,0.0016 137.49999,14.404032 32.82415,6.127134 34.23671,6.589773 40.16901,13.156128 13.64862,15.107391 10.7127,35.26353 -5.85302,40.183019 -10.14222,3.011915 -12.50543,5.28412 -18.97638,18.245514 -3.90002,7.81179 -7.66244,13.03954 -10.46344,14.53859 -1.41426,0.75689 -1.56162,-0.61606 -1.60534,-14.95672 -0.0549,-17.99773 -1.33843,-24.736653 -6.80054,-35.703897 -1.81827,-3.650862 -4.93664,-10.836525 -6.9297,-15.968138 -4.07641,-10.495662 -6.17519,-13.546981 -8.1759,-11.886539 -0.70317,0.583571 -1.27848,1.787495 -1.27848,2.675386 0,2.272546 3.57812,12.501655 9.85824,28.182641 5.95038,14.857678 8.11776,23.439939 8.14254,32.242367 0.0223,7.92369 -0.45111,8.84911 -4.52697,8.84911 -8.70944,0 -16.04468,-7.04141 -24.82426,-23.829887 -2.6921,-5.147872 -5.2853,-9.359768 -5.76268,-9.359768 -0.87734,0 -1.26955,1.328563 -2.32421,7.873114 -0.3196,1.98323 -1.11975,3.812574 -1.77811,4.065211 -1.24749,0.478705 -7.53422,-2.959622 -19.46841,-10.64761 -8.55776,-5.512897 -20.79806,-17.46545 -27.05607,-26.420025 -8.39241,-12.008689 -22.30321,-25.129309 -26.6427,-25.129309 -6.0952,0 -2.84985,4.744859 11.30562,16.529384 11.79426,9.818805 15.79092,14.010091 18.58843,19.493686 2.81056,5.509151 2.39742,5.983877 -2.88015,3.309526 -14.36414,-7.27886 -34.76921,-14.947384 -59.29924,-22.285513 -6.93358,-2.074172 -12.83676,-3.771221 -13.1182,-3.771221 -0.85886,0 1.36848,5.097546 3.06338,7.010935 2.60725,2.943333 8.72623,5.162097 20.94049,7.5931 6.34032,1.261911 13.32885,3.215957 15.53008,4.342325 2.20122,1.126368 9.52904,4.403682 16.28405,7.28292 38.75576,16.51918 67.62393,31.840292 86.10179,45.696522 4.83716,3.6273 6.03432,6.41288 2.37069,5.5162 -1.17349,-0.28721 -7.04095,-1.24547 -13.03879,-2.12946 -13.61197,-2.00621 -30.29255,-2.17351 -58.31896,-0.5849 -25.22345,1.42973 -53.92035,0.47321 -67.89208,-2.26296 -3.79392,-0.74299 -12.96814,-9.13379 -24.69413,-22.585399 -5.86494,-6.72803 -13.88922,-15.396302 -17.83175,-19.262826 -8.97409,-8.801082 -19.02169,-14.317444 -19.02169,-10.44335 0,1.55918 12.27264,13.530974 23.40118,22.827531 13.13645,10.973936 17.71393,16.994404 19.01444,25.008494 0.50139,3.08966 0.37724,3.35942 -1.25282,2.72245 -12.5414,-4.90082 -16.21934,-5.67426 -28.15688,-5.9212 -10.91744,-0.22583 -12.70833,-0.51328 -18.00374,-2.88972 C 110.77907,103.4727 102.9815,97.294901 96.883699,89.963679 88.604952,80.010358 86.408153,78.008031 83.766876,78.008031 c -4.76777,0 -3.988638,2.654552 2.594708,8.840333 5.650994,5.309733 8.52699,10.159683 6.956145,11.730529 C 92.641084,99.255539 88.051425,96.312986 74.915036,86.780435 63.538566,78.524989 52.969175,72.820085 47.26564,71.856479 37.981865,70.287995 41.350532,76.19242 53.250574,82.346558 83.73896,98.113709 89.675938,103.52153 85.685153,111.8903 l -1.591452,3.3373 2.648882,-0.58545 c 6.271715,-1.38617 25.873687,-1.79674 31.723357,-0.66445 9.59645,1.85753 16.77104,5.46629 18.34186,9.22579 1.70057,4.07003 4.28656,4.14024 11.8509,0.32178 3.09957,-1.56465 6.47072,-2.84483 7.49143,-2.84483 2.46569,0 4.83616,2.48041 4.83616,5.06045 0,3.95041 -21.02502,15.48019 -39.04461,21.41143 -10.60032,3.48915 -11.1439,7.18602 -1.01558,6.90687 8.4981,-0.23421 13.13357,-2.11277 25.39822,-10.29281 23.5767,-15.72474 28.85449,-17.72872 45.48093,-17.26918 14.40831,0.39822 59.25161,0.29226 90.08621,-0.21287 20.37553,-0.3338 24.54052,-0.15773 29.63923,1.25293 6.13412,1.69712 10.66249,4.08544 10.66249,5.62353 0,1.76553 -16.0221,8.40896 -31.70659,13.14687 -8.83302,2.66825 -17.15414,5.40292 -18.49138,6.07706 -5.3642,2.70422 -42.2635,14.08646 -81.61237,25.17477 -19.00726,5.35615 -21.81034,6.59662 -21.81034,9.65195 0,1.87942 0.36988,1.97367 5.92672,1.51022 3.50973,-0.29271 12.42655,-2.66048 21.86498,-5.80601 22.65953,-7.55171 32.89795,-9.0359 32.89795,-4.76897 0,0.815 -2.66959,4.11399 -5.93242,7.33107 -5.46791,5.39124 -10.29531,13.17036 -8.9857,14.47997 1.52523,1.52523 5.07257,-1.60491 12.69447,-11.20152 9.63425,-12.13032 18.41062,-19.84091 25.67848,-22.56017 5.40386,-2.02184 7.6944,-2.25557 12.56266,-1.28191 2.86544,0.57308 3.03132,0.81993 2.54884,3.7931 -0.28383,1.74907 -0.21586,3.18012 0.15105,3.18012 0.36691,0 2.01479,-2.2403 3.66197,-4.97845 1.64716,-2.73815 4.73191,-6.6633 6.85498,-8.72254 3.12019,-3.0264 4.51418,-3.72556 7.27214,-3.64739 1.87661,0.0532 5.77393,-0.94783 8.66071,-2.2245 10.86425,-4.80469 22.07412,-6.0766 23.38763,-2.65365 0.74568,1.9432 0.0871,3.30118 -7.29912,15.04916 -17.31602,27.54181 -26.37407,37.52739 -42.02246,46.3255 -3.68309,2.07078 -5.85289,3.98598 -6.45476,5.6974 -2.83718,8.06749 9.76223,3.53723 13.23864,-4.76011 3.80791,-9.08855 17.90416,-8.91853 26.01017,0.31372 3.39082,3.86192 3.39066,3.8628 0.96763,-5.2488 -3.36508,-12.65421 -2.02473,-21.29269 4.35047,-28.03827 1.47874,-1.56466 5.83706,-7.96552 9.68515,-14.22414 7.70292,-12.52818 11.45211,-17.11218 12.8514,-15.71289 0.49738,0.49738 0.94216,9.86638 1.00194,21.10538 0.1202,22.59765 -0.61687,27.0646 -6.46426,39.17647 -1.76257,3.65086 -3.52097,7.70474 -3.90758,9.00862 -2.71437,9.15479 -12.56437,16.93993 -25.62284,20.25154 -9.23346,2.3416 -25.71438,4.44933 -38.33747,4.90297 -26.62688,0.95689 -48.21212,1.09031 -53.57758,0.33116 z m 124.60049,-62.71828 c -0.49848,-1.68801 -0.85054,-4.34928 -0.78234,-5.91394 0.28909,-6.63261 -0.417,-7.57604 -3.42147,-4.57156 -2.07445,2.07445 -1.38301,7.69553 1.43308,11.65038 2.54214,3.5701 3.98933,2.96168 2.77073,-1.16488 z m 26.52248,-98.80989 c 5.56735,-7.752385 7.35604,-15.11048 4.59212,-18.890371 -1.08574,-1.484841 -1.72256,-0.618555 -5.61779,7.642032 -4.95195,10.501561 -5.86622,13.148621 -5.01635,14.523741 1.1743,1.900054 3.05904,0.878334 6.04202,-3.275402 z"
     id="path11420"
     inkscape:connector-curvature="0" />
  <path
     style="fill:#63dd92;fill-opacity:1;stroke:none;stroke-width:0;stroke-miterlimit:4;stroke-dasharray:none;stroke-opacity:1"
     d="m 359.21212,117.8718 c -1.06301,-1.06301 -1.93274,-2.61501 -1.93274,-3.44891 0,-5.55524 8.12993,-14.06034 18.79953,-19.667054 7.61756,-4.002915 9.40031,-4.212094 12.83983,-1.506565 6.79381,5.344009 -0.71172,16.406069 -15.65329,23.070669 -7.73947,3.45214 -11.71414,3.89105 -14.05333,1.55186 z"
     id="path11424"
     inkscape:connector-curvature="0" />
</svg>
