<?xml version="1.0" encoding="UTF-8" standalone="no"?>
<!-- Created with Inkscape (http://www.inkscape.org/) -->

<svg
   xmlns:dc="http://purl.org/dc/elements/1.1/"
   xmlns:cc="http://creativecommons.org/ns#"
   xmlns:rdf="http://www.w3.org/1999/02/22-rdf-syntax-ns#"
   xmlns:svg="http://www.w3.org/2000/svg"
   xmlns="http://www.w3.org/2000/svg"
   xmlns:sodipodi="http://sodipodi.sourceforge.net/DTD/sodipodi-0.dtd"
   xmlns:inkscape="http://www.inkscape.org/namespaces/inkscape"
   version="1.1"
   id="svg4048"
   width="332.95798"
   height="310.85858"
   viewBox="0 0 332.95798 310.85858"
   sodipodi:docname="leaf_1.svg"
   inkscape:version="0.92.4 (5da689c313, 2019-01-14)">
  <metadata
     id="metadata4054">
    <rdf:RDF>
      <cc:Work
         rdf:about="">
        <dc:format>image/svg+xml</dc:format>
        <dc:type
           rdf:resource="http://purl.org/dc/dcmitype/StillImage" />
        <dc:title></dc:title>
      </cc:Work>
    </rdf:RDF>
  </metadata>
  <defs
     id="defs4052" />
  <sodipodi:namedview
     pagecolor="#ffffff"
     bordercolor="#666666"
     borderopacity="1"
     objecttolerance="10"
     gridtolerance="10"
     guidetolerance="10"
     inkscape:pageopacity="0"
     inkscape:pageshadow="2"
     inkscape:window-width="1047"
     inkscape:window-height="683"
     id="namedview4050"
     showgrid="false"
     inkscape:zoom="0.85818182"
     inkscape:cx="427"
     inkscape:cy="60.150575"
     inkscape:window-x="0"
     inkscape:window-y="0"
     inkscape:window-maximized="0"
     inkscape:current-layer="svg4048"
     fit-margin-top="0"
     fit-margin-left="0"
     fit-margin-right="0"
     fit-margin-bottom="0" />
  <path
     style="fill:#000000"
     d="m 122.3125,0.00488191 c -2.4785,-0.0197 -5.48705,0.0222 -9.38281,0.0879 -9.03652,0.15248 -17.59558,0.76477 -19.02149,1.36131999 -1.42591,0.59655 -4.57591,1.29495 -7,1.55274 -2.42409,0.2578 -6.2082,0.9415 -8.4082,1.51758 -2.2,0.57608 -7.6,1.5618 -12,2.1914 -4.4,0.6296 -11.72775,2.26685 -16.2832,3.6386701 l -8.28125,2.49414 -1.73633,-2.14453 -1.73633,-2.1445301 -2.62109,2.9433601 c -1.50535,1.68951 -4.09952,3.21768 -6.09375,3.5918 -1.90988,0.35829 -4.27988,1.54356 -5.26563,2.63281 -0.98575,1.08924 -2.28446,1.96672 -2.88672,1.94922 -0.60225,-0.0175 -0.22191,-0.6925 0.84571,-1.5 1.26388,-0.95596 1.46518,-1.46875 0.57812,-1.46875 -0.74931,0 -2.10025,0.66833 -3.00195,1.48438 -1.03464,0.93632 -4.50506,1.65249 -9.40625,1.9414 C 2.61783,20.604972 0,21.713592 0,24.629892 c 0,3.44589 1.90904,3.94343 12.90625,3.36328 8.63033,-0.45529 11.24885,-0.25648 13.76172,1.04296 4.44908,2.30072 11.0679,10.16464 14.66406,17.42188 1.70337,3.4375 3.62728,6.25 4.27539,6.25 0.64811,0 1.42855,0.65223 1.73438,1.44922 0.36186,0.94301 0.0752,1.26356 -0.82032,0.91992 -0.98755,-0.37895 -1.2212,0.0652 -0.82812,1.56836 0.30126,1.15202 0.94412,2.33783 1.42773,2.63672 0.48361,0.29889 0.87891,1.41683 0.87891,2.48437 0,2.16616 1.55696,2.62674 2.33789,0.69141 0.27741,-0.6875 0.54058,-0.0943 0.58399,1.31836 0.12789,4.16067 3.07547,12.99395 4.52148,13.54883 1.64563,0.63149 4.93562,8.95991 4.08398,10.33789 -0.34069,0.55125 0.30605,2.25478 1.4375,3.78515 1.13144,1.53036 2.26985,3.90257 2.5293,5.27149 1.21666,6.419318 1.80056,8.569688 2.59961,9.566398 0.47507,0.5926 1.79226,4.0801 2.92578,7.75 1.13352,3.6699 2.45721,6.67188 2.94141,6.67188 0.48421,0 1.17206,1.3306 1.52929,2.95703 0.35722,1.62643 1.5186,4.75417 2.58008,6.95117 1.06148,2.19701 1.92969,5.05219 1.92969,6.34375 0,1.29157 0.4077,2.77633 0.90625,3.29883 0.49855,0.5225 1.8011,3.87422 2.89453,7.44922 1.09343,3.575 3.10807,8.975 4.47656,12 1.36848,3.025 2.82083,6.625 3.22657,8 0.40574,1.375 3.15838,7.4286 6.11718,13.4512 2.9588,6.0226 5.37891,11.5351 5.37891,12.25 0,0.7149 0.4192,1.2988 0.93164,1.2988 1.08175,0 9.06836,15.2902 9.06836,17.3613 0,0.7662 0.69489,1.9703 1.54492,2.6758 0.85003,0.7054 1.29115,1.9463 0.98047,2.7559 -0.31069,0.8096 0.74678,3.55 2.34961,6.0898 1.60283,2.5397 4.1204,7.2054 5.59375,10.3692 1.47335,3.1637 3.21668,6.3137 3.875,7 4.42017,4.6077 8.65625,10.7897 8.65625,12.6328 0,1.1981 0.675,2.4373 1.5,2.7539 0.825,0.3166 1.5,0.978 1.5,1.4707 0,2.1654 5.59307,9.5665 6.88867,9.1152 0.78785,-0.2744 1.1124,-0.035 0.74805,0.5547 -0.92882,1.5029 0.33994,4.2207 1.9707,4.2207 0.76615,0 1.39258,0.4762 1.39258,1.0586 0,0.5825 -0.45,0.7813 -1,0.4414 -1.89965,-1.174 -0.9383,1.0148 2.27539,5.1816 1.77373,2.2997 5.92461,6.3497 9.22461,9 3.3,2.6502 6.15065,5.1559 6.33398,5.5684 0.18334,0.4125 0.92226,0.75 1.64258,0.75 0.72033,0 1.56818,0.675 1.88477,1.5 0.31658,0.825 1.49015,1.5 2.60742,1.5 1.11726,0 2.03125,0.45 2.03125,1 0,0.55 0.56275,1.0104 1.25,1.0234 0.6875,0.012 2.375,0.9011 3.75,1.9766 1.375,1.0755 3.42133,1.9665 4.54883,1.9785 1.1275,0.012 2.4775,0.4061 3,0.875 0.5225,0.4689 3.20117,1.4379 5.95117,2.1543 2.75,0.7165 5.45,1.634 6,2.0391 1.32902,0.9787 10.98805,2.8291 16,3.0644 6.57401,0.3086 15.73939,-1.2376 19.95508,-3.3652 5.99452,-3.0252 14.81208,-12.4331 17.81445,-19.0078 1.44726,-3.1693 3.34823,-6.0387 4.22461,-6.375 2.53431,-0.9725 12.94192,-17.4376 14.80274,-23.418 2.52367,-8.1108 4.38803,-20.5712 4.21679,-28.1953 -0.0834,-3.7125 0.11088,-6.75 0.43164,-6.75 0.15623,0 0.4787,0.4431 0.86133,1.0586 l -1.98437,-21.834 1.16406,-10.4883 4.66211,-4.6601 h 11.55664 c -0.0518,-0.7847 0.99013,-1.0774 3.29492,-1.5098 1.925,-0.3612 3.5,-1.1176 3.5,-1.6797 0,-0.5621 0.83683,-0.7561 1.85938,-0.4316 3.46185,1.0988 16.26121,-9.563 27.2246,-22.6778 6.96277,-8.3292 7.50628,-14.50789 2.8418,-32.31636 -2.64087,-10.08255 -9.02746,-21.54896 -15.33789,-27.53711 -1.40486,-1.3331 -2.56031,-2.854228 -2.57031,-3.380858 -0.0293,-1.62214 -19.19302,-19.84029 -25.01758,-23.7832 -3.025,-2.04776 -7.525,-5.13982 -10,-6.8711 -18.5726,-12.99173 -33.45133,-21.89253 -47.46875,-28.39845 -5.32003,-2.4692 -10.1356,-4.49023 -10.70117,-4.49023 -0.56557,0 -2.67157,-0.7349 -4.67969,-1.63281 -9.6992,-4.33691 -13.13523,-5.78314 -22.15039,-9.31836 -6.3476,-2.48917 -7.54696,-2.99781 -15,-6.37695 C 158.73526,9.0988019 149.31112,5.3828019 139.92969,2.7646419 132.41089,0.66631191 129.74799,0.06384191 122.3125,0.00488191 Z m 0.65234,14.91796009 c 5.37762,-0.17217 20.47239,3.40908 28.5293,7.20508 9.94066,4.68353 29.68881,13.58008 30.14453,13.58008 0.84275,0 17.94209,16.17395 20.35156,19.25 3.00776,3.83985 1.80804,3.61943 -6.99023,-1.28516 -1.375,-0.7665 -2.79935,-1.41018 -3.16602,-1.42968 -0.36666,-0.0195 -1.00546,-0.37266 -1.41796,-0.78516 -0.4125,-0.4125 -1.36873,-0.75 -2.125,-0.75 -0.75627,0 -4.26189,-1.35 -7.79102,-3 -3.52913,-1.65 -7.08297,-3 -7.89844,-3 -0.81548,0 -1.78144,-0.48087 -2.14453,-1.06836 -0.3631,-0.5875 -1.34647,-0.80441 -2.18555,-0.48242 -0.83908,0.32198 -2.16661,0.0535 -2.95117,-0.59766 -2.04257,-1.69518 -10.16728,-2.79431 -10.64453,-1.43945 -0.24211,0.6873 -1.08047,0.48775 -2.2793,-0.54492 -1.04286,-0.89831 -4.45269,-3.06197 -7.57617,-4.80664 C 139.20087,32.629732 121,17.283762 121,15.684562 c 0,-0.48313 0.72385,-0.72198 1.96484,-0.76172 z m -15.10742,0.4375 c 1.12447,0.0151 2.14379,0.1577 2.84375,0.42383 2.0297,0.77169 24.29883,19.66677 24.29883,20.61719 0,1.07081 -13.15663,-0.90081 -19.92578,-2.98633 -7.3393,-2.26119 -15.61473,-4.37229 -30.57422,-7.79687 -7.7,-1.76271 -14.6373,-3.53511 -15.41602,-3.93946 -0.82331,-0.42751 1.2692,-1.02839 5,-1.43359 3.52872,-0.38324 8.00732,-1.10207 9.95118,-1.59766 1.94386,-0.49559 6.44386,-1.1718 10,-1.5039 3.55614,-0.3321 8.21297,-0.98152 10.34961,-1.44336 1.11838,-0.24175 2.34818,-0.35492 3.47265,-0.33985 z m -51.00976,20.44922 c 0.45216,0.0123 1.05229,0.47698 1.51953,1.23438 0.623,1.00985 5.31452,7.30985 10.42578,14 5.11127,6.69014 11.18257,14.63906 13.49219,17.66406 3.729,4.88403 8.10561,11.5705 11.45507,17.5 0.62136,1.1 3.20945,6.95 5.75,13 2.54056,6.049998 5.2695,12.273008 6.06446,13.830078 0.79496,1.55707 1.44531,3.25185 1.44531,3.76562 0,1.2885 11.4379,24.6748 19.76172,40.4043 12.86467,24.3103 15.36643,28.6585 21.1914,36.832 6.44534,9.0441 23.55719,25.9705 32.51954,32.168 3.1815,2.2 7.27177,5.35 9.08984,7 1.81807,1.65 5.75944,5.025 8.75781,7.5 8.68851,7.1719 8.71682,7.5004 0.88477,9.8008 -3.68829,1.0833 -10.30508,2.5217 -14.70508,3.1953 -7.61665,1.1661 -14.6337,3.7953 -15.99023,5.9902 -1.09538,1.7724 -4.22856,1.0942 -5.71289,-1.2363 -0.7882,-1.2375 -3.60709,-7.2 -6.26368,-13.25 -2.65659,-6.05 -5.26887,-11.5625 -5.80468,-12.25 -1.45338,-1.8648 0.99673,-4.25 4.36523,-4.25 3.81239,0 13.90625,-4.5394 13.90625,-6.2539 0,-0.7502 -0.56944,-2.1436 -1.26562,-3.0957 -1.18841,-1.6252 -1.69274,-1.6311 -8.25,-0.1133 -3.84133,0.8891 -7.81634,2.3672 -8.83399,3.2852 -1.54031,1.3895 -1.81492,1.419 -1.63281,0.1738 0.51937,-3.5513 -0.1879,-5.1098 -2.76563,-6.0899 -1.51149,-0.5746 -3.58759,-1.8023 -4.61328,-2.7265 -2.80497,-2.5275 -13.9114,-25.1797 -12.3457,-25.1797 0.71924,0 1.79602,0.4874 2.39258,1.084 0.59657,0.5965 2.14829,0.934 3.44922,0.75 4.58323,-0.6485 3.23308,-7.7345 -1.50782,-7.9141 -1.17016,-0.044 -3.86168,-1.0569 -5.98242,-2.25 -3.44476,-1.9381 -4.43847,-3.5026 -9.31836,-14.6699 -3.00426,-6.875 -6.81991,-16.1 -8.47851,-20.5 -1.6586,-4.4 -4.31141,-11.375 -5.89454,-15.5 -1.58312,-4.125 -3.97823,-11.15508 -5.32421,-15.62305 -1.34599,-4.46797 -3.79103,-10.83005 -5.43164,-14.136718 -1.64061,-3.30666 -4.92505,-10.44963 -7.30079,-15.875 C 80.80807,72.453032 73.83021,60.816822 66.36914,51.510732 63.41621,47.827572 61,44.115072 61,43.260732 c 0,-0.85434 -0.68469,-1.55273 -1.52148,-1.55273 -1.75223,0 -4.18957,-4.63855 -3.02344,-5.75391 0.10721,-0.10254 0.24185,-0.14862 0.39258,-0.14453 z m 34.07422,3.99414 c 5.65991,-0.0289 13.7381,0.52756 16.57812,1.4336 2.2,0.70186 7.15,2.04058 11,2.97461 3.85,0.93404 8.125,2.28847 9.5,3.00976 4.0649,2.13236 11.91035,5.48633 12.83398,5.48633 0.47062,0 3.51385,0.89774 6.76172,1.99609 3.24788,1.09834 9.2793,2.70416 13.4043,3.56836 18.41113,3.85718 41.01818,11.0301 50,15.86328 1.375,0.7399 5.9451,2.77129 10.15625,4.51368 7.28729,3.01517 19.69485,12.26708 19.09375,14.23828 -0.1375,0.4509 0.16707,0.82031 0.67773,0.82031 2.568,0 20.69363,27.236018 29.6836,44.603518 C 276.6851,150.04527 277,150.9984 277,157.6807 c 0,3.8653 0.40774,7.0273 0.90625,7.0273 0.49851,0 0.67047,0.9 0.38281,2 -0.5566,2.1284 -3.70171,2.6579 -6.24218,1.0508 -1.51509,-0.9584 -10.8762,-2.5995 -12.45508,-2.1836 -0.4996,0.1316 -1.26976,-0.3448 -1.71094,-1.0586 -0.6221,-1.0066 -1.10708,-0.8811 -2.16406,0.5644 -1.08825,1.4883 -1.75268,1.6461 -3.29102,0.7793 -1.05962,-0.597 -4.85078,-2.4101 -8.42578,-4.0293 -11.29088,-5.1141 -21.97198,-12.69449 -36.23633,-25.71284 -2.05542,-1.87587 -4.00901,-3.41016 -4.33984,-3.41016 -0.33084,0 -2.91681,-2.025 -5.7461,-4.5 -2.8293,-2.475 -5.48911,-4.5 -5.91211,-4.5 -0.423,0 -2.45612,-1.71383 -4.51757,-3.80859 -2.06145,-2.09476 -5.93203,-5.58226 -8.60157,-7.75 -8.69235,-7.05843 -21.29636,-17.793138 -29.30468,-24.957028 -4.31282,-3.85807 -11.2168,-9.24812 -15.3418,-11.97852 -4.125,-2.7304 -11.56286,-8.34785 -16.5293,-12.48438 -4.96643,-4.13654 -14.30393,-10.62837 -20.75,-14.42578 C 90.27464,44.506282 85,41.012622 85,40.540032 c 0,-0.49075 2.52593,-0.71901 5.92188,-0.73633 z m 108.375,3.66016 c 0.57128,0.0308 1.90624,0.52179 3.45312,1.30273 2.0625,1.04127 8.4161,3.93634 14.11914,6.4336 5.70304,2.49725 11.66554,5.46355 13.25,6.59179 2.70223,1.92416 2.88086,2.48402 2.88086,9.01563 0,5.39983 0.35107,7.09808 1.56641,7.56445 2.20501,0.84614 3.14806,-0.50673 3.81445,-5.47656 0.318,-2.37155 0.80852,-4.68349 1.08984,-5.13867 0.68564,-1.10938 12.96958,5.4371 18.26953,9.73633 4.25822,3.45421 4.70376,5.21484 1.32227,5.21484 -1.0002,0 -2.37618,0.6719 -3.05859,1.49414 -1.00072,1.2058 -0.91544,1.99272 0.43945,4.06055 1.32172,2.0172 2.35885,2.49684 4.86523,2.2539 2.51644,-0.24392 3.53651,-1.04371 4.85743,-3.80859 l 1.67187,-3.5 5.01563,5.38477 c 5.86943,6.30123 5.80308,6.00484 6.69726,29.865228 0.35555,9.4875 0.26569,17.23746 -0.20117,17.22266 -0.46686,-0.0148 -2.14989,-2.93979 -3.74023,-6.5 -1.59035,-3.56022 -3.23006,-6.47266 -3.64258,-6.47266 -0.41252,0 -1.00451,-1.01705 -1.31641,-2.25977 -0.49223,-1.96123 -3.86051,-6.32146 -9.13281,-11.82421 C 260.68292,103.75288 260,102.54667 260,101.94238 c 0,-0.60431 -0.7875,-1.3662 -1.75,-1.69141 -0.9625,-0.325198 -2.875,-1.959948 -4.25,-3.632808 -3.53791,-4.30433 -20.7548,-21.91016 -21.42578,-21.91016 -0.30682,0 -2.56549,-1.53349 -5.02149,-3.4082 -2.456,-1.87471 -7.08787,-4.85127 -10.29296,-6.61328 -4.77705,-2.6262 -6.15641,-3.995 -7.64649,-7.59766 -0.99975,-2.41716 -3.79592,-6.28056 -6.21484,-8.58594 C 200.97952,46.197552 199,43.987822 199,43.592772 c 0,-0.0988 0.10645,-0.13919 0.29688,-0.12891 z m -68.68555,1.58789 c 0.11953,0.0201 0.25117,0.0713 0.38867,0.15625 0.55,0.33992 1,0.81605 1,1.05859 0,0.24254 -0.45,0.44141 -1,0.44141 -0.55,0 -1,-0.47613 -1,-1.05859 0,-0.43685 0.25273,-0.65795 0.61133,-0.59766 z m 2.82422,1.61523 c 4.28573,-0.16655 39.0566,8.0602 54.56445,13.0293 9.61515,3.08093 25.41418,10.25372 26.51758,12.03906 1.04045,1.68348 -1.90939,1.01281 -4.51758,-1.02734 -1.375,-1.07554 -3.10556,-1.96632 -3.8457,-1.97852 -0.74014,-0.0122 -2.76514,-0.76053 -4.5,-1.66406 -1.73486,-0.90353 -4.00285,-2.06963 -5.03907,-2.5918 -1.03623,-0.52215 -3.6618,-1.08198 -5.83593,-1.24414 -2.17413,-0.16215 -4.41912,-0.76091 -4.98828,-1.33007 -0.56917,-0.56912 -1.61016,-0.81445 -2.3125,-0.54493 -0.70235,0.26951 -1.56192,0.0283 -1.91016,-0.53515 -0.34825,-0.56348 -1.29889,-0.76759 -2.11328,-0.45508 -0.81439,0.31251 -2.09351,0.0585 -2.8418,-0.5625 -0.74828,-0.621 -2.04568,-0.86495 -2.88476,-0.54297 -0.83908,0.32199 -1.83402,0.0864 -2.21094,-0.52344 -0.37692,-0.6099 -1.48488,-0.85471 -2.46094,-0.54492 -0.98078,0.31129 -2.33876,-0.11752 -3.03711,-0.95898 -0.695,-0.83742 -2.53183,-1.52344 -4.08203,-1.52344 -1.55019,0 -3.0658,-0.39907 -3.36719,-0.88672 -0.61016,-0.98727 -7.33019,-2.57411 -9.39453,-2.21875 -0.7283,0.12538 -1.94693,-0.28909 -2.70703,-0.91992 -0.76011,-0.63087 -1.77778,-0.90185 -2.26367,-0.60156 -0.48589,0.3003 -2.52981,-0.33612 -4.54102,-1.41407 -2.01121,-1.07794 -4.33315,-1.95898 -5.16015,-1.95898 -0.82699,0 -1.50391,-0.40035 -1.50391,-0.89062 0,-0.0892 0.14983,-0.13929 0.43555,-0.1504 z m -52.73438,2.3711 c 0.62519,0.0557 1.61024,0.55443 2.65625,1.53711 1.29258,1.21431 5.0761,3.6529 8.4082,5.41992 19.59946,10.39367 37.47715,22.77343 58.60352,40.58008 4.32845,3.648288 11.52845,9.706758 16,13.462888 4.47156,3.75612 9.48086,7.96637 11.13086,9.35742 1.65,1.39106 5.47703,4.84405 8.50391,7.67188 3.02687,2.82781 7.03448,6.26562 8.90625,7.64062 4.71502,3.46365 18.48072,14.23354 19.08984,14.93555 0.275,0.31694 3.36423,3.02605 6.86523,6.01955 6.20607,5.3064 12.1531,12.5587 15.15039,18.4765 0.81665,1.6124 2.99671,4.4061 4.84571,6.209 3.09193,3.0149 3.23242,3.4082 1.75,4.8906 -1.98766,1.9877 -1.98706,1.9655 0.0742,5.1114 1.5421,2.3536 1.79088,2.4278 2.92773,0.873 1.00833,-1.3789 1.16224,0.4368 0.81641,9.6426 -0.56266,14.978 -1.12996,18.7971 -3.88477,26.1602 -1.68588,4.5061 -3.1437,6.6735 -5.37695,7.9941 -2.1159,1.2511 -5.78581,1.9442 -11.86524,2.2402 -4.84122,0.2354 -9.25273,0.2441 -9.80273,0.02 -0.55,-0.2245 -2.64402,-0.6828 -4.65234,-1.0176 -3.58803,-0.5982 -22.98431,-12.5843 -25.72071,-15.8945 -0.75485,-0.9131 -1.96028,-1.6602 -2.67968,-1.6602 -0.71941,0 -1.45121,-1.0125 -1.62696,-2.25 -0.20669,-1.4553 -1.12485,-2.3633 -2.59765,-2.5723 -1.25238,-0.1777 -2.21086,-0.8527 -2.13086,-1.5 0.37701,-3.0493 -0.14865,-3.7952 -2.21094,-3.1406 -1.54076,0.489 -1.98203,0.3039 -1.62305,-0.6816 0.66133,-1.8155 -4.12335,-6.8453 -5.87304,-6.1739 -0.90237,0.3463 -1.38477,-0.1815 -1.38477,-1.5156 0,-1.1264 -0.45,-2.3261 -1,-2.666 -0.55,-0.3399 -1,-1.4771 -1,-2.5273 0,-1.2621 -0.49518,-1.7195 -1.45898,-1.3497 -0.9536,0.3659 -1.66447,-0.2635 -2.05469,-1.8183 -0.32818,-1.3075 -1.58367,-2.818 -2.79102,-3.3555 -1.54704,-0.6888 -2.11245,-1.7043 -1.91601,-3.4414 0.22042,-1.9492 0.0205,-2.208 -0.95118,-1.2363 -2.04367,2.0436 -2.81088,1.3942 -2.16601,-1.8301 0.51427,-2.5713 0.26214,-3.1487 -1.58203,-3.6309 -1.20622,-0.3155 -2.00068,-1.0762 -1.76563,-1.6914 0.23505,-0.6152 -0.41442,-2.6871 -1.44336,-4.6035 -1.23839,-2.3065 -1.87109,-2.856 -1.87109,-1.6269 0,1.5599 -0.24731,1.6514 -1.54297,0.5761 -0.9445,-0.7838 -1.18343,-1.6388 -0.61719,-2.205 1.12452,-1.1245 -1.4427,-6.6697 -3.44336,-7.4375 -0.76134,-0.2921 -1.13633,-0.9354 -0.83203,-1.4278 0.3043,-0.4924 -0.0359,-0.9004 -0.75586,-0.9004 -1.94596,-0.01 -4.80859,-5.6745 -4.80859,-9.51558 0,-1.84797 -0.52645,-3.6863 -1.16992,-4.08399 -0.78665,-0.48618 -0.96061,-0.17748 -0.53125,0.94141 0.3512,0.91522 0.25232,1.66406 -0.22071,1.66406 -1.13729,0 -4.26867,-7.88341 -3.57617,-9.00391 0.29663,-0.47994 -0.0413,-1.23924 -0.75195,-1.68554 -0.71065,-0.4463 -1.83587,-2.04805 -2.5,-3.56055 -0.66413,-1.5125 -2.00423,-2.75762 -2.97852,-2.76562 -1.38591,-0.012 -1.47414,-0.2031 -0.40429,-0.88086 1.10851,-0.70224 0.94167,-1.44184 -0.87891,-3.9043 -1.33163,-1.80114 -2.82461,-2.81582 -3.66797,-2.49219 -1.08348,0.41577 -1.27349,-0.0463 -0.79883,-1.9375 0.3794,-1.51166 0.0919,-3.02638 -0.73632,-3.875 -0.74811,-0.76657 -2.16737,-3.52795 -3.15235,-6.13476 -0.98498,-2.60681 -2.20426,-4.99545 -2.71093,-5.3086 C 108.41519,106.84603 108,105.89904 108,105.0537 c 0,-0.84534 -1.575,-4.85751 -3.5,-8.914058 -1.925,-4.05655 -3.5,-8.21765 -3.5,-9.24805 0,-1.03041 -0.87453,-2.66554 -1.94336,-3.63281 -1.06883,-0.96728 -2.22292,-3.03098 -2.56445,-4.58594 -0.34153,-1.55497 -1.26699,-3.36222 -2.05664,-4.01757 C 93.6459,73.999922 93,72.903212 93,72.219722 c 0,-0.68348 -0.837,-2.31528 -1.85938,-3.62695 -1.02237,-1.31167 -3.56201,-5.53477 -5.64453,-9.38477 -2.08252,-3.85 -4.23473,-7.57264 -4.7832,-8.27344 -1.02302,-1.30713 -0.81553,-1.96811 -0.0117,-1.89648 z m 204.17774,45.47461 c 1.94225,-0.2264 15.46113,13.911118 20.64257,21.697258 2.19657,3.30076 4.60376,8.02576 5.34961,10.5 0.74585,2.47423 1.71261,5.39805 2.14649,6.49805 0.43388,1.1 0.70652,3.35 0.60742,5 -0.0991,1.65 0.28193,3.3212 0.8457,3.71289 1.36502,0.94836 -1.44566,6.02357 -6.52734,11.78711 -2.18219,2.475 -4.35955,4.95 -4.83789,5.5 -2.5566,2.9396 -7.99638,7.3921 -10.80664,8.8457 -4.80301,2.4833 -5.282,2.1465 -5.47266,-3.8457 -0.0963,-3.025 -0.33292,-6.7375 -0.52539,-8.25 -0.19246,-1.5125 -0.45403,-12.425 -0.58008,-24.25 -0.12605,-11.825 -0.51545,-21.95 -0.86523,-22.5 -0.34973,-0.55 -0.31034,-3.10521 0.0859,-5.67773 0.39628,-2.57252 0.29888,-5.427728 -0.21485,-6.345708 -0.57929,-1.03462 -0.57784,-2.02567 0.002,-2.60547 0.0379,-0.0379 0.0877,-0.0591 0.15039,-0.0664 z M 129.61133,142.05175 c -0.3586,-0.0603 -0.61133,0.16081 -0.61133,0.59766 0,0.58246 0.45,1.05859 1,1.05859 0.55,0 1,-0.19887 1,-0.44141 0,-0.24254 -0.45,-0.71867 -1,-1.05859 -0.1375,-0.085 -0.26914,-0.13615 -0.38867,-0.15625 z m 5.89844,11.03515 c -0.12502,-0.019 -0.22618,0 -0.29493,0.072 -0.275,0.275 0.0784,1.1972 0.78516,2.0488 0.70675,0.8516 1.51016,1.3238 1.78516,1.0488 0.275,-0.275 -0.0784,-1.1972 -0.78516,-2.0488 -0.53006,-0.6387 -1.11518,-1.0645 -1.49023,-1.1211 z m 4.43164,11.6211 c 0.58246,0 1.05859,0.45 1.05859,1 0,0.55 -0.19887,1 -0.44141,1 -0.24254,0 -0.71867,-0.45 -1.05859,-1 -0.33992,-0.55 -0.14105,-1 0.44141,-1 z m 95.78125,1.0508 c 0.47797,0 1.29816,0.3164 2.27734,0.9492 1.29269,0.8354 1.26586,0.9714 -0.19141,0.9844 -0.93004,0.01 -1.96867,-0.4344 -2.30859,-0.9844 -0.39109,-0.6328 -0.25532,-0.9492 0.22266,-0.9492 z m -87.11133,19.293 c 0.11953,0.02 0.25117,0.071 0.38867,0.1562 0.55,0.3399 1,0.8161 1,1.0586 0,0.2426 -0.45,0.4414 -1,0.4414 -0.55,0 -1,-0.4762 -1,-1.0586 0,-0.4369 0.25273,-0.6579 0.61133,-0.5976 z m 2.28515,2.625 c 0.15633,-0.035 0.28775,6e-4 0.35743,0.1152 0.13936,0.2292 1.27718,1.8785 2.52929,3.666 1.25211,1.7875 1.84348,3.25 1.31446,3.25 -1.30167,0 -5.47271,-5.959 -4.70704,-6.7246 0.16751,-0.1675 0.34954,-0.2718 0.50586,-0.3066 z m 101.53516,15.3242 c 0.29122,-0.026 0.73985,0.672 1.06836,1.707 0.37544,1.1829 0.45664,2.3754 0.18164,2.6504 -0.275,0.275 -0.8062,-0.4675 -1.18164,-1.6504 -0.37544,-1.1829 -0.45664,-2.3754 -0.18164,-2.6504 0.0344,-0.034 0.0717,-0.053 0.11328,-0.057 z m 1.12305,5.6718 c 0.60927,-0.055 0.90151,1.2503 0.63476,3.5352 -0.23554,2.0176 0.0316,3.5 0.63086,3.5 1.24207,0 0.1952,4.1339 -2.23828,8.8398 -0.91676,1.7728 -2.56882,6.8493 -3.67187,11.2813 -1.10306,4.432 -2.38567,8.8056 -2.84961,9.7187 -0.46394,0.913 -2.2305,4.663 -3.92578,8.334 -3.08741,6.6856 -5.13477,9.2552 -5.13477,6.4434 0,-2.419 -2.01744,-2.9702 -3.53516,-0.9668 -1.3141,1.7345 -1.40379,1.6811 -1.43359,-0.8418 -0.0352,-2.9812 -2.00857,-4.9972 -2.07227,-2.1172 -0.0299,1.3503 -0.41767,1.1113 -1.53125,-0.9414 C 226.80675,252.4701 225,251.8112 225,254.208 c 0,0.825 -0.59891,1.5 -1.33008,1.5 -0.7355,0 -1.2939,-1.0052 -1.25,-2.25 0.0458,-1.297 -0.44937,-2.1441 -1.16992,-2 -2.1034,0.4207 -1.3888,-2.4293 1,-3.9883 1.2375,-0.8076 5.175,-1.9806 8.75,-2.6074 3.575,-0.6268 7.60077,-1.9624 8.94727,-2.9668 4.29675,-3.2052 8.8212,-12.9113 10.49609,-22.5195 0.84673,-4.8574 1.79522,-9.2449 2.10742,-9.75 0.3851,-0.6232 0.72697,-0.9282 1.00391,-0.9532 z m -40.4961,36.0352 c 0.58246,0 0.78133,0.45 0.44141,1 -0.33992,0.55 -0.81605,1 -1.05859,1 -0.24254,0 -0.44141,-0.45 -0.44141,-1 0,-0.55 0.47613,-1 1.05859,-1 z m 0.93555,8.6797 5.25391,2.8183 c 2.88889,1.5498 6.44635,3.6469 7.90625,4.6602 1.4599,1.0134 3.2599,1.8474 4,1.8574 0.7401,0.01 2.0207,0.4446 2.8457,0.9707 1.27028,0.81 1.14657,1.2069 -0.80859,2.584 -1.50731,1.0616 -2.2033,2.427 -2.00586,3.9336 0.31911,2.4352 -5.24478,8.3029 -8.18555,8.6328 -0.825,0.093 -1.95,0.2726 -2.5,0.4004 -0.55,0.1277 -1.5625,0.2847 -2.25,0.3477 -0.6875,0.063 -1.25118,0.6777 -1.25195,1.3652 -7.6e-4,0.6875 -2.6816,2.0375 -5.95703,3 -8.6757,2.5494 -16.55404,2.2964 -22.59375,-0.7246 C 183.08029,280.5489 170,269.2917 170,267.3564 c 0,-1.8921 5.82904,-4.3596 14.5,-6.1367 4.4,-0.9018 12.83694,-3.0332 18.74805,-4.7363 z"
     id="path4058"
     inkscape:connector-curvature="0" />
</svg>
