<?xml version="1.0" encoding="UTF-8" standalone="no"?>
<!-- Created with Inkscape (http://www.inkscape.org/) -->

<svg
   xmlns:dc="http://purl.org/dc/elements/1.1/"
   xmlns:cc="http://creativecommons.org/ns#"
   xmlns:rdf="http://www.w3.org/1999/02/22-rdf-syntax-ns#"
   xmlns:svg="http://www.w3.org/2000/svg"
   xmlns="http://www.w3.org/2000/svg"
   xmlns:sodipodi="http://sodipodi.sourceforge.net/DTD/sodipodi-0.dtd"
   xmlns:inkscape="http://www.inkscape.org/namespaces/inkscape"
   version="1.1"
   id="svg4048"
   width="322.38562"
   height="289.91666"
   viewBox="0 0 322.38562 289.91666"
   sodipodi:docname="leaf_3.svg"
   inkscape:version="0.92.4 (5da689c313, 2019-01-14)">
  <metadata
     id="metadata4054">
    <rdf:RDF>
      <cc:Work
         rdf:about="">
        <dc:format>image/svg+xml</dc:format>
        <dc:type
           rdf:resource="http://purl.org/dc/dcmitype/StillImage" />
        <dc:title></dc:title>
      </cc:Work>
    </rdf:RDF>
  </metadata>
  <defs
     id="defs4052" />
  <sodipodi:namedview
     pagecolor="#ffffff"
     bordercolor="#666666"
     borderopacity="1"
     objecttolerance="10"
     gridtolerance="10"
     guidetolerance="10"
     inkscape:pageopacity="0"
     inkscape:pageshadow="2"
     inkscape:window-width="1047"
     inkscape:window-height="683"
     id="namedview4050"
     showgrid="false"
     inkscape:zoom="2.4273047"
     inkscape:cx="82.011901"
     inkscape:cy="195.3862"
     inkscape:window-x="0"
     inkscape:window-y="0"
     inkscape:window-maximized="0"
     inkscape:current-layer="svg4048"
     fit-margin-top="0"
     fit-margin-left="0"
     fit-margin-right="0"
     fit-margin-bottom="0" />
  <path
     style="fill:#000000"
     d="M 90.492479,4.1803509e-4 C 83.020129,0.02041804 76.402739,0.52141804 74.711239,1.566818 c -0.67891,0.4195 -1.57442,0.5519 -1.99024,0.2949 -1.16961,-0.7229 -13.37725,3.6509 -18.31836,6.5625 -9.28312,5.4703 -17.52744,15.2805 -23.34766,27.7871 -1.40774,3.025 -2.51824,6.4 -2.46874,7.5 0.0742,1.6513 0.22956,1.5642 0.89062,-0.5 0.55218,-1.7242 0.83169,-1.9459 0.90039,-0.7168 0.0548,0.9802 -0.54464,3.3225 -1.33203,5.207 -1.23669,2.9598 -1.24056,4.7604 -0.0312,13.2188 1.7558,12.2805 1.75499,12.0568 -0.0215,9.7324 -0.0114,-0.015 -0.0161,-0.018 -0.0273,-0.033 l 2.07031,9.3106 -12.73437,14.039 c -0.098,0.5379 -0.71133,1.7012 -1.57813,2.9356 -4.99818,7.118102 -10.3820604,16.977502 -13.4003904,24.539002 -2.91145996,7.2937 -3.30235996,9.3869 -3.32225996653,17.7676 -0.0123999935,5.225 0.28131000653,11.075 0.65429000653,13 5.53070996,28.5448 11.42689036,40.8625 27.94922036,58.3926 13.97881,14.8314 41.40268,32.3392 56.37305,35.9902 3.3,0.8048 9.825,2.7911 14.5,4.4121 4.675001,1.621 11.496771,3.461 15.160161,4.0899 3.6634,0.6288 8.23618,1.8015 10.16015,2.6054 4.94536,2.0663 11.98384,3.5264 19.61719,4.0703 3.6097,0.2572 9.7125,1.1005 13.5625,1.875 3.85,0.7744 11.725,1.6541 17.5,1.9551 5.775,0.3011 12.075,0.9758 14,1.4981 1.925,0.5223 8.1682,1.2188 13.875,1.5488 5.7067,0.3299 10.7754,0.846 11.2617,1.1465 0.4863,0.3006 6.3911,0.9534 13.1231,1.4512 6.7319,0.4979 15.8402,1.1734 20.2402,1.5 4.4,0.3267 9.8,1.0046 12,1.5058 2.2,0.5012 6.2621,0.9216 9.0273,0.9356 4.3433,0.021 16.6999,3.2353 22.9727,5.9765 11.6595,5.0953 17.7633,7.0301 20.6055,6.5293 2.1748,-0.3831 3.7364,-0.03 5.0254,1.1367 1.7838,1.6141 1.8691,1.5642 1.8691,-1.0703 0,-2.0442 0.3898,-2.6135 1.5,-2.1875 2.4621,0.9448 1.7309,-1.368 -2.4629,-7.791 -3.8601,-5.9119 -17.0724,-19.5703 -18.9316,-19.5703 -0.5109,0 -1.2194,-1.7184 -1.5743,-3.8184 -0.4716,-2.7916 -1.4384,-4.2854 -3.5937,-5.5586 -1.6214,-0.9578 -3.6857,-3.1768 -4.5879,-4.9316 -1.7607,-3.4242 -8.5223,-13.3742 -14.0605,-20.6914 -9.7781,-12.9187 -29.2891,-46.6586 -29.2891,-50.6484 0,-0.7592 -2.8698,-7.1106 -6.377,-14.1153 -3.5073,-7.0046 -8.1955,-17.0113 -10.4199,-22.2363 -4.1873,-9.8365 -7.8512,-17.1994 -13.6836,-27.5 -1.8686,-3.3 -4.3921,-8.025 -5.6074,-10.500002 -4.1048,-8.3594 -18.13,-32.1704 -20.9101,-35.5 -0.9185,-1.1 -2.8481,-4.07 -4.28911,-6.5996 -3.9044,-6.8541 -15.97424,-19.2733 -26.52734,-27.2988 -22.11229,-16.8162 -33.07392,-23.7128 -40.68555,-25.5938 -0.55,-0.1359 -1.93828,-0.6034 -3.08398,-1.039 C 111.11892,0.74541804 100.09988,-0.02498196 90.492559,6.1803509e-4 Z M 84.410449,14.730818 c 1.46488,-0.054 2.36248,0.1494 2.65039,0.6153 0.3337,0.5399 1.90301,0.6978 3.48829,0.3496 4.32327,-0.9495 6.68126,0.2352 7.91796,3.9824 0.61205,1.8545 3.226131,5.24 5.810551,7.5215 2.58442,2.2816 6.27422,5.6944 8.19922,7.584 4.20874,4.1313 7,4.5103 7,0.9511 0,-1.6167 -0.95514,-3.0774 -2.75,-4.205 -5.50025,-3.4554 -12.36311,-9.6388 -13.81445,-12.4454 -1.42674,-2.759 -1.39579,-2.8723 0.78906,-2.8613 7.47684,0.039 19.22309,5.4148 30.27539,13.8555 7.58483,5.7926 7.5133,5.7367 10.5,8.1699 l 2.5,2.0371 -9,-0.5254 c -19.1618,-1.1204 -46.682191,0.044 -57.500001,2.4336 -8.24341,1.8209 -19.69773,5.8752 -27,9.5567 -3.575,1.8024 -8.03741,4.7809 -9.91602,6.6191 -3.24451,3.1746 -3.38031,3.2165 -2.70703,0.8418 0.38984,-1.375 1.0992,-5.0431 1.57617,-8.1523 0.90337,-5.8888 4.0931,-14.1121 6.51172,-16.7911 0.77244,-0.8557 3.55611,-3.959 6.1875,-6.8945 5.51061,-6.1476 8.08906,-7.6637 17.42188,-10.25 5.4007,-1.4966 9.41791,-2.3024 11.85937,-2.3926 z m 37.609381,29.7852 c 4.37929,0.071 5.77956,0.529 7.6543,1.6152 4.72734,2.7392 24.61508,8.4159 28.89648,8.2481 2.3198,-0.091 4.17256,0.4821 5.16016,1.5957 3.1862,3.5927 18.74609,27.4691 18.74609,28.7656 0,0.7439 0.45,1.6308 1,1.9707 0.55,0.3399 1,1.2661 1,2.0586 0,1.9523 -0.1729,1.895 -11,-3.6348 -14.7301,-7.5231 -13.83705,-6.4589 -9.09375,-10.8379 5.727,-5.2872 5.11782,-6.68 -1.33008,-3.041 -6.1173,3.4519 -19.08279,5.5911 -21.17969,3.4942 -0.621,-0.621 -4.4527,-1.3337 -8.51367,-1.584 -11.34581,-0.6992 -44.892931,-0.4606 -49.382811,0.3515 -4.4965,0.8132 -8.52674,1.3687 -16.37109,2.2579 -2.9541,0.3348 -7.16548,1.2422 -9.35743,2.0156 -3.98345,1.4054 -6.31763,1.1123 -5.2246,-0.6563 0.31883,-0.5158 -0.23702,-1.1926 -1.23438,-1.5039 -0.99736,-0.3112 -2.59379,-0.9823 -3.54883,-1.4922 -0.95504,-0.5098 -2.58949,-0.9277 -3.63281,-0.9277 -2.67225,0 -3.22215,-3.31 -1.08984,-6.5605 2.56308,-3.9072 12.47172,-11.0637 18.14453,-13.1036 2.64826,-0.9523 4.81445,-2.118 4.81445,-2.5918 0,-0.4738 0.47073,-0.5717 1.04492,-0.2168 0.57418,0.3548 2.04229,-0.01 3.26367,-0.8105 2.46007,-1.6119 5.9308,-2.4992 12.69141,-3.2441 2.475,-0.2727 5.85,-0.6989 7.5,-0.9473 1.65,-0.2484 10.288421,-0.6906 19.197271,-0.9844 5.51773,-0.1819 9.21813,-0.2791 11.8457,-0.2363 z m 28.97265,0.9531 c 1.21082,-0.1642 6.48438,2.9643 6.48438,3.957 0,1.0895 -0.761,0.981 -1.5,-0.2148 -0.3399,-0.55 -1.4649,-1 -2.5,-1 -1.9205,0 -3.62922,-1.7048 -2.66992,-2.6641 0.0418,-0.042 0.10482,-0.067 0.18554,-0.078 z m -28.27148,31.8633 c 0.1768,-0.044 0.55,0.025 1.08789,0.2187 1.00748,0.3626 4.04498,0.6602 6.75,0.6602 3.70508,0 4.91797,0.37 4.91797,1.5 0,0.825 -0.3375,1.4373 -0.75,1.3613 -6.01252,-1.1068 -11.25763,-2.5464 -11.91992,-3.2715 -0.2439,-0.267 -0.26274,-0.4246 -0.0859,-0.4687 z m -26.244141,0.5625 c 0.275,-0.071 1.625,0.6028 3,1.4961 1.398401,0.9086 5.584491,1.8587 9.500001,2.1562 6.79399,0.5163 26.32413,4.7738 37.5,8.1758 6.2369,1.8986 15.2837,6.7685 19,10.2266 1.375,1.279502 4.975,3.993302 8,6.031202 5.6923,3.8347 16.5185,12.6021 18.8066,15.2305 0.7182,0.825 3.3259,4.5375 5.7969,8.25 2.4709,3.7125 5.0973,6.75 5.836,6.75 0.7388,0 1.6256,1.125 1.9707,2.5 0.5505,2.193 1.6919,3.0488 3,2.25 0.5997,-0.3662 4.5898,4.8942 4.5898,6.0508 0,0.5419 0.615,1.221 1.3672,1.5097 1.7804,0.6831 2.7948,5.9716 1.3203,6.8829 -0.6213,0.384 -0.7799,1.0461 -0.3535,1.4726 0.4265,0.4264 1.2006,0.1138 1.7207,-0.6953 0.83,-1.2911 1.0654,-1.2873 1.9297,0.029 0.5416,0.825 0.99,2.4046 1,3.5098 0.01,1.1052 0.8321,2.5192 1.8301,3.1425 1.0719,0.6694 2.364,3.5302 3.1562,6.9903 0.7376,3.2216 1.8337,6.3139 2.4355,6.873 0.6019,0.5592 1.8388,2.3592 2.75,4 15.2895,27.5339 20.4611,35.6629 34.5411,54.291 5.1163,6.769 9.3027,12.7315 9.3027,13.25 0,0.5186 -0.225,0.9434 -0.5,0.9434 -0.275,0 -0.5,-0.4192 -0.5,-0.9316 0,-0.5124 -3.4875,-2.709 -7.75,-4.8809 -4.2625,-2.1719 -9.325,-4.8993 -11.25,-6.0605 -1.925,-1.1612 -4.625,-2.6552 -6,-3.3204 -1.375,-0.6652 -3.7608,-2.065 -5.3008,-3.1113 -1.5399,-1.0463 -3.6774,-1.6731 -4.75,-1.3926 -1.2088,0.3161 -1.9492,0.01 -1.9492,-0.8144 0,-0.7286 -1.4625,-2.218 -3.25,-3.3086 -6.7091,-4.0931 -10.8572,-6.1797 -12.2812,-6.1797 -0.8083,0 -1.4688,-0.4985 -1.4688,-1.1074 0,-0.6084 -0.6992,-0.8393 -1.5527,-0.5117 -0.8817,0.3384 -1.2893,0.1736 -0.9453,-0.3829 0.3329,-0.5386 -1.0211,-1.7556 -3.0079,-2.7031 -3.1431,-1.4988 -3.7434,-1.5311 -4.6191,-0.2578 -0.7846,1.1409 -0.8812,1.0131 -0.4395,-0.5781 0.4692,-1.6904 -0.383,-2.5068 -4.957,-4.75 -3.0377,-1.4899 -6.151,-2.709 -6.918,-2.709 -0.767,0 -1.5431,-0.3574 -1.7265,-0.793 -0.4696,-1.1158 -13.79187,-11.863 -21.16017,-17.0703 -3.3952,-2.3995 -6.54475,-5.0058 -6.99805,-5.7929 -0.496,-0.8609 -1.58904,-1.1889 -2.74414,-0.8223 -1.4454,0.4587 -1.77302,0.2298 -1.32812,-0.9297 0.6498,-1.6933 -0.42328,-2.9751 -5.45118,-6.5117 -1.8411,-1.295 -5.06867,-4.0925 -7.17187,-6.2168 -2.1033,-2.1244 -4.15013,-3.8633 -4.54883,-3.8633 -0.6915,0 -4.60989,-3.5477 -11.9668,-10.8379 -1.85315,-1.8363 -3.83951,-3.0477 -4.41601,-2.6914 -0.5765,0.3563 -1.04883,-0.045 -1.04883,-0.8906 0,-2.7574 -22.48039,-24.3397 -34.976561,-33.5801 -1.85946,-1.375 -4.53671,-3.4116 -5.95117,-4.5254 -1.41446,-1.1138 -3.92227,-2.6888 -5.57227,-3.5 -1.65,-0.8112 -3.53801,-1.9795 -4.19531,-2.5976 -0.6573,-0.618 -6.80514,-4.8847 -13.66211,-9.480502 -10.0845,-6.7589 -12.30247,-8.6649 -11.60156,-9.9746 0.99846,-1.8656 9.52183,-4.77 16.01562,-5.4571 2.44368,-0.2585 5.79336,-0.684 7.44336,-0.9453 1.65,-0.2614 6.825,-0.7527 11.5,-1.0918 4.675,-0.3391 8.725,-0.6731 9,-0.7441 z m 48.496091,3.3125 c 2.90937,-0.1455 9.81389,1.9116 18.50391,5.6465 17.8988,7.6929 26,12.1116 26,14.181602 0,0.9894 0.944,2.8124 2.0977,4.0508 1.8375,1.9723 2.5381,3.5518 2.8261,6.375 0.042,0.4125 0.8807,1.5545 1.8633,2.5371 0.9825,0.9825 2.8178,3.4575 4.0801,5.5 1.2623,2.0424 2.0505,3.7129 1.75,3.7129 -0.3005,0 -0.9825,-0.7875 -1.5156,-1.75 -2.3041,-4.1595 -31.55302,-27.250002 -34.51762,-27.250002 -0.8169,0 -1.84535,-0.6271 -2.28515,-1.3926 -1.1175,-1.945 -9.75639,-6.6074 -12.24219,-6.6074 -1.1316,0 -2.05664,-0.3937 -2.05664,-0.875 0,-0.4812 -1.35,-1.1446 -3,-1.4746 -1.65,-0.33 -3,-1.1206 -3,-1.7559 0,-0.5573 0.5263,-0.8499 1.49609,-0.8984 z m -102.191401,11.1738 c 0.98723,0.042 2.52365,1.9978 4.82422,5.6192 3.63071,5.715202 4.89324,7.972802 12.37109,22.134702 2.2,4.1664 4.86201,8.9262 5.91602,10.5762 6.04526,9.4636 9.38349,13.975 13.72851,18.5547 2.67062,2.8148 4.85547,5.3349 4.85547,5.5996 0,0.2648 1.9125,2.9086 4.25,5.875 2.3375,2.9665 6.275,8.3591 8.75,11.9844 5.799221,8.4946 16.492521,23.5296 18.185551,25.5683 0.72245,0.87 2.21445,3.2166 3.31445,5.2149 10.38678,18.8695 31.38159,39.286 43.11719,41.9297 1.0358,0.2333 -0.47969,0.4494 -3.36719,0.4824 -2.8875,0.033 -5.25,-0.2891 -5.25,-0.7168 0,-1.1391 -3.24062,-2.1935 -3.91992,-1.2754 -1.0162,1.3736 -4.25655,1.1827 -3.71875,-0.2188 0.4897,-1.2761 -0.88023,-1.4693 -2.86133,-0.4042 -2.0484,1.101 -10.5,-0.842 -10.5,-2.4141 0,-0.5886 1.2096,-2.3324 2.6875,-3.875 2.42091,-2.5269 2.49338,-2.8047 0.73828,-2.8047 -1.07143,0 -3.06285,1.35 -4.42578,3 -2.58979,3.1353 -7.09371,4.0103 -10.76367,2.0918 -2.26808,-1.1857 -12.0815,-4.0918 -13.81641,-4.0918 -0.74262,0 -3.27804,-0.6195 -5.63476,-1.377 -2.356721,-0.7576 -8.335161,-2.647 -13.285161,-4.1992 -11.33276,-3.5536 -23.94761,-9.3623 -27.52539,-12.6738 -1.0399,-0.9625 -2.1601,-1.75 -2.48828,-1.75 -1.38993,0 -12.22,-8.0293 -14.86914,-11.0234 l -2.88281,-3.2578 5.13281,-4.8711 c 2.82321,-2.6788 5.13281,-5.3343 5.13281,-5.9004 0,-0.566 0.96253,-2.3292 2.13867,-3.92 2.55041,-3.4496 2.4256,-4.3666 -3.01172,-22.0273 -5.19188,-16.8635 -6.17241,-21.2159 -6.75,-30 -0.27123,-4.125 -0.66059,-9.525 -0.86718,-12 -0.20659,-2.475 -0.51921,-10.1148 -0.69336,-16.9766 -0.22559,-8.888602 0.0454,-12.914502 1.48828,-12.853502 z m 11.06836,2.6914 c 0.27691,0.047 0.65898,0.3801 1.09765,1.0899 0.32331,0.5231 5.18696,3.959202 10.8086,7.634702 5.62165,3.6756 12.9207,8.5059 16.2207,10.7344 11.07909,7.482 26.900601,20.9582 40.056641,34.1192 7.18095,7.1837 15.18637,14.8605 17.78906,17.0605 2.6027,2.2 5.27706,4.4777 5.94336,5.0605 6.6651,5.8288 14.76855,12.4395 15.24805,12.4395 0.3285,0 2.08294,1.575 3.89844,3.5 1.8155,1.925 3.79328,3.5 4.39648,3.5 0.6032,0 1.54159,0.8301 2.08399,1.8438 1.312,2.4514 20.79448,17.1562 22.73048,17.1562 0.3824,0 1.4071,0.6148 2.2754,1.3652 0.8683,0.7504 5.4031,3.3233 10.0781,5.7188 9.0673,4.6461 28.6466,15.7379 35.873,20.3222 2.4057,1.5261 8.7057,5.0355 14,7.7989 5.2944,2.7635 10.0537,5.4235 10.5762,5.9101 0.5225,0.4867 1.76,0.8848 2.75,0.8848 0.99,0 1.8008,0.3781 1.8008,0.8398 0,0.4617 1.125,1.3522 2.5,1.9786 1.6618,0.7572 2.5,0.7912 2.5,0.1015 0,-0.5706 0.4566,-0.7556 1.0156,-0.4101 0.5585,0.3454 0.7783,1.0158 0.4864,1.4882 -0.292,0.4724 0.3334,1.1332 1.3906,1.4688 1.0572,0.3355 2.1759,1.2682 2.4844,2.0723 v 0 c 0.3084,0.804 0.4641,1.4239 0.3438,1.3789 -0.1203,-0.046 -1.681,-0.9858 -3.4668,-2.0899 -1.9064,-1.1786 -5.0899,-2.0361 -7.711,-2.0761 -2.4555,-0.037 -4.2683,-0.3829 -4.0293,-0.7696 0.2389,-0.387 -1.3298,-0.3823 -3.4844,0.012 -2.1545,0.394 -4.3058,0.329 -4.7812,-0.1464 -0.8699,-0.8699 -6.3767,-1.551 -18.0723,-2.2325 -3.4797,-0.2028 -6.7922,-0.8333 -7.3593,-1.4004 -0.5671,-0.5671 -1.2716,-4.0356 -1.5665,-7.7089 -0.365,-4.5473 -1.0001,-6.8576 -1.9921,-7.2383 -2.3037,-0.884 -3.2243,1.7008 -3.2403,9.1035 l -0.016,6.8691 -6.25,-0.7011 c -3.4375,-0.3853 -8.0117,-0.699 -10.1641,-0.709 -2.2894,-0.01 -3.3889,-0.3346 -2.6504,-0.791 0.8049,-0.4975 -0.1228,-1.0392 -2.5585,-1.4961 -2.4753,-0.4644 -3.9475,-0.3313 -4.1836,0.3769 -0.2004,0.6012 -0.8499,0.7926 -1.4434,0.4258 -1.7789,-1.0995 -7.1184,-1.2187 -9.0195,-0.2012 -1.28,0.685 -2.2315,0.4971 -3.4024,-0.6738 -0.89394,-0.894 -2.45854,-1.4088 -3.47654,-1.1426 -1.018,0.2662 -1.85156,0.018 -1.85156,-0.5527 0,-0.6351 -1.56455,-0.829 -4.03125,-0.4981 -3.2836,0.4404 -4.56263,0.093 -6.89453,-1.8691 -1.5747,-1.325 -3.16756,-2.4082 -3.53906,-2.4082 -0.8311,0 -9.52738,-5.9079 -11.38868,-7.7363 -0.7448,-0.7317 -3.09405,-2.2169 -5.21875,-3.3008 -6.7617,-3.4496 -16.08355,-13.1974 -22.92773,-23.9766 -3.575,-5.6304 -7.7375,-11.7032 -9.25,-13.4941 -1.5125,-1.7909 -2.75,-3.542 -2.75,-3.8906 0,-0.5671 -7.61622,-11.5535 -9.79297,-14.127 -0.47731,-0.5643 -1.7171,-2.3643 -2.75586,-4 -2.67189,-4.2073 -15.212601,-20.4628 -23.386721,-30.3144 -4.81613,-5.8045 -9.23165,-12.8599 -14.52343,-23.2071 -5.92063,-11.5768 -7.95351,-14.7313 -9.1875,-14.2578 -1.20462,0.4623 -1.44043,0.1504 -0.98243,-1.2949 0.33138,-1.0457 -0.0389,-3.137902 -0.82421,-4.650402 -0.88836,-1.711 -0.78305,-2.9925 -0.17383,-2.8887 z m -18.81446,9.461002 c 0.0573,-0.01 0.10685,0.011 0.14649,0.051 0.30685,0.3068 0.73721,7.66 0.95508,16.3418 0.49953,19.9052 1.41893,25.5531 6.90625,42.3653 6.10632,18.7088 5.91716,23.3835 -1.24219,30.5429 -2.40715,2.4071 -4.47658,4.3618 -4.59961,4.3438 -0.12302,-0.018 -1.85359,-1.7121 -3.84375,-3.7637 -9.8501,-10.1542 -18.97323,-39.6665 -16.91992,-54.7304 1.02116,-7.4916 6.67436,-21.7609 8.39453,-21.1875 1.20656,0.4022 6.64453,-5.5042 6.64453,-7.2168 0,-1.6691 2.69862,-6.6524 3.55859,-6.7461 z m 19.27149,82.6777 c -1.00671,0 -1.83008,0.2464 -1.83008,0.5488 0,1.5078 3.20798,6.2657 5.9082,8.7617 2.81603,2.6031 9.3342,10.7914 13.28516,16.6895 0.92107,1.375 3.73183,4.6924 6.24609,7.373 4.07984,4.35 4.90722,4.8069 7.69141,4.25 1.7158,-0.3431 4.00104,-0.623 5.07812,-0.623 2.20808,0 1.93691,-2.4222 -0.29492,-2.6348 -0.77765,-0.074 -2.00728,-0.187 -2.73242,-0.25 -1.90809,-0.1669 -9.62985,-8.4434 -15.9668,-17.1152 -6.46061,-8.841 -14.80397,-17 -17.38476,-17 z m -8.5918,12.1406 c -1.19549,-0.1377 -3.1929,2.1219 -2.5,3.2227 0.46854,0.7443 0.83542,0.5326 1.0625,-0.6133 0.19074,-0.9625 0.83811,-1.75 1.43945,-1.75 0.60134,0 0.80456,-0.2892 0.45118,-0.6426 -0.12787,-0.1278 -0.28234,-0.1971 -0.45313,-0.2168 z m 216.761721,53.9883 c -0.4531,0 -0.9062,0.07 -1.25,0.209 -0.6875,0.2774 -0.125,0.5039 1.25,0.5039 1.375,0 1.9375,-0.2265 1.25,-0.5039 -0.3438,-0.1387 -0.7969,-0.209 -1.25,-0.209 z"
     id="path4058"
     inkscape:connector-curvature="0" />
</svg>
