<?xml version="1.0" encoding="UTF-8" standalone="no"?>
<!-- Created with Inkscape (http://www.inkscape.org/) -->

<svg
   xmlns:dc="http://purl.org/dc/elements/1.1/"
   xmlns:cc="http://creativecommons.org/ns#"
   xmlns:rdf="http://www.w3.org/1999/02/22-rdf-syntax-ns#"
   xmlns:svg="http://www.w3.org/2000/svg"
   xmlns="http://www.w3.org/2000/svg"
   xmlns:sodipodi="http://sodipodi.sourceforge.net/DTD/sodipodi-0.dtd"
   xmlns:inkscape="http://www.inkscape.org/namespaces/inkscape"
   version="1.1"
   id="svg64"
   width="412.66217"
   height="259.63678"
   viewBox="0 0 412.66218 259.63678"
   sodipodi:docname="3.svg"
   inkscape:version="0.92.4 (5da689c313, 2019-01-14)">
  <metadata
     id="metadata70">
    <rdf:RDF>
      <cc:Work
         rdf:about="">
        <dc:format>image/svg+xml</dc:format>
        <dc:type
           rdf:resource="http://purl.org/dc/dcmitype/StillImage" />
        <dc:title />
      </cc:Work>
    </rdf:RDF>
  </metadata>
  <defs
     id="defs68" />
  <sodipodi:namedview
     pagecolor="#ffffff"
     bordercolor="#666666"
     borderopacity="1"
     objecttolerance="10"
     gridtolerance="10"
     guidetolerance="10"
     inkscape:pageopacity="0"
     inkscape:pageshadow="2"
     inkscape:window-width="1243"
     inkscape:window-height="789"
     id="namedview66"
     showgrid="false"
     fit-margin-top="0"
     fit-margin-left="0"
     fit-margin-right="0"
     fit-margin-bottom="0"
     inkscape:zoom="0.74567625"
     inkscape:cx="185.85869"
     inkscape:cy="72.260132"
     inkscape:window-x="0"
     inkscape:window-y="0"
     inkscape:window-maximized="0"
     inkscape:current-layer="svg64" />
  <path
     style="fill:#000000"
     d="M 172.63618,0.00136409 C 129.59097,3.2487634 88.035665,16.156114 48.584765,33.21504 35.109065,42.825067 7.3814181,40.339145 2.8771523,57.150601 13.82927,70.641192 25.490331,83.446739 33.491436,99.200594 c 12.314551,21.091936 21.249713,44.877366 40.072313,61.319676 14.71846,15.95921 29.128971,32.35801 44.113741,47.94843 22.95825,29.85728 59.20117,49.22103 96.9998,50.5443 34.36861,0.95041 71.07106,2.57503 102.80752,-12.89403 15.8411,-6.39704 20.21441,-23.71299 23.82722,-38.68233 11.94201,-19.68389 -1.30552,-42.91214 4.68405,-63.96408 13.79191,-13.54722 43.18035,-4.91237 54.87016,-25.22318 C 417.70378,98.110359 415.39928,66.351258 397.06208,47.8996 383.87253,29.176639 365.41818,11.866578 341.44097,10.156085 315.27275,6.5112545 288.68771,8.7651865 262.53303,4.7682823 241.81569,3.2782784 221.05735,1.2364541 200.32877,1.1610384 191.11905,0.25947209 181.76892,1.8574891 172.63618,0.00136409 Z m 16.91796,2.67578001 c 2.34804,2.8217355 -3.98838,1.3349845 0,0 z m 16,1 c 2.34804,2.8217355 -3.98838,1.3349845 0,0 z m 7.68946,1.01562 c 7.70994,1.5107183 -4.23659,1.7724669 0,0 z m 22.36328,1.32813 c 4.91204,1.0465709 -2.93895,2.6733442 0,0 z M 227.4936,19.661524 c 23.29333,2.091226 46.80336,2.828005 69.6146,8.360902 20.22377,0.979883 39.19394,8.810135 59.23846,10.149158 19.04744,-0.794533 33.40353,18.637839 32.7842,36.234955 -6.60763,16.77994 -32.70193,14.892746 -36.43358,36.095901 -2.67564,8.95064 -13.02787,21.60106 -11.52653,4.73696 5.75625,-17.163604 -0.64265,-33.845151 -8.12773,-49.301508 -4.92494,-6.024772 -5.94972,-28.184316 -14.39403,-24.138891 2.38433,20.555398 17.04899,37.653335 18.3552,58.696099 1.77975,10.06245 1.19476,23.31965 -10.24245,12.29992 -16.52431,-4.45813 -15.53832,-24.080967 -25.52606,-32.17543 -2.02879,5.154656 3.57847,19.104394 -8.98704,10.457986 C 273.90296,81.734493 258.58028,69.95471 248.3828,51.267431 239.47009,44.451195 231.52987,29.122462 219.717,30.739619 c 9.4785,16.697289 32.87815,23.548058 37.78969,43.156838 -24.54513,-13.47651 -51.57038,-21.403131 -78.32755,-29.164233 -1.55096,14.927176 25.78266,10.924805 35.87038,18.202993 26.75211,9.237881 51.77916,22.659248 77.31602,34.662122 13.13974,7.206391 25.43409,15.887611 36.95326,25.456901 -17.88396,-1.09329 -35.35682,-8.16116 -53.61777,-4.03272 -30.91102,1.29399 -62.31194,3.22491 -92.92501,-1.87938 -16.19525,-9.10542 -23.15659,-28.407748 -38.91133,-38.495141 -3.5194,-6.133386 -23.11929,-21.812134 -21.54089,-13.312942 14.67994,13.585102 29.66603,27.064156 43.16563,41.762753 9.48621,21.50167 -16.97795,-0.46809 -22.4827,1.13765 -15.48287,9.11673 -40.92111,-7.76849 -50.355335,-23.429263 -3.760946,-5.863471 -20.192638,-13.167968 -9.766304,-0.777014 7.17098,3.455367 21.045059,23.126177 4.266547,11.496302 C 73.88993,86.524872 48.598399,65.611658 39.624495,72.544078 c 14.447283,13.555323 37.703648,18.248056 49.210698,33.750912 -7.113926,7.05742 -8.540711,11.64253 3.085703,7.2899 14.318924,-1.69882 38.749914,-0.77359 45.925584,9.14019 0.54108,15.19247 12.48332,-9.79136 21.78865,-0.20835 9.19501,6.74988 -12.98791,11.53608 -16.91033,16.72708 -7.93492,5.47714 -31.86741,8.35963 -30.08267,14.29468 19.92216,4.42494 36.37823,-11.99506 51.79044,-21.98928 15.53243,-8.90853 33.78557,-3.16633 50.68234,-5.10804 36.42713,4.56555 74.25381,-7.7503 109.72507,4.69734 -10.18349,12.21 -29.30646,10.62608 -42.75131,18.34905 -36.60932,12.87799 -74.06618,23.11156 -111.34181,33.83661 -17.48778,11.38598 15.92793,4.09622 21.72707,0.3932 11.78565,-2.46882 30.88346,-11.64082 38.81925,-7.23414 -3.62751,7.2365 -25.49041,23.38027 -15.22783,25.2439 13.18744,-13.38471 21.96832,-33.38317 42.44867,-37.04955 9.5615,-4.95546 12.76224,0.98963 7.46173,8.70457 4.60522,2.68049 7.8795,-21.15926 20.57467,-17.85107 9.2159,-2.61238 29.19945,-13.76351 33.0174,-6.76242 -13.81534,24.78806 -28.66331,52.39488 -55.59591,64.79887 -9.91452,11.88908 6.56527,9.64745 9.20144,-0.0648 10.47747,-13.75141 30.70022,-10.9021 30.27538,7.27603 9.77921,-0.77985 -12.49081,-25.07172 -1.34811,-33.47412 9.15948,-13.61544 18.04358,-30.50134 27.59065,-42.07851 -1.045,18.82608 4.88275,37.63984 -2.36093,55.8357 -9.15721,15.10576 -11.40007,38.07448 -33.81269,37.14413 -17.10739,4.44794 -35.33039,6.79779 -53.24236,5.56097 -15.45782,-0.0128 -33.48692,3.93731 -49.68482,-2.39588 -27.07703,-7.14458 -51.02274,-24.29857 -66.42565,-47.65539 C 107.41808,173.5105 88.834751,154.70567 69.381038,137.30684 55.894094,116.43304 46.485795,93.117684 31.537701,73.150292 30.572001,54.014156 62.04863,58.534214 73.68093,47.559057 c 36.3031,-15.93811 75.30222,-26.357701 115.17129,-26.062035 12.88925,-0.342028 25.81326,-0.384093 38.64138,-1.835498 z m 129.32422,42.1797 c -2.49549,8.129211 -13.95847,20.960175 -8.30143,27.358883 4.59414,-7.970606 15.54993,-17.67116 8.30143,-27.358883 z m 28.26562,29.0722 c 22.2148,4.532417 -7.21627,24.829256 -17.26662,27.874526 -23.95348,5.64826 -2.73469,-20.844168 7.95447,-24.193133 2.9591,-1.558251 6.08694,-2.79643 9.31215,-3.681393 z m -59.37109,78.283296 c -13.3981,3.62361 8.25393,29.07279 0.0729,9.13598 -0.17339,-3.04698 1.4985,-6.21207 -0.0729,-9.13598 z m -196.21875,55.1445 c 4.97098,6.27308 10.95691,8.76655 1.83412,1.38511 z m 13.51758,11.3301 c 2.27817,4.85702 6.51512,2.27441 0,0 z m 122.90039,8.1308 c 2.73337,2.08225 -4.80883,-0.47567 0,0 z"
     id="path74"
     inkscape:connector-curvature="0" />
</svg>
