<?xml version="1.0" encoding="UTF-8" standalone="no"?>
<!-- Created with Inkscape (http://www.inkscape.org/) -->

<svg
   xmlns:dc="http://purl.org/dc/elements/1.1/"
   xmlns:cc="http://creativecommons.org/ns#"
   xmlns:rdf="http://www.w3.org/1999/02/22-rdf-syntax-ns#"
   xmlns:svg="http://www.w3.org/2000/svg"
   xmlns="http://www.w3.org/2000/svg"
   xmlns:sodipodi="http://sodipodi.sourceforge.net/DTD/sodipodi-0.dtd"
   xmlns:inkscape="http://www.inkscape.org/namespaces/inkscape"
   version="1.1"
   id="svg4048"
   width="379.73126"
   height="283.87082"
   viewBox="0 0 379.73126 283.87082"
   sodipodi:docname="leaf_2.svg"
   inkscape:version="0.92.4 (5da689c313, 2019-01-14)">
  <metadata
     id="metadata4054">
    <rdf:RDF>
      <cc:Work
         rdf:about="">
        <dc:format>image/svg+xml</dc:format>
        <dc:type
           rdf:resource="http://purl.org/dc/dcmitype/StillImage" />
        <dc:title></dc:title>
      </cc:Work>
    </rdf:RDF>
  </metadata>
  <defs
     id="defs4052" />
  <sodipodi:namedview
     pagecolor="#ffffff"
     bordercolor="#666666"
     borderopacity="1"
     objecttolerance="10"
     gridtolerance="10"
     guidetolerance="10"
     inkscape:pageopacity="0"
     inkscape:pageshadow="2"
     inkscape:window-width="1047"
     inkscape:window-height="683"
     id="namedview4050"
     showgrid="false"
     inkscape:zoom="0.42909091"
     inkscape:cx="207.20692"
     inkscape:cy="85.787172"
     inkscape:window-x="0"
     inkscape:window-y="0"
     inkscape:window-maximized="0"
     inkscape:current-layer="svg4048"
     fit-margin-top="0"
     fit-margin-left="0"
     fit-margin-right="0"
     fit-margin-bottom="0" />
  <path
     style="fill:#000000"
     d="m 371.11678,0.00244679 c -0.2109,0.0333 -0.7535,0.40765 -1.5,1.06250001 -1.1945,1.04774 -2.1719,2.28524 -2.1719,2.75 0,1.28964 3.7815,1.00654 4.6172,-0.34571 0.4049,-0.65504 0.2035,-1.369 -0.4473,-1.58593 -0.6508,-0.21694 -0.8769,-0.91808001 -0.5039,-1.55860001 0.1399,-0.24019 0.1324,-0.34225 0.01,-0.32226 z m 4.1347,4.16015001 c -0.4444,-0.10271 -1.08,0.28528 -2.2871,1.07617 -1.3778,0.90278 -3.1596,1.3895 -3.9609,1.08204 -0.9491,-0.36424 -1.2728,-0.0797 -0.9297,0.81445 0.2932,0.76415 -0.4304,1.88382 -1.6328,2.52734 -1.7824,0.9539102 -2.4183,0.8358002 -3.6406,-0.67383 -1.0657,-1.31624 -1.6274,-1.47766 -2.002,-0.57812 -0.2862,0.6875 -1.1584,1.25 -1.9375,1.25 -1.7448,0 -1.9047,2.9690602 -0.166,3.0820302 0.6875,0.0447 0.079,0.60717 -1.3535,1.25 -1.4324,0.64283 -3.2324,1.68166 -4,2.31055 -1.7801,1.45842 -11.6733,6.91007 -19.2774,10.62304 -4.0661,1.9854 -6.2019,2.552 -6.9199,1.83399 -0.718,-0.718 -0.2919,-1.36343 1.3809,-2.0918 2.212,-0.96315 2.1627,-0.996 -0.5801,-0.37695 -1.65,0.3724 -4.35,0.78893 -6,0.92578 -1.65,0.13684 -5.475,1.20276 -8.5,2.36719 -7.7658,2.98932 -31.9465,9.5199 -39.375,10.63476 -1.5809,0.23726 -4.7309,0.95038 -7,1.58399 -2.2691,0.63362 -4.8,1.24744 -5.625,1.36523 -0.825,0.11779 -2.175,0.46342 -3,0.76758 -1.3618,0.50207 -17.6216,4.31564 -29.0938,6.82422 -4.2603,0.93157 -27.559,4.25582 -37.9062,5.4082 -2.475,0.27565 -12.6,0.71398 -22.5,0.97461 -9.9,0.26062 -19.575,0.66578 -21.5,0.90039 -1.925,0.23461 -8.225,0.50225 -14,0.59375 -5.775,0.0915 -13.2,0.79855 -16.5,1.57227 -3.3,0.77372 -9.6082,1.84253 -14.0176,2.37305 -9.022298,1.0855 -21.581598,4.78147 -28.988298,8.53124 -2.7224,1.37825 -7.4353,3.04486 -10.47262,3.70313 -8.8218,1.91192 -26.17607,13.84906 -39.63867,27.265633 -9.53554,9.50291 -11.70333,12.28711 -15.2402302,19.57812 -7.27841,15.00381 -8.66769001,22.85586 -8.58399001,48.5 0.0494,15.13633 0.33705,18.52777 1.80860001,21.31445 1.12787,2.13587 1.84887,6.08669 2.02929,11.11328 l 0.28125,7.79883 5.66602,37.54492 3.1777302,6.61524 c 1.92007,3.99477 5.00512,8.2909 7.79102,10.84961 4.6817,4.30006 14.6472,10.93074 15.8418,10.54101 0.3598,-0.11736 1.20294,0.44649 1.87304,1.25391 0.6701,0.80742 1.55716,1.46875 1.97266,1.46875 0.4155,0 2.49735,0.75549 4.62695,1.67773 4.1297,1.78834 4.27115,1.83454 8.87305,2.93555 2.3678,0.56651 14.028,0.77329 24.25,0.42969 0.6875,-0.0231 1.8125,-0.0382 2.5,-0.0312 0.6875,0.007 3.275,-0.22932 5.75,-0.52344 2.475,-0.29411 6.075,-0.70078 8,-0.9043 1.925,-0.20352 3.6125,-0.47387 3.75,-0.60156 0.1375,-0.12768 0.5875,-0.30438 1,-0.39258 0.4125,-0.0882 1.762498,-0.72279 2.999998,-1.41015 1.2375,-0.68732 2.25,-0.95349 2.25,-0.5918 0,0.3617 0.675,0.0968 1.5,-0.58789 0.825,-0.68469 1.5,-0.90969 1.5,-0.5 0,0.40969 0.675,0.18469 1.5,-0.5 0.825,-0.68469 1.5,-0.90969 1.5,-0.5 0,0.40969 0.6295,0.22209 1.3984,-0.41602 1.3924,-1.15564 3.8486,-1.89307 8.6016,-2.58398 1.375,-0.19987 3.625,-0.64552 5,-0.99023 1.375,-0.34472 3.175,-0.79142 4,-0.99219 0.825,-0.20076 1.5,-0.43338 1.5,-0.51758 0,-0.16146 1.4491,-0.54164 5.4004,-1.41406 1.3203,-0.29153 10.5453,-4.52466 20.5,-9.40821 17.5563,-8.61281 41.9704,-23.82549 54.5996,-34.02148 8.1786,-6.60286 22.8448,-20.78068 27.2129,-26.30664 2.1097,-2.66898 7.2186,-8.56485 11.3535,-13.10156 4.1349,-4.5367 10.3124,-12.00309 13.7266,-16.5918 3.4142,-4.58871 9.357,-12.4654 13.207,-17.50391 7.8161,-10.229 8.9591,-11.80805 14.2109,-19.65234 2.0253,-3.025 5.0017,-6.93178 6.6153,-8.68164 3.1685,-3.43625 14.1158,-20.05602 23.2636,-35.318363 3.1317,-5.225 7.5433,-12.54896 9.8028,-16.27539 2.2596,-3.72642 5.1329,-8.62408 6.3867,-10.88281 4.2261,-7.61305 10.6699,-15.14456 20.2207,-23.63672 16.0471,-14.26835 16.925,-15.11736 20.0078,-19.37305 2.2826,-3.15104 2.7266,-4.44726 1.8789,-5.46875 -0.6107,-0.73621 -0.8555,-2.00397 -0.5429,-2.81836 0.3124,-0.81439 0.1106,-1.7633302 -0.4493,-2.1093702 -0.5599,-0.34604 -1.4342,-1.72559 -1.9433,-3.06446 -0.446,-1.17295 -0.7002,-1.76642 -1.1446,-1.86914 z m -22.248,8.4980502 c -0.2425,0 -0.7187,0.45 -1.0586,1 -0.3399,0.55 -0.1411,1 0.4414,1 0.5824,0 1.0586,-0.45 1.0586,-1 0,-0.55 -0.1988,-1 -0.4414,-1 z m -5.4414,4 c -0.55,0 -1.2773,0.45 -1.6172,1 -0.3399,0.55 -0.1672,1 0.3828,1 0.55,0 1.2773,-0.45 1.6172,-1 0.3399,-0.55 0.1672,-1 -0.3828,-1 z m -4.6172,2.06445 c -0.55,0 -1.8738,0.6593 -2.9414,1.4668 -1.0677,0.80751 -1.4914,1.46875 -0.9414,1.46875 0.55,0 1.8737,-0.66124 2.9414,-1.46875 1.0676,-0.8075 1.4914,-1.4668 0.9414,-1.4668 z m -18.4355,23.96289 c 0.9137,-0.0849 0.6831,1.43912 -0.8321,3.64454 -4.2696,6.21479 -8.1095,12.78498 -7.707,13.1875 0.2342,0.23414 1.1129,-0.14413 1.9512,-0.83985 1.2504,-1.0377 1.5234,-0.99419 1.5234,0.23633 0,0.825 -0.675,2.05945 -1.5,2.74414 -0.825,0.68469 -1.5,2.5404 -1.5,4.12305 0,1.58266 -0.4841,2.87695 -1.0762,2.87695 -0.6064,0 -0.9533,-1.42504 -0.7949,-3.26367 0.1547,-1.79542 -0.038,-3.78021 -0.4277,-4.41016 -0.3895,-0.62994 -0.4301,-1.86642 -0.092,-2.74805 0.3383,-0.88163 0.1776,-2.1613 -0.3574,-2.84179 -0.5353,-0.6805 -0.7622,-2.92022 -0.504,-4.97852 0.4261,-3.39778 0.8513,-3.85197 4.6114,-4.92578 2.2778,-0.6505 4.7132,-1.61831 5.414,-2.15039 0.5534,-0.42016 0.9865,-0.626 1.2911,-0.6543 z m 2.6386,2.27344 c 0.1787,0.0346 0.2863,0.16815 0.2813,0.39063 -0.01,0.44496 -0.4512,1.48359 -0.9844,2.30859 -0.8354,1.29269 -0.9714,1.26586 -0.9844,-0.19141 -0.01,-0.93004 0.4344,-1.96867 0.9844,-2.30859 0.275,-0.16996 0.5244,-0.23383 0.7031,-0.19922 z m -16.9863,3.19727 c 1.0928,0.12892 -1.109,2.57525 -5.8926,6.2539 -3.3964,2.61193 -8.6839,6.93855 -11.75,9.61524 -4.7112,4.11295 -33.107,23.63281 -34.3789,23.63281 -0.23,0 -3.7429,1.84203 -7.8066,4.09375 -4.0637,2.25172 -10.9887,6.01105 -15.3887,8.353523 -4.4,2.34248 -15.6337,8.82544 -24.9648,14.40625 -9.3311,5.5808 -17.6794,10.14648 -18.5508,10.14648 -0.8714,0 -2.0127,0.41443 -2.5352,0.91992 -0.5225,0.50548 -4.9992,3.05337 -9.9492,5.66211 -4.95,2.60873 -9.225,5.03459 -9.5,5.39063 -0.9004,1.16574 -15.6429,10.02734 -16.6816,10.02734 -0.5572,0 -2.0501,0.9 -3.3184,2 -1.2683,1.1 -3.1103,2 -4.0938,2 -0.9834,0 -2.0819,0.47688 -2.4414,1.05859 -0.3596,0.58172 -8.5981,5.02126 -18.3086,9.86719 -9.7103,4.84593 -21.6284,11.12101 -26.484298,13.94336 -4.8558,2.82235 -9.0342,5.13086 -9.2852,5.13086 -0.2509,0 0.025,-0.9 0.6133,-2 0.5887,-1.1 1.4228,-2 1.8535,-2 0.4306,0 4.1274,-3.47993 8.2149,-7.73242 4.087498,-4.25249 9.731398,-9.98999 12.542898,-12.75 2.8116,-2.76001 5.6399,-6.03008 6.2852,-7.26758 0.6453,-1.2375 1.8191,-2.25 2.6074,-2.25 1.2661,0 6.9762,-7.06651 10.1289,-12.53516 0.623,-1.08054 1.8605,-1.83348 2.75,-1.67187 0.8896,0.16161 1.6172,-0.1554 1.6172,-0.70508 0,-1.24294 3.7623,-6.8434 6.7559,-10.05664 1.2343,-1.32488 2.2441,-3.16871 2.2441,-4.09766 0,-0.92894 0.675,-2.2489 1.5,-2.93359 0.825,-0.68469 1.5076,-1.7529 1.5176,-2.37305 0.025,-1.53748 4.9458,-8.68208 8.2676,-12.0039 1.4931,-1.493133 2.7148,-3.220573 2.7148,-3.839853 0,-0.61928 1.9596,-3.00516 4.3555,-5.30078 4.163,-3.9889 4.4112,-4.08638 5.5898,-2.19922 1.1367,1.8202 1.9895,1.9268 10.8945,1.35547 14.2309,-0.91302 19.823,-2.01321 23.3028,-4.58594 1.7129,-1.26634 4.1744,-2.30273 5.4687,-2.30273 1.357,0 3.7364,-1.42512 5.6211,-3.36523 1.7975,-1.8504 3.7684,-3.369 4.3809,-3.375 0.6125,-0.006 2.2303,-1.12495 3.5937,-2.48829 3.2705,-3.27052 13.922,-8.19577 20.7969,-9.61523 3.0226,-0.62407 9.4483,-1.06848 14.2793,-0.98828 6.7582,0.11221 9.7964,-0.30289 13.1738,-1.79688 2.4143,-1.06797 4.6375,-1.69249 4.9414,-1.38867 0.3038,0.30382 1.1274,0.0928 1.8282,-0.46875 0.7008,-0.56158 4.8734,-1.80364 9.2734,-2.75976 4.4,-0.95612 8.9,-2.10342 10,-2.55079 1.1,-0.44736 3.6875,-1.32996 5.75,-1.96093 2.0625,-0.63097 3.75,-1.49109 3.75,-1.91016 0,-0.41906 1.125,-1.27389 2.5,-1.90039 1.1229,-0.51164 1.8525,-0.72657 2.2168,-0.68359 z m 6.6719,3.84179 c -0.1196,0.0231 -0.2512,0.0752 -0.3887,0.16016 -0.55,0.33992 -1,1.06719 -1,1.61719 0,0.55 0.45,0.72273 1,0.38281 0.55,-0.33992 1,-1.06719 1,-1.61719 0,-0.4125 -0.2527,-0.61224 -0.6113,-0.54297 z m -5.7813,3.20118 c 0.1183,0.085 0.047,1.01523 -0.209,2.45898 -0.3413,1.925 -0.5593,4.7766 -0.4863,6.33789 0.2987,6.35626 -9.0609,17.71409 -16.5195,20.04688 -2.0072,0.62778 -8.841,8.59734 -14.543,16.958983 -1.4578,2.13784 -5.5078,6.64974 -9,10.02539 -3.4922,3.37566 -7.1626,7.59902 -8.1562,9.38477 l -1.8067,3.24609 h 2.4883 c 1.5938,0 3.2173,-1.02441 4.5156,-2.84766 1.1148,-1.5657 4.5528,-4.79304 7.6387,-7.17382 4.5147,-3.48304 6.2957,-5.77116 9.1152,-11.7129 1.9273,-4.061383 4.2579,-7.662803 5.1797,-8.001953 0.9219,-0.33915 3.1383,-1.71532 4.9258,-3.05859 3.1303,-2.35233 4.7465,-1.69118 1.8145,0.74219 -0.7897,0.65535 -1.727,2.51406 -2.0821,4.13085 -0.3551,1.61681 -1.0114,2.71219 -1.459,2.43555 -1.3547,-0.83729 -1.9526,2.152263 -0.6953,3.476563 0.9151,0.96381 0.7337,1.1067 -0.8281,0.65235 -1.6179,-0.47066 -2.621,0.47783 -5.25,4.9668 -1.7875,3.05206 -3.2556,6.52707 -3.2656,7.7207 -0.013,1.77487 -0.1947,1.89666 -1,0.66992 -0.8289,-1.26259 -1.0752,-1.16707 -1.5625,0.60547 -0.3861,1.4045 -3.4668,3.56116 -9.25,6.47461 -4.7691,2.40255 -9.3469,4.40517 -10.1719,4.45117 -1.6759,0.0934 -4.4895,0.80206 -14,3.52734 -12.5106,3.58496 -27.5755,6.88169 -36.2852,7.93946 -4.8313,0.58675 -10.9063,1.48126 -13.5,1.98828 -14.7108,2.87573 -65.8241,24.06008 -66.9882,27.76367 -0.7904,2.51439 5.0794,1.18809 14.2734,-3.22461 5.1271,-2.46078 11.0485,-5.107 13.1602,-5.88086 2.1116,-0.77386 6.9898,-2.75967 10.8398,-4.41406 9.6258,-4.13633 22.3661,-7.97448 32.5,-9.79102 24.9896,-4.47952 30.2152,-5.50591 38,-7.45312 4.675,-1.16937 9.625,-2.39159 11,-2.7168 1.375,-0.32521 2.9725,-1.23422 3.5508,-2.01953 0.6035,-0.81967 3.1592,-1.54713 6,-1.70898 6.1028,-0.34769 11.5431,-1.50401 13.1992,-2.80469 0.8839,-0.69421 1.25,-0.53086 1.25,0.55859 0,2.60878 -1.1479,4.70508 -2.5762,4.70508 -0.88,0 -1.1289,-0.61904 -0.705,-1.75 0.5682,-1.51622 0.4367,-1.57069 -0.9883,-0.41211 -1.1473,0.93272 -1.4688,2.21831 -1.0625,4.25 0.3673,1.83617 0.1662,2.91211 -0.543,2.91211 -0.6187,0 -1.125,-0.74935 -1.125,-1.66602 0,-3.19854 -1.1173,-0.52143 -1.5352,3.67969 -0.2383,2.39483 -1.2959,5.15933 -2.4355,6.36133 -7.5835,7.99854 -9.8528,10.62198 -12.3477,14.28711 -1.5496,2.27641 -3.6871,4.36657 -4.75,4.64453 -1.1013,0.28801 -1.9316,1.3704 -1.9316,2.51563 0,2.39759 -6.0765,7.44891 -12.1699,10.11523 -2.3812,1.04196 -8.1551,2.64271 -12.8301,3.55859 -4.675,0.91587 -12.55,2.57072 -17.5,3.67774 -4.95,1.10703 -12.825,2.62403 -17.5,3.37109 -4.675,0.74707 -11.2716,1.83344 -14.6602,2.41406 -3.3887,0.58062 -11.0387,1.48071 -17,2 -5.9614,0.51928 -18.4377,1.64524 -27.7246,2.50196 -9.2868,0.85673 -20.3118,1.35361 -24.499998,1.10351 -4.1881,-0.2501 -12.6953,0.10338 -18.9043,0.78516 -6.209,0.68179 -11.4946,1.03278 -11.7461,0.78125 -0.4031,-0.40309 1.4007,-1.79743 6.5352,-5.05274 0.825,-0.52305 2.85,-1.57476 4.5,-2.33593 4.0256,-1.8571 18.1445,-9.45465 22.499998,-12.10742 6.9942,-4.25988 11.6094,-6.75789 17,-9.20508 3.025,-1.37326 6.625,-3.04399 8,-3.71289 2.3313,-1.1341 15.641,-8.62115 19,-10.6875 0.825,-0.50751 4.3861,-2.30711 7.9141,-4 3.5279,-1.69288 8.9279,-4.78452 12,-6.86914 3.072,-2.08461 6.2609,-4.10409 7.0859,-4.48828 0.825,-0.3842 3.75,-2.04555 6.5,-3.69141 2.75,-1.64586 8.375,-4.64535 12.5,-6.66602 4.125,-2.02067 14.1254,-7.64292 22.2246,-12.49414 8.0992,-4.85122 15.0742,-8.82959 15.5,-8.84179 0.4258,-0.0122 1.9004,-0.90298 3.2754,-1.97852 1.375,-1.07554 3.175,-1.97836 4,-2.00586 0.825,-0.0275 3.2673,-1.38678 5.4277,-3.02148 2.1605,-1.634703 4.5122,-2.972663 5.2266,-2.972663 0.7143,0 2.0192,-1.09764 2.8984,-2.43945 0.952,-1.45293 2.1881,-2.21298 3.0586,-1.87891 0.804,0.30851 2.2692,-0.1696 3.2559,-1.0625 0.9866,-0.89291 2.0532,-1.36474 2.3691,-1.04883 0.8744,0.87437 7.6478,-3.7057 15.502,-10.48242 3.8804,-3.348 7.5357,-6.08789 8.123,-6.08789 0.5872,0 1.5275,-0.85932 2.0899,-1.91016 0.5624,-1.05085 2.6468,-2.91448 4.6308,-4.14062 1.9839,-1.22615 4.6342,-3.17933 5.8907,-4.33984 4.2429,-3.91889 11.2121,-8.60938 12.791,-8.60938 0.8629,0 1.8358,-0.5625 2.1621,-1.25 0.082,-0.17188 0.1422,-0.2373 0.1816,-0.20898 z m -93.9668,13.77929 c 1.4689,0.026 2.3391,0.15959 2.3282,0.42383 -0.057,1.35969 -2.6622,4.25586 -3.8282,4.25586 -0.6269,0 -2.9975,1.85684 -5.2676,4.12695 -3.8251,3.82509 -4.7591,4.22795 -12.75,5.5 -16.9776,2.70262 -19.123,2.81972 -19.123,1.04297 0,-1.19776 -0.8953,-1.57446 -3.5,-1.47656 -1.925,0.0724 -3.5,0.50787 -3.5,0.96875 0,0.46088 -0.4583,0.83789 -1.0195,0.83789 -1.1314,0 2.3748,-7.50155 4.791,-10.25 1.0817,-1.23046 3.0504,-1.75458 6.6328,-1.76758 2.8022,-0.0101 8.8769,-0.68866 13.498,-1.50586 7.539,-1.33315 17.3318,-2.23413 21.7383,-2.15625 z m 87.7481,2.01953 c -0.1196,0.0231 -0.2512,0.0752 -0.3887,0.16016 -0.55,0.33992 -1,1.06719 -1,1.61719 0,0.55 0.45,0.72273 1,0.38281 0.55,-0.33992 1,-1.06719 1,-1.61719 0,-0.4125 -0.2527,-0.61224 -0.6113,-0.54297 z m -137.7578,1.43946 c 2.8495,-0.11239 2.8548,0.63454 1.3515,4.26367 -1.6932,4.0878 -5.3959,4.07583 -6.8242,-0.0215 -1.2023,-3.44874 -0.9387,-3.71823 4.0723,-4.14843 0.527,-0.0453 0.9933,-0.0777 1.4004,-0.0937 z m -12.7266,0.72851 c 0.5864,0.0698 1.2431,1.0172 1.5508,2.3086 0.3515,1.47589 0.8576,3.41875 1.123,4.3164 0.3441,1.1641 -0.316,1.78225 -2.2988,2.15821 -1.529,0.28991 -5.4793,1.30124 -8.7793,2.24609 -9.3104,2.66576 -18.6707,2.95789 -25.5508,0.79883 -5.3677,-1.68444 -5.8012,-2.03489 -5.25,-4.25 0.4972,-1.99793 0.2993,-2.29944 -1.1426,-1.7461 -0.9584,0.36778 -2.8264,0.94116 -4.1504,1.27344 -4.716,1.18366 -1.9934,6.47886 4.0938,7.96289 1.65,0.40225 4.5675,1.56253 6.4844,2.57813 5.1842,2.7467 13.0233,2.36114 25.1328,-1.23633 5.7076,-1.6956 10.9011,-3.51772 11.541,-4.04883 0.751,-0.62325 1.3833,-0.61272 1.7813,0.0312 0.3391,0.54875 -1.872,4.21755 -4.9122,8.15234 -3.0402,3.9348 -5.5273,7.587333 -5.5273,8.117193 0,0.52985 -1.0527,2.39569 -2.3398,4.14649 -1.2871,1.7508 -2.9344,4.75859 -3.6602,6.68359 -1.6596,4.4016 -5.2853,9.48802 -9.9785,14 -2.0023,1.925 -5.0275,5.3 -6.7227,7.5 -4.6104,5.98321 -51.034898,52.23069 -56.812498,56.5957 -2.7579,2.08366 -8.0832,5.22425 -11.832,6.97852 -6.7011,3.13586 -12.45758,4.18229 -17.92188,3.25781 -1.5218,-0.25747 -2.51016,-0.88241 -2.19726,-1.38867 0.3128,-0.50627 -0.12883,-0.65176 -0.98243,-0.32422 -2.0956,0.80415 -1.96096,0.003 0.74415,-4.38867 1.2636,-2.05157 3.03589,-5.6619 3.9375,-8.02344 0.90159,-2.36154 5.42001,-10.01154 10.04101,-17 4.621,-6.98846 9.23179,-14.73203 10.24609,-17.20703 1.0144,-2.475 2.82964,-5.625 4.03322,-7 1.2036,-1.375 2.4707,-3.70364 2.8164,-5.17383 0.3457,-1.47018 2.2038,-4.73574 4.1289,-7.25781 1.9252,-2.52207 3.5,-4.864 3.5,-5.20508 0,-0.34108 1.575,-2.3634 3.5,-4.49414 1.925,-2.13074 3.5,-4.51623 3.5,-5.30078 0,-0.78456 2.6085,-4.16885 5.7969,-7.51953 3.1884,-3.35067 6.6032,-7.45597 7.5879,-9.12305 1.6491,-2.791683 1.6688,-3.333793 0.2558,-6.865233 -1.7422,-4.35423 -1.4086,-5.06055 2.3906,-5.06055 2.979998,0 8.264098,-3.61223 7.710998,-5.27148 -0.4861,-1.45836 -3.7352,-1.8034 -5.9297,-0.62891 -1.409598,0.7544 -2.603198,0.35527 -5.253898,-1.75977 -1.8867,-1.50546 -3.2329,-3.0585 -2.9902,-3.45117 0.5574,-0.90185 7.2849,-2.05386 14.431598,-2.4707 3.025,-0.17644 7.3,-0.5594 9.5,-0.85156 2.2,-0.29217 11.425,-0.7807 20.5,-1.08399 9.075,-0.30328 17.0211,-0.72957 17.6582,-0.94922 0.08,-0.0274 0.1623,-0.0353 0.2461,-0.0254 z m -69.181598,7.49219 c 0.1527,0 0.2773,0.90969 0.2773,2.02148 0,1.11179 1.092,3.69929 2.4258,5.75 2.3711,3.6455 2.9312,5.68253 2.6797,9.72852 -0.068,1.1 -3.2703,5.324363 -7.1153,9.386723 -3.8449,4.06237 -6.9902,7.92637 -6.9902,8.58789 0,0.66152 -1.452,2.90287 -3.2266,4.98047 -3.9515,4.62608 -10.7727,15.582 -10.7734,17.30469 -3e-4,0.69314 -1.54539,3.4582 -3.43359,6.14453 -1.8881,2.68633 -3.9127,6.66845 -4.5,8.84961 -0.5873,2.18116 -4.03049,7.96609 -7.65039,12.85547 -3.6198,4.88936 -9.03411,13.95312 -12.03321,20.14062 -5.05,10.41905 -7.22651,12.92998 -8.88281,10.25 -0.7794,-1.26105 -2.5,-1.30839 -2.5,-0.0684 0,0.51294 0.96011,1.23718 2.13281,1.60938 1.6385,0.52003 1.81719,0.87172 0.77539,1.51562 -0.8113,0.50139 -1.64221,0.3723 -2.07031,-0.32031 -0.5122,-0.82883 -1.25227,-0.67194 -2.60547,0.55273 -1.0394,0.94063 -2.15787,1.71094 -2.48437,1.71094 -1.73133,0 -3.24393,-8.50186 -3.20313,-18 0.0314,-7.30073 -0.34951,-10.90347 -1.25,-11.82227 -1.75609,-1.79178 -1.63828,-3.52438 0.19141,-2.82226 1.08578,0.41665 1.43173,-0.0729 1.28711,-1.82031 -0.10884,-1.31508 -0.50517,-2.20094 -0.88086,-1.96875 -0.37569,0.23219 -0.95996,-0.30053 -1.29883,-1.1836 -0.40053,-1.0438 -0.17545,-1.43998 0.64453,-1.13086 0.93035,0.35072 1.31641,-1.39136 1.46875,-6.63867 0.2851,-9.81975 2.70827,-20.51287 6.23047,-27.49023 2.8976,-5.74021 4.42882,-7.09825 8.63672,-7.66797 5.1587,-0.69846 45.28548,-19.37616 47.58788,-22.150393 1.1712,-1.41127 0.291,-3.30469 -1.5351,-3.30469 -0.6897,0 -4.3082,1.84316 -8.043,4.0957 -3.7347,2.252543 -11.80702,6.353193 -17.93752,9.113283 -6.1306,2.76009 -13.50898,6.08715 -16.39648,7.39258 -2.8875,1.30544 -5.25,1.96342 -5.25,1.46289 0,-3.42239 21.66644,-21.745523 34.02344,-28.773433 4.14656,-2.35826 19.67406,-8.29098 21.69926,-8.29098 z m 216.882798,6.48828 c 0.5417,-0.0346 0.5009,0.67857 -0.586,1.98828 -0.6958,0.8383 -1.7289,1.52344 -2.2968,1.52344 -0.5679,0 -0.2153,-0.90249 0.7832,-2.00586 0.9048,-0.99977 1.6782,-1.47899 2.0996,-1.50586 z m -5.2266,5.90039 c 0.3645,0.0123 0.6211,0.40964 0.6211,1.05274 0,1.75653 -0.5998,2.01399 -1.457,0.62695 -0.3164,-0.512 -0.1176,-1.21313 0.4414,-1.55859 0.1397,-0.0864 0.273,-0.12519 0.3945,-0.1211 z m -9.5644,16.816413 c 0.3008,0.0508 -0.017,1.14628 -0.9747,3.24804 -0.6383,1.40089 -1.5383,2.54688 -2,2.54688 -1.3286,0 -0.9517,-1.30011 1.1602,-4 0.9716,-1.24216 1.5805,-1.83445 1.8145,-1.79492 z M 18.523002,130.14698 c 0.36318,-0.0673 0.46472,0.54855 0.2129,1.51172 -0.6106,2.33499 -1.29102,2.63029 -1.29102,0.56054 0,-0.79254 0.40755,-1.69178 0.90625,-2 0.0623,-0.0385 0.11999,-0.0626 0.17187,-0.0723 z m -1.13671,4.01367 -0.62696,4 c -0.34437,2.2 -0.96773,5.125 -1.38476,6.5 -0.73221,2.41417 -0.75758,2.39701 -0.76758,-0.5 -0.005,-1.65 0.61792,-4.575 1.38477,-6.5 z m 243.617188,9.5 c -0.2425,0 -0.7187,0.45 -1.0586,1 -0.3399,0.55 -0.1411,1 0.4414,1 0.5824,0 1.0586,-0.45 1.0586,-1 0,-0.55 -0.1988,-1 -0.4414,-1 z m -17.9473,33.34375 c 0.1196,0.0201 0.2512,0.0713 0.3887,0.15625 0.55,0.33992 1,0.81605 1,1.05859 0,0.24254 -0.45,0.44141 -1,0.44141 -0.55,0 -1,-0.47613 -1,-1.05859 0,-0.43685 0.2527,-0.65795 0.6113,-0.59766 z m -17.0781,7.98828 c 1.9259,-0.0652 2.8559,1.23269 1.9824,3.35156 -0.4636,1.12444 -0.9191,1.36249 -1.1953,0.62696 -0.651,-1.73316 -5.0145,2.33594 -5.7812,5.39062 -0.4195,1.67149 -1.1113,2.29303 -2.1192,1.90625 -0.8817,-0.33832 -1.7672,0.13876 -2.1582,1.16016 -0.8143,2.12697 -4.3151,5.15402 -6.0117,5.19922 -0.6875,0.0183 -1.25,0.39283 -1.25,0.83203 0,0.43921 -1.7539,2.62374 -3.8984,4.85547 -2.1444,2.23172 -4.0569,4.87315 -4.25,5.86914 -0.193,0.99599 -0.9137,1.99753 -1.6016,2.22656 -0.8211,0.2734 -1.0485,-0.21224 -0.6621,-1.41602 0.4383,-1.3654 -0.019,-1.17994 -1.791,0.72852 -1.3084,1.40955 -3.148,2.85806 -4.0879,3.21875 -0.94,0.36068 -1.7146,1.45773 -1.7246,2.4375 -0.012,1.37587 -0.2094,1.47381 -0.8711,0.42969 -0.6894,-1.08793 -1.1253,-0.99032 -2.2344,0.5 -0.7579,1.01852 -2.2789,2.0075 -3.3789,2.19726 -2.8831,0.49736 -4.4893,2.08889 -4.5703,4.52735 -0.068,2.07146 -0.091,2.07421 -0.8945,0.12695 -0.7857,-1.90549 -0.8748,-1.88186 -1.8672,0.5 -0.5729,1.375 -1.0705,1.91137 -1.1055,1.19141 -0.1304,-2.69336 -2.0684,0.0536 -2.1992,3.11718 -0.1004,2.35242 -0.2489,2.60013 -0.5684,0.94141 -0.2384,-1.2375 -0.65,-2.25 -0.914,-2.25 -1.6088,0 -6.4967,3.3481 -7.4278,5.08789 -0.6499,1.21418 -1.7101,1.83519 -2.5683,1.50586 -0.8037,-0.30839 -1.7231,0.12601 -2.045,0.96484 -0.3218,0.83883 -1.318,1.45554 -2.2128,1.36914 -2.762,-0.26681 -3.9327,0.0245 -5.3047,1.32227 -1.2631,1.19483 -3.3236,2.24847 -8.8223,4.51172 -1.375,0.56595 -4.975,2.13648 -8,3.49023 -5.0741,2.27079 -21.9867,6.74805 -25.4902,6.74805 -0.8301,0 -1.5098,0.45 -1.5098,1 0,0.55 -1.0125,1.01375 -2.25,1.03125 -1.2375,0.0175 -3.1238,0.6925 -4.1914,1.5 -1.0677,0.80751 -3.554798,1.46875 -5.527398,1.46875 -1.9725,0 -4.4736,0.60057 -5.5585,1.33398 -1.2058,0.81519 -5.4944,1.42248 -11.0332,1.5625 -4.9832,0.12598 -10.6082,0.54084 -12.5,0.92188 -5.05942,1.01903 -16.7773,-0.15994 -21.9395,-2.20703 -15.8129,-6.27061 -21.60221,-10.90436 -23.87891,-19.11133 -1.8751,-6.75918 -1.43299,-9.40673 2.12891,-12.73828 1.7875,-1.67193 3.29175,-3.53915 3.34375,-4.15039 0.0518,-0.61123 0.60452,-2.35191 1.22852,-3.86914 1.0981,-2.67025 1.19916,-2.70228 3.16796,-1 2.6858,2.32218 13.77647,8.57253 22.50977,12.6875 7.2113,3.39784 19.3332,6.05089 41.0781,8.99219 8.632898,1.16773 12.589798,1.26361 17.933598,0.43164 3.7714,-0.58715 8.6501,-0.82718 10.8418,-0.53321 4.2994,0.57667 19.7377,-2.96518 26.0567,-5.97851 4.0297,-1.92164 5.1224,-5.06606 1.3398,-3.85547 -15.2651,4.88543 -45.5058,6.54704 -64.796898,3.56055 -6.9006,-1.06831 -13.7917,-2.41522 -15.3144,-2.99415 -1.5227,-0.57892 -3.8093,-1.05273 -5.0821,-1.05273 -2.2885,0 -11.7197,-3.75344 -16.5566,-6.58984 -1.375,-0.80631 -5.0875,-2.8107 -8.25,-4.45313 -3.1625,-1.64242 -5.75,-3.34631 -5.75,-3.78711 0,-0.44081 1.79799,-1.81147 3.99609,-3.04687 2.587,-1.45395 4.22348,-3.1956 4.63868,-4.93555 1.1312,-4.74082 2.25566,-5.37581 8.91796,-5.0332 3.7725,0.19401 6.73269,-0.14616 7.61329,-0.87696 1.7334,-1.43857 6.70968,-1.8413 39.833978,-3.21289 14.025,-0.58073 31.125,-1.72621 38,-2.54687 6.875,-0.82067 14.75,-1.70635 17.5,-1.9668 10.0293,-0.94986 13.2523,-1.40682 17.0879,-2.42578 2.1517,-0.5716 6.3871,-1.29772 9.4121,-1.61328 3.025,-0.31556 7.75,-1.20792 10.5,-1.98438 7.2086,-2.03534 18.3616,-4.47083 23,-5.02148 2.2,-0.26117 5.2616,-0.99678 6.8047,-1.63477 0.8331,-0.34444 1.5865,-0.51734 2.2285,-0.53906 z"
     id="path4058"
     inkscape:connector-curvature="0" />
</svg>
