<?xml version="1.0" encoding="UTF-8" standalone="no"?>
<!-- Created with Inkscape (http://www.inkscape.org/) -->

<svg
   xmlns:dc="http://purl.org/dc/elements/1.1/"
   xmlns:cc="http://creativecommons.org/ns#"
   xmlns:rdf="http://www.w3.org/1999/02/22-rdf-syntax-ns#"
   xmlns:svg="http://www.w3.org/2000/svg"
   xmlns="http://www.w3.org/2000/svg"
   xmlns:sodipodi="http://sodipodi.sourceforge.net/DTD/sodipodi-0.dtd"
   xmlns:inkscape="http://www.inkscape.org/namespaces/inkscape"
   version="1.1"
   id="svg4048"
   width="268.40601"
   height="252.1647"
   viewBox="0 0 268.40601 252.1647"
   sodipodi:docname="leaf_4.svg"
   inkscape:version="0.92.4 (5da689c313, 2019-01-14)">
  <metadata
     id="metadata4054">
    <rdf:RDF>
      <cc:Work
         rdf:about="">
        <dc:format>image/svg+xml</dc:format>
        <dc:type
           rdf:resource="http://purl.org/dc/dcmitype/StillImage" />
        <dc:title></dc:title>
      </cc:Work>
    </rdf:RDF>
  </metadata>
  <defs
     id="defs4052" />
  <sodipodi:namedview
     pagecolor="#ffffff"
     bordercolor="#666666"
     borderopacity="1"
     objecttolerance="10"
     gridtolerance="10"
     guidetolerance="10"
     inkscape:pageopacity="0"
     inkscape:pageshadow="2"
     inkscape:window-width="1047"
     inkscape:window-height="683"
     id="namedview4050"
     showgrid="false"
     inkscape:zoom="1.7163636"
     inkscape:cx="95.318415"
     inkscape:cy="118.69053"
     inkscape:window-x="0"
     inkscape:window-y="0"
     inkscape:window-maximized="0"
     inkscape:current-layer="svg4048"
     fit-margin-top="0"
     fit-margin-left="0"
     fit-margin-right="0"
     fit-margin-bottom="0" />
  <path
     style="fill:#000000"
     d="M 6.9180278,6.1312953e-4 C 6.7593078,-0.00961687 6.6660778,0.10800313 6.6660778,0.36585313 c 0,0.68757997 -0.49474,0.94413997 -1.09961,0.57031 -0.79969,-0.49424 -0.79969,-0.11728 0,1.37694997 1.46249,2.73268 1.42535,2.86648 -0.9375,3.48438 l -2.03516,0.5332 2.02735,3.33399 c 1.11491,1.8337499 3.52259,4.9089799 5.35156,6.8339799 1.8289702,1.925 4.4682702,5.075 5.8652402,7 4.61829,6.36395 15.65597,35.34245 16.94921,44.5 0.46603,3.3 1.13268,7.8 1.48243,10 0.72103,4.53536 0.78822,9.85702 0.29687,23.499997 -0.82247,22.83705 8.079,46.84492 26.55078,71.60742 5.72316,7.67223 14.5588,16.39258 16.60938,16.39258 0.51655,0 0.93945,0.64409 0.93945,1.43164 0,0.78754 1.4625,2.44695 3.25,3.6875 1.7875,1.24055 4.61142,3.74646 6.27539,5.56836 1.66397,1.8219 3.80147,3.3125 4.75,3.3125 0.94853,0 1.72461,0.62114 1.72461,1.38086 0,1.59736 5.671592,6.16418 9.431642,7.59375 1.41258,0.53706 2.56836,1.43639 2.56836,2 0,0.56361 0.81258,1.02539 1.80469,1.02539 0.99211,0 3.35252,1.59906 5.24609,3.55273 2.1091,2.17604 4.10664,3.37851 5.1582,3.10352 0.9441,-0.24689 2.23128,0.16897 2.85938,0.92578 0.62809,0.7568 2.33249,2.00197 3.78711,2.76563 1.45463,0.76366 6.5692,3.47177 11.36523,6.01953 4.79603,2.54775 9.60545,4.63281 10.68946,4.63281 1.08401,0 2.26072,0.46665 2.61328,1.03711 0.8887,1.43794 10.57508,6.01982 11.50781,5.44336 0.41813,-0.25842 2.04549,0.20083 3.61523,1.01953 1.56974,0.81869 3.36031,1.49114 3.98047,1.49414 0.62015,0.003 1.66238,0.65139 2.31641,1.43945 0.65403,0.78805 1.94723,1.39055 2.87305,1.33985 0.92581,-0.0507 6.25322,0.94415 11.83789,2.21094 5.83951,1.32458 10.93833,1.9827 12,1.54882 1.01533,-0.41495 4.0957,-0.85664 6.8457,-0.98047 9.10864,-0.41015 23.18977,-4.62729 21.98047,-6.58398 -0.66631,-1.07811 3.78198,-3.09 5.76172,-2.60547 0.69227,0.16943 0.91788,0.11856 0.50195,-0.11328 -1.15605,-0.64436 0.18041,-2.25 1.87305,-2.25 0.82497,0 1.22273,0.45 0.88281,1 -1.06733,1.72698 0.024,1.10334 3.5,-2 1.84812,-1.65 3.81665,-3 4.375,-3 0.55834,0 2.24251,-1.17649 3.74219,-2.61328 l 2.72656,-2.61133 5.61523,-9.42969 1.16602,-9.90429 v -9.32227 l -2.33008,-9.9043 -1.14844,-5.73828 c -0.0942,0.27266 -0.14648,0.46899 -0.14648,0.56446 0,0.59199 -0.45,0.7989 -1,0.45898 -0.55,-0.33992 -1,-1.26605 -1,-2.05859 0,-0.79254 -0.9,-2.34141 -2,-3.44141 -1.1,-1.1 -2,-2.675 -2,-3.5 0,-0.825 -0.5625,-1.52058 -1.25,-1.54688 -0.6875,-0.0263 0.70514,-0.73296 3.0957,-1.57031 4.55749,-1.59636 6.12031,-1.29958 4.44141,0.84375 -1.26381,1.61342 -2.31505,5.78667 -1.44336,5.73047 0.78801,-0.0508 7.26174,-13.02975 7.21094,-14.45703 -0.0196,-0.55 1.53753,-2.97737 3.45898,-5.39453 5.0487,-6.35121 6.09486,-10.65134 4.59961,-18.88477 -1.60446,-8.8348 -4.23121,-14.18728 -11.2539,-22.91797 -6.29575,-7.82691 -12.70099,-14.06078 -19.20313,-18.68945 -2.2858,-1.627197 -6.40625,-4.648257 -9.15625,-6.712887 -6.01465,-4.51565 -28.40294,-18.90039 -29.41602,-18.90039 -0.39499,0 -3.35766,-1.35 -6.58398,-3 -3.22632,-1.65 -6.57175,-3.00286 -7.43359,-3.00586 -0.86184,-0.003 -2.74818,-0.62195 -4.19141,-1.375 -1.44322,-0.75306 -7.74322,-3.06134 -14,-5.12891 -6.25677,-2.06757 -11.80529,-4.00845 -12.33203,-4.3125 -0.52673,-0.30405 -1.87673,-0.6584 -3,-0.78711 -1.12326,-0.1287 -4.96797,-0.75198 -8.54297,-1.38671 -9.36589,-1.66286 -9.66041,-1.70002 -19,-2.4043 -7.62252,-0.5748 -15.73284,-1.82407 -30.298832,-4.66406 -2.63957,-0.51465 -6.25864,-0.93555 -8.04101,-0.93555 -8.78623,0 -29.3888,-8.3946 -42.66016,-17.38086 -5.62924,-3.81164 -16.8565,-15.11214 -20.67773,-20.8125 -1.64269,-2.4504899 -3.82391,-4.4408399 -5.0586,-4.6191399 -1.19344,-0.17234 -2.41022,-1.07489 -2.70508,-2.00391 -0.29486,-0.92902 -1.44072,-2.25451 -2.54687,-2.94530997 -1.7273202,-1.07873 -2.0156702,-1.00638 -2.0429702,0.50390997 -0.0289,1.59842 -0.16543,1.58086 -1.5,-0.1836 -0.50469,-0.66725997 -0.95226,-1.03956997 -1.2168,-1.05663997047 z M 1.2246678,6.4986631 c -0.24253998,0 -0.71866998,0.45 -1.05858998,1 -0.33992,0.55 -0.14105,1 0.44141,1 0.58245998,0 1.05858998,-0.45 1.05858998,-1 0,-0.55 -0.19887,-1 -0.44141,-1 z m 6.73047,10.3085899 c -0.22143,0.0557 -0.28906,0.40396 -0.28906,1.06836 0,0.89234 0.675,1.62305 1.5,1.62305 0.825,0 1.5000002,-0.16929 1.5000002,-0.37695 0,-0.20765 -0.6750002,-0.93836 -1.5000002,-1.62305 -0.61426,-0.50978 -0.9895,-0.74714 -1.21094,-0.69141 z m 2.9023502,3.82227 c -0.28639,-0.0838 -0.17148,0.7584 0.43164,2.33008 0.34294,0.8937 0.83432,1.41372 1.09179,1.15625 0.25747,-0.25747 -0.0101,-1.28922 -0.59375,-2.29297 -0.44206,-0.7602 -0.75785,-1.14307 -0.92968,-1.19336 z m 32.07617,27.22656 9.06445,4.81836 c 4.98467,2.65003 9.51292,5.27074 10.06445,5.82227 0.55154,0.55154 1.98398,1.00195 3.18164,1.00195 1.19766,0 2.71728,0.65045 3.37696,1.44531 1.15761,1.39484 6.18424,3.29468 14.54492,5.49805 2.69286,0.70967 5.07262,2.35408 7.2832,5.0293 l 3.28321,3.97265 -3.28125,-1.72265 c -1.80557,-0.94753 -3.53123,-2.05281 -3.83399,-2.45704 -0.30275,-0.40421 -1.98464,-1.0227 -3.73633,-1.37304 -2.51729,-0.50346 -3.32856,-0.25721 -3.87695,1.17187 -0.46255,1.20541 -0.10017,2.16186 1.08789,2.8711 10.84216,6.47246 10.90973,6.53758 9.03125,8.61328 -2.17556,2.40396 -0.0367,2.70498 2.98438,0.41992 2.86922,-2.17017 8.525422,-1.84766 11.169922,0.63672 2.31377,2.17367 4.38867,1.85959 4.38867,-0.66406 0,-1.71019 1.15773,-1.77977 6.5,-0.38868 4.3033,1.12055 4.24612,1.09822 15.58008,6.25586 4.16903,1.89717 8.55653,3.75792 9.75,4.13672 1.19346,0.37879 2.16992,1.07463 2.16992,1.54492 0,0.47028 1.575,1.37446 3.5,2.00977 1.925,0.63531 3.5,1.57079 3.5,2.07812 0,0.50735 0.86185,0.92188 1.91602,0.92188 1.05416,0 2.06666,0.35279 2.25,0.785157 0.59033,1.39223 6.59339,5.21484 8.18945,5.21484 0.85027,0 1.90587,0.56301 2.3457,1.25195 0.43983,0.68894 3.49883,3.26444 6.79883,5.72266 16.80009,12.51462 36.52627,31.74217 43.76758,42.66016 2.60256,3.92397 4.73242,7.41147 4.73242,7.75 0,2.13324 -16.56779,-3.79906 -34.5,-12.35352 -5.5,-2.62375 -11.125,-5.10834 -12.5,-5.51953 -1.375,-0.4112 -5.2,-2.19915 -8.5,-3.97461 -3.3,-1.77546 -10.05,-5.3986 -15,-8.05078 -4.95,-2.65217 -15.525,-9.11555 -23.5,-14.36328 -7.975,-5.24774 -17.37109,-11.25218 -20.88086,-13.34375 -8.901882,-5.304877 -17.702842,-12.361537 -31.271482,-25.074217 -6.40829,-6.00402 -13.62115,-12.33102 -16.0293,-14.06055 -6.48926,-4.66059 -8.61233,-7.12121 -11.20703,-12.98828 z m 53.23242,21.50977 5.677732,0.5664 c 3.12274,0.31191 10.09774,1.41736 15.5,2.45703 5.40227,1.03968 13.19727,2.18433 17.32227,2.54297 13.63661,1.18562 26.298,4.23797 37.5,9.04102 1.65,0.70746 5.475,2.26978 8.5,3.47266 6.00542,2.38802 17.20171,8.00341 18,9.02734 0.275,0.35273 1.61278,1.40336 2.97266,2.33398 2.96649,2.030097 1.03123,2.252307 -2.77149,0.31836 -1.48519,-0.75533 -3.67723,-1.67374 -4.86914,-2.04101 -4.05581,-1.24974 -1.42307,3.299457 4.03711,6.976557 5.98502,4.03054 6.22124,4.07264 7.66602,1.37305 0.81986,-1.53199 0.79678,-2.43404 -0.0879,-3.5 -0.81056,-0.97668 -0.84208,-1.43555 -0.0996,-1.43555 3.15946,0 25.88278,44.81429 26.29882,51.86523 0.13837,2.34514 0.61235,4.48564 1.05274,4.75782 1.49563,0.92435 0.80947,2.59431 -0.81055,1.97265 -1.11142,-0.42649 -1.44428,-0.18507 -1.07422,0.7793 0.3781,0.98531 -0.0319,1.24932 -1.38867,0.89453 -1.05885,-0.27689 -1.92578,-8.7e-4 -1.92578,0.61328 0,0.61415 -0.3375,1.10741 -0.75,1.09571 -0.96291,-0.0274 -6.25,-7.47555 -6.25,-8.80469 0,-0.55379 -0.3375,-1.15651 -0.75,-1.33985 -0.4125,-0.18333 -1.97558,-2.14144 -3.47461,-4.35156 -4.95754,-7.30926 -25.40987,-27.43415 -36.27539,-35.69531 -4.20564,-3.19758 -6.12321,-4.74686 -11.19141,-9.03711 -2.43649,-2.0625 -4.80723,-3.749997 -5.26757,-3.749997 -1.11236,0 -14.08858,-7.90498 -15.82227,-9.63867 -0.74881,-0.7488 -2.0053,-1.36133 -2.79102,-1.36133 -0.78571,0 -1.42773,-0.45 -1.42773,-1 0,-0.55 -0.81078,-1 -1.80078,-1 -0.99,0 -2.2275,-0.39343 -2.75,-0.875 -1.6051,-1.47937 -18.56554,-8.40627 -22.87891,-9.34375 -2.23811,-0.48644 -6.37602,-1.13828 -9.19531,-1.44727 -3.40048,-0.37268 -6.09343,-1.38618 -8.000002,-3.01367 z m -44.77344,1.63281 2.37696,2 c 1.30727,1.1 8.50418,7.7375 15.99414,14.75 7.48996,7.0125 13.91461,12.749997 14.27539,12.749997 0.36079,0 3.13995,2.02374 6.17773,4.49805 3.03778,2.4743 7.41938,5.45535 9.73633,6.62304 2.316952,1.16769 7.137892,4.20287 10.712892,6.7461 7.42594,5.28276 16.79017,11.4149 19,12.4414 0.825,0.38322 4.2,2.26617 7.5,4.18555 3.3,1.91937 10.275,5.59151 15.5,8.1582 5.225,2.56669 9.65065,5.04334 9.83398,5.50586 0.18334,0.46252 0.85834,0.84371 1.5,0.84571 1.44774,0.004 13.37629,4.83903 22.9668,9.30859 12.53725,5.84285 25.25258,9.67673 32.17969,9.70312 2.83418,0.0108 3.59024,0.28591 2.56641,0.9336 -0.79875,0.50527 -1.71723,0.75405 -2.04297,0.55273 -0.32574,-0.20132 -5.97332,0.26461 -12.54883,1.03516 -15.02041,1.76018 -29.8003,2.80985 -30.45508,2.16406 -0.275,-0.27123 -5.45,-0.73298 -11.5,-1.02734 -10.79069,-0.52503 -19.49865,-2.51869 -29,-6.63867 -2.2,-0.95397 -6.925,-2.74041 -10.5,-3.97071 -3.575,-1.23029 -8.975,-3.08728 -12,-4.125 -4.77269,-1.63726 -27.570302,-8.68456 -33.593752,-10.38476 -1.15121,-0.32494 -3.59649,-2.71945 -5.43359,-5.32227 -1.83709,-2.60283 -5.25694,-6.53242 -7.60157,-8.73242 -2.85963,-2.68324 -4.46568,-5.15216 -4.8789,-7.5 -0.64581,-3.66942 -3.33091,-28.378257 -3.11524,-28.667967 0.0686,-0.0921 2.37092,0.25293 5.11524,0.76563 6.07976,1.13582 7.74639,0.60185 7.32812,-2.34375 -0.27624,-1.94531 -1.16908,-2.37519 -6.5039,-3.13477 -6.78616,-0.96622 -6.95306,-1.15516 -9.375,-10.61914 -0.63338,-2.475 -1.84101,-5.85 -2.6836,-7.5 z M 219.34381,110.63343 c 0.0209,-0.007 0.048,-0.003 0.0801,0.01 2.92976,1.16803 14.46632,10.1809 19.01563,14.85547 6.30509,6.47869 9.24219,11.66367 9.18359,16.21094 -0.0749,5.81612 -2.47308,13.9115 -4.85351,16.38476 -2.31062,2.40074 -4.01513,3.07169 -4.20313,1.6543 -0.0547,-0.4125 -0.274,-2.69695 -0.48828,-5.07617 -0.21428,-2.37922 -1.00159,-5.75422 -1.74805,-7.5 -0.74645,-1.74578 -1.93414,-4.97383 -2.64062,-7.17383 -0.70649,-2.2 -2.97218,-6.925 -5.03321,-10.5 -5.31484,-9.21895 -9.96043,-18.65644 -9.3125,-18.86523 z M 64.875058,139.05921 c 0.3549,0.045 1.22325,0.88112 2.0879,2.03711 0.98817,1.32113 1.61973,2.40234 1.40429,2.40234 -0.73656,0 -4.02275,-4.01141 -3.61133,-4.4082 0.0282,-0.0272 0.0684,-0.0377 0.11914,-0.0312 z m 2.59571,11.64062 c 1.507,0.0248 6.14823,1.65645 7.40234,2.71485 0.38864,0.32799 -0.5605,1.32396 -2.10937,2.21289 -2.7598,1.5839 -2.85152,1.55707 -4.55469,-1.32618 -0.95587,-1.61815 -1.48283,-3.19489 -1.17188,-3.50585 0.0684,-0.0684 0.21831,-0.0992 0.4336,-0.0957 z m 13.18164,3.99805 c 0.0841,0.008 0.17242,0.0296 0.26367,0.0645 0.6875,0.26271 6.875,2.1577 13.75,4.21094 6.875002,2.05325 15.200002,4.77027 18.500002,6.03906 20.9078,8.03866 32.3009,11.99474 37,12.84766 3.78508,0.68702 23.85237,1.8481 31.3418,1.8125 5.84703,-0.0277 33.54746,-2.73666 38.4082,-3.75586 1.5125,-0.31714 2.75,-0.41315 2.75,-0.21289 0,0.92297 -4.30784,12.48759 -5.49609,14.7539 -2.70686,5.16269 -10.2903,10.85353 -17.44532,13.0918 -1.40713,0.44018 -4.95935,1.70787 -7.89257,2.81836 -11.84841,4.48571 -23.40561,4.79805 -28.10157,0.75977 -1.7153,-1.47508 -12.95806,-5.7509 -20.06445,-7.63086 -2.475,-0.65475 -5.97704,-1.82161 -7.7832,-2.59375 -1.80616,-0.77214 -4.05616,-1.40716 -5,-1.41016 -2.13335,-0.008 -9.26771,-3.71956 -14.88477,-7.74414 -1.72716,-1.2375 -3.52123,-2.25758 -3.98633,-2.26758 -0.86784,-0.0187 -8.77476,-5.03169 -11.20117,-7.10156 -1.038452,-0.88586 -1.560992,-0.83286 -2.234372,0.23047 -0.48348,0.76345 -0.88653,1.68991 -0.89454,2.05859 -0.008,0.36869 4.019222,4.05731 8.951182,8.19531 10.28731,8.63124 19.83086,13.55092 29.5332,15.22852 5.66958,0.9803 17.7021,4.84593 23,7.38867 l 6,2.88086 -10,-0.17383 c -15.00732,-0.2605 -20.91466,-1.64406 -26.5,-6.20703 -0.825,-0.67399 -4.2,-2.69899 -7.5,-4.5 -5.80077,-3.16585 -19.23185,-13.4679 -28.500002,-21.85937 -2.475,-2.24088 -6.16018,-5.54669 -8.18945,-7.34766 -4.13758,-3.67214 -10.81055,-11.65947 -10.81055,-12.9395 0,-0.45974 0.81078,-0.83594 1.80078,-0.83594 2.341,0 4.19922,-1.90601 4.19922,-4.30664 0,-0.97445 0.39776,-1.55197 0.98633,-1.49414 z m 166.072262,0.80078 c 0.58246,0 0.78133,0.45 0.44141,1 -0.33992,0.55 -0.81605,1 -1.05859,1 -0.24254,0 -0.44141,-0.45 -0.44141,-1 0,-0.55 0.47613,-1 1.05859,-1 z m -8.9375,6 c 0.54827,0 0.71883,0.45 0.37891,1 -0.87597,1.41735 0.83974,1.2421 2.44727,-0.25 1.0648,-0.98796 1.1999,-0.98994 0.64453,-0.006 -0.38632,0.68454 -1.484,1.66248 -2.43946,2.17383 -1.35826,0.72692 -1.76947,0.51045 -1.88281,-0.99414 -0.0797,-1.05825 0.30328,-1.92369 0.85156,-1.92369 z m -10.45898,20.24609 c 1.16762,-0.0732 3.81948,1.91996 5.66016,4.38282 3.06347,4.09895 1.40634,4.18745 -2.7168,0.14453 -2.14172,-2.10005 -3.64832,-4.06457 -3.34766,-4.36524 0.0995,-0.0995 0.2375,-0.15165 0.4043,-0.16211 z m -1.2207,2.75391 c 0.90402,0 4.62671,4.06051 6.41797,7 1.44814,2.37643 2.13371,5.15796 2.13671,8.66602 0.002,3.22228 0.47433,5.33682 1.25391,5.61914 0.97826,0.35426 0.99075,0.89352 0.0586,2.47656 -0.65512,1.11256 -0.92872,2.28417 -0.60937,2.60351 0.9914,0.9914 2.30078,-0.38831 2.30078,-2.42382 0,-1.06754 0.45,-1.94141 1,-1.94141 0.55,0 1,1.125 1,2.5 0,1.375 -0.37839,2.3875 -0.83984,2.25 -1.68964,-0.50347 -6.3945,6.24652 -5.83789,8.375 0.2983,1.14057 0.27404,1.80529 -0.0527,1.47852 -0.32677,-0.32677 -2.11661,0.56814 -3.97851,1.98828 -5.30662,4.04756 -17.25028,9.08877 -23.29102,9.83008 -16.40868,2.0136 -15.82586,2.21524 -20.0293,-6.98829 -2.05055,-4.48973 -3.89795,-7.29116 -4.62109,-7.01367 -0.66238,0.25418 -1.73652,-0.181 -2.38867,-0.9668 -1.36219,-1.64134 -0.84164,-1.91897 5.53906,-2.93554 10.27224,-1.63658 26.18099,-8.7123 31.89648,-14.1875 2.14326,-2.05315 5.22267,-6.56708 6.84375,-10.03125 1.62103,-3.46417 3.06212,-6.29883 3.20113,-6.29883 z m 14.16797,14.48242 c 0.20922,-0.097 0.28456,0.61347 0.32031,2.26758 0.0731,3.37975 -0.37942,4.14515 -1.1836,2 -0.25773,-0.6875 -0.11296,-2.15 0.32227,-3.25 0.24165,-0.61075 0.41548,-0.95937 0.54102,-1.01758 z m -5.22071,17.85742 c 0.3586,-0.0693 0.61133,0.13047 0.61133,0.54297 0,0.55 -0.45,1.27727 -1,1.61719 -0.55,0.33992 -1,0.16719 -1,-0.38281 0,-0.55 0.45,-1.27727 1,-1.61719 0.1375,-0.085 0.26914,-0.13706 0.38867,-0.16016 z m -78.3789,4.22266 c 1.56873,0.0197 5.01508,0.24689 8.89453,0.60156 5.17258,0.47289 9.62908,0.63654 9.90234,0.36328 0.27326,-0.27326 1.01799,0.50912 1.65625,1.73828 0.63826,1.22919 1.97319,3.47188 2.96484,4.98438 0.99166,1.5125 1.63826,2.73966 1.4375,2.72656 -0.20076,-0.013 -3.06523,-1.1367 -6.36523,-2.49609 -3.3,-1.3594 -6.38273,-2.47356 -6.84961,-2.47656 -0.46688,-0.003 -2.26688,-0.61558 -4,-1.36329 -1.73312,-0.74771 -4.44572,-1.88921 -6.0293,-2.5371 -1.58357,-0.64788 -2.70857,-1.31757 -2.5,-1.48829 0.0521,-0.0427 0.36576,-0.0593 0.88868,-0.0527 z"
     id="path4058"
     inkscape:connector-curvature="0" />
</svg>
