<?xml version="1.0" encoding="UTF-8" standalone="no"?>
<!-- Created with Inkscape (http://www.inkscape.org/) -->

<svg
   xmlns:dc="http://purl.org/dc/elements/1.1/"
   xmlns:cc="http://creativecommons.org/ns#"
   xmlns:rdf="http://www.w3.org/1999/02/22-rdf-syntax-ns#"
   xmlns:svg="http://www.w3.org/2000/svg"
   xmlns="http://www.w3.org/2000/svg"
   xmlns:sodipodi="http://sodipodi.sourceforge.net/DTD/sodipodi-0.dtd"
   xmlns:inkscape="http://www.inkscape.org/namespaces/inkscape"
   version="1.1"
   id="svg4048"
   width="110.47262"
   height="302.36349"
   viewBox="0 0 110.47262 302.36349"
   sodipodi:docname="4.svg"
   inkscape:version="0.92.4 (5da689c313, 2019-01-14)">
  <metadata
     id="metadata4054">
    <rdf:RDF>
      <cc:Work
         rdf:about="">
        <dc:format>image/svg+xml</dc:format>
        <dc:type
           rdf:resource="http://purl.org/dc/dcmitype/StillImage" />
        <dc:title></dc:title>
      </cc:Work>
    </rdf:RDF>
  </metadata>
  <defs
     id="defs4052" />
  <sodipodi:namedview
     pagecolor="#ffffff"
     bordercolor="#666666"
     borderopacity="1"
     objecttolerance="10"
     gridtolerance="10"
     guidetolerance="10"
     inkscape:pageopacity="0"
     inkscape:pageshadow="2"
     inkscape:window-width="1047"
     inkscape:window-height="683"
     id="namedview4050"
     showgrid="false"
     inkscape:zoom="0.30341309"
     inkscape:cx="57.943208"
     inkscape:cy="272.74998"
     inkscape:window-x="0"
     inkscape:window-y="0"
     inkscape:window-maximized="0"
     inkscape:current-layer="svg4048"
     fit-margin-top="0"
     fit-margin-left="0"
     fit-margin-right="0"
     fit-margin-bottom="0" />
  <path
     style="fill:#000000"
     d="M 5.911708,2.12734e-4 C 5.336568,0.01631273 4.533248,0.94706273 4.339438,2.3127127 c -0.20609,1.45111 -1.12331,2.36493 -2.58398,2.57227 -1.24565996,0.17683 -2.00279996,0.74597 -1.68163996,1.26562 0.32116,0.51965 1.00166996,0.68558 1.51366996,0.36914 0.51199,-0.31643 0.93164,-0.13624 0.93164,0.40039 0,0.53663 -0.5625,1.23776 -1.25,1.5586 -0.99833996,0.46578 -0.99721996,0.70248 0.006,1.16992 0.69095,0.32198 1.00775,0.9875603 0.70312,1.4804703 -0.56539,0.91482 1.70251,8.66789 4.35743,14.89257 2.10552,4.93656 2.88609,12.59414 1.17578,11.53711 -0.94905,-0.58654 -1.05608,-0.42459 -0.39649,0.59961 0.49748,0.77248 1.4453,3.8793 2.10547,6.9043 0.66016,3.025 1.92255,8.425 2.80664,12 4.13597,16.72458 5.41804,37.51268 2.54492,41.26367 -3.01994,3.942677 -3.3779,5.920357 -4.29687,23.736327 -1.19437,23.15484 -1.45239,26.65298 -2.17969,29.55078 -0.36746,1.46406 -0.18168,2.44922 0.46289,2.44922 0.5929,0 0.86792,0.34144 0.60938,0.75977 -0.25854,0.41832 -0.7204,3.45582 -1.02539,6.75 -0.30498,3.29417 -1.00109,8.46523 -1.54688,11.49023 -0.54579,3.025 -1.27882,9.1 -1.6289,13.5 -0.35009,4.4 -0.82525,9.35 -1.05665,11 -0.90577,6.45874 -0.85914,13.06592 0.10157,14.41211 0.68662,0.9621 0.66534,1.52742 -0.0645,1.77344 -1.23278,0.41558 -0.87151,15.00839 0.41407,16.73437 0.44274,0.59441 0.89023,2.43008 0.99609,4.08008 0.73524,11.46077 4.75403,31.5 6.31641,31.5 0.46557,0 0.8457,0.68861 0.8457,1.5293 0,1.99551 5.29833,12.38795 7.66016,15.02539 1.01193,1.13002 2.33523,2.93002 2.9414,4 0.60617,1.06998 2.06063,2.08721 3.23242,2.26172 1.17179,0.1745 3.3764,1.79111 4.89844,3.59179 3.04661,3.60436 6.79111,5.95493 12.54102,7.875 l 3.77344,1.26172 10.91992,0.75586 13.18359,-6.5918 10.71094,-16.47851 11.53515,-23.89453 10.710942,-22.2461 3.18555,-9.26367 c -0.0249,-0.2062 -0.0496,-0.39745 -0.0762,-0.64648 -0.21144,-1.98524 0.33391,-4.37153 1.35742,-5.9336 1.46569,-2.23693 1.62693,-4.27783 1.11523,-14.17968 -0.37443,-7.2456 -1.32719,-13.80776 -2.54883,-17.56641 -1.07257,-3.3 -2.91901,-9.825 -4.10351,-14.5 -1.1845,-4.675 -3.1907,-11.425 -4.458992,-15 -1.26829,-3.575 -2.63102,-8.3 -3.02734,-10.5 -0.39632,-2.2 -2.94701,-8.414 -5.66797,-13.80859 -2.72097,-5.39459 -6.75637,-14.39459 -8.96875,-20 -4.01479,-10.17214 -6.79847,-15.966337 -9.93945,-20.691407 -4.65382,-7.00087 -7.42648,-11.67707 -14.52539,-24.5 -4.2628,-7.7 -8.93694,-15.8 -10.38672,-18 -1.44978,-2.2 -3.51962,-5.71876 -4.59961,-7.81836 -1.07998,-2.0996 -2.64774,-4.5746 -3.48437,-5.5 -0.83663,-0.9254 -4.73918,-5.95664 -8.67383,-11.18164 -8.51277,-11.30448 -15.81625,-19.0000003 -18.03125,-19.0000003 -0.58252,0 -1.31818,-0.675 -1.63477,-1.5 -0.31658,-0.825 -1.26515,-1.5 -2.10742,-1.5 -0.84233,0 -1.53132,-0.45 -1.53132,-1 0,-0.75267997 -0.26234,-1.07216997 -0.60742,-1.062499966 z M 33.419518,67.597873 c 1.09107,-0.0669 4.72725,4.79046 8.14844,10.96484 1.82851,3.3 5.05087,8.57816 7.16015,11.72852 3.26308,4.87362 3.65724,6.01356 2.63868,7.64453 -0.83615,1.33889 -0.91425,2.904527 -0.25782,5.193357 1.19899,4.18064 3.26901,5.01496 3.0625,1.23437 -0.30628,-5.607407 1.88136,-3.26818 5.94336,6.35742 2.28414,5.41268 5.6226,13.2168 7.41992,17.3418 6.15878,14.13482 6.74497,15.50754 8.30665,19.5 2.62509,6.71112 9.67773,35.7214 9.67773,39.80664 0,0.88192 -1.53292,2.11774 -3.51367,2.83398 -4.43851,1.60499 -4.02469,3.04012 1.02929,3.5586 2.15462,0.22103 4.01047,0.49289 4.12305,0.60547 0.16881,0.1688 0.9358,6.98629 1.54102,13.69531 0.0745,0.825 0.0652,3.4125 -0.0215,5.75 -0.0866,2.3375 -0.4957,4.24809 -0.9082,4.24609 -0.4125,-0.002 -1.62797,-2.13956 -2.70117,-4.75 -1.97841,-4.81227 -5.94884,-11.25815 -7.54102,-12.24218 -0.47954,-0.29637 -1.3667,-7.28084 -1.97265,-15.52149 -0.60594,-8.24065 -1.52281,-19.48242 -2.03515,-24.98242 -1.64723,-17.68302 -8.67245,-36.33614 -16.64844,-44.19922 -2.3932,-2.35931 -4.35156,-4.66674 -4.35156,-5.12695 0,-0.46021 -1.02615,-1.38402 -2.2793,-2.05469 -2.32169,-1.24253 -4.64259,-5.29738 -8.6582,-15.119137 -5.57435,-13.63428 -9.3047,-25.42578 -8.3457,-26.38477 0.0493,-0.0493 0.11085,-0.0756 0.18359,-0.0801 z m 2.625,24.99414 c 0.53509,0.0489 1.23028,1.29107 2.07617,3.73437 0.69528,2.00826 1.92164,5.132587 2.72461,6.943357 3.08691,6.96133 3.43936,8.29614 8.7793,33.29297 4.72204,22.10435 4.66711,21.87447 9.37109,39.44922 1.97991,7.39722 3.64547,15.04722 3.70117,17 0.0557,1.95277 0.53928,4.10661 1.07422,4.78711 0.53493,0.68049 0.61671,2.03049 0.18164,3 -0.43507,0.9695 -0.92471,4.91367 -1.08593,8.76367 -0.16123,3.85 -0.44331,8.8 -0.62696,11 -0.21231,2.54321 0.16225,4.37477 1.02735,5.02734 0.77952,0.58806 1.07817,1.76247 0.69922,2.75 -1.0182,2.65338 -2.12919,2.30617 -10.94727,-3.41211 -4.22493,-2.73976 -11.94341,-10.56006 -14.94727,-15.14453 -1.44616,-2.20713 -1.55179,-3.01804 -0.54882,-4.22656 1.51615,-1.82684 -0.34616,-4.68256 -2.51172,-3.85156 -2.687,1.0311 -9.49219,-11.5949 -9.49219,-17.61133 0,-6.07256 1.2291,-16.03125 1.97852,-16.03125 0.38147,0 1.41924,2.5875 2.30664,5.75 0.8874,3.1625 3.66129,8.85439 6.16406,12.64844 2.50277,3.79405 4.5584,7.16905 4.5664,7.5 0.0312,1.25954 6.91157,8.54036 6.94727,7.35156 0.0206,-0.6875 -0.46263,-1.25 -1.07227,-1.25 -0.65593,0 -0.8734,-0.93553 -0.5332,-2.29102 0.35932,-1.43162 -0.22563,-3.5878 -1.56054,-5.75 -4.97599,-8.0598 -9.57774,-17.79843 -10.61329,-22.45898 -0.61104,-2.75 -1.85103,-8.34292 -2.75586,-12.42773 -1.1214,-5.06247 -1.43797,-9.36036 -0.99414,-13.5 1.16919,-10.90503 1.51678,-13.90895 3.07618,-26.57227 0.8466,-6.875 1.63953,-15.31176 1.76367,-18.748047 0.13999,-3.87486 0.56397,-5.78549 1.25195,-5.72265 z m -19.77734,8.624997 c 0.18142,0.0458 0.14541,0.49078 -0.10157,1.3457 -0.31779,1.1 -0.68007,3.9125 -0.80664,6.25 -0.12656,2.3375 -0.34155,4.25 -0.47656,4.25 -1.76797,0 -1.07641,-9.67232 0.82227,-11.5 0.26643,-0.25647 0.45364,-0.37321 0.5625,-0.3457 z m 33.54883,13.26953 c 1.07151,0.0613 8.71464,10.66327 11.26953,15.70508 6.29963,12.43172 8.89143,26.16335 9.93359,52.62109 0.33041,8.3875 0.45487,15.25 0.27734,15.25 -1.0226,0 -3.87986,-7.16767 -4.38476,-11 -0.32607,-2.475 -1.48829,-7.1968 -2.58399,-10.49219 -3.60741,-10.8495 -8.40623,-30.29066 -11.33789,-45.92969 -0.81669,-4.35668 -1.96293,-9.68827 -2.54492,-11.8496 -0.58199,-2.16134 -0.90123,-4.08706 -0.71094,-4.27735 0.0205,-0.0205 0.0475,-0.0293 0.082,-0.0273 z m -24.92579,81.99414 c 0.37592,0.18457 1.28065,1.70049 2.17579,3.68555 1.81835,4.03246 1.81711,4.1573 -0.0352,5.51171 -1.04207,0.76198 -2.15484,1.38477 -2.47266,1.38477 -0.66144,0 -0.46937,-9.90176 0.20508,-10.57617 0.0305,-0.0305 0.0733,-0.0322 0.12695,-0.006 z m 36.95118,1.78711 c -0.20614,-0.0261 -0.32227,0.11443 -0.32227,0.42773 0,0.56834 0.29935,1.33451 0.66602,1.70117 0.36666,0.36667 0.89942,0.43261 1.18359,0.14844 0.28417,-0.28416 -0.0152,-1.04838 -0.66602,-1.69922 -0.35878,-0.35878 -0.65519,-0.55199 -0.86132,-0.57812 z m -30.17383,11.875 c 0.0712,-0.0111 0.11629,-0.004 0.13281,0.0234 0.13219,0.21799 1.08708,1.40379 2.12305,2.63476 1.85742,2.20703 1.84917,2.29037 -0.68555,6 -1.41373,2.06903 -3.30017,6.31131 -4.19141,9.42774 -1.95275,6.82829 -4.52734,9.73285 -4.52734,5.10742 0,-1.63436 -0.28786,-6.36757 -0.63867,-10.51758 l -0.63672,-7.54492 4.1582,-2.75196 c 2.00112,-1.32427 3.76696,-2.30136 4.26563,-2.3789 z m 7.85351,10.91992 c 0.36555,0 2.65302,1.84144 5.08203,4.0918 2.42901,2.25034 7.43202,5.85766 11.11719,8.01562 3.68517,2.15796 7.01361,4.42931 7.39649,5.04883 0.38288,0.61952 0.85826,3.0756 1.05664,5.45703 0.31333,3.76118 0.12992,4.25508 -1.39649,3.76367 -1.26258,-0.40647 -1.3945,-0.3048 -0.46875,0.36133 0.85018,0.61176 1.23818,3.10915 1.14258,7.34375 -0.0797,3.52949 0.38221,7.76797 1.02539,9.41797 0.94158,2.41554 0.92312,2.75647 -0.0937,1.75 -2.97438,-2.94398 -7.55418,0.009 -4.92578,3.17578 0.98222,1.18348 0.11104,1.17116 -5.63867,-0.0742 -3.73985,-0.81005 -7.81021,-1.97083 -9.04688,-2.58008 -2.72091,-1.34047 -3.65655,-0.62304 -2.78125,2.13477 0.91149,2.87185 6.11657,5.08164 18.0293,7.65039 l 3,0.64648 -2.25,1.51954 c -1.2375,0.8363 -2.25,2.14052 -2.25,2.89843 0,0.75792 -0.9,2.27891 -2,3.37891 -1.1,1.1 -2.7875,1.97938 -3.75,1.95508 -5.6183,-0.14189 -18.41383,-12.13688 -20.25977,-18.99219 -1.91729,-7.12013 -2.98642,-22.38806 -1.85742,-26.51953 2.01101,-7.35935 7.68684,-20.44338 8.86909,-20.44338 z m -15.64648,64.25977 c 0.12992,-0.0549 0.48442,0.19231 1.12109,0.7207 0.83759,0.69514 1.52344,1.43493 1.52344,1.64258 0,1.12034 -1.87813,0.13806 -2.41602,-1.26367 -0.26333,-0.68624 -0.35843,-1.04469 -0.22851,-1.09961 z m 2.94726,5.18164 c -0.0578,0.007 -0.10511,0.027 -0.14062,0.0625 -0.28405,0.28406 0.35031,1.17278 1.41016,1.97461 2.70408,2.04576 3.04825,1.86524 0.92187,-0.48438 -0.87372,-0.96545 -1.7866,-1.59963 -2.19141,-1.55273 z"
     id="path4058"
     inkscape:connector-curvature="0" />
</svg>
