<?xml version="1.0" encoding="UTF-8" standalone="no"?>
<!-- Created with Inkscape (http://www.inkscape.org/) -->

<svg
   xmlns:dc="http://purl.org/dc/elements/1.1/"
   xmlns:cc="http://creativecommons.org/ns#"
   xmlns:rdf="http://www.w3.org/1999/02/22-rdf-syntax-ns#"
   xmlns:svg="http://www.w3.org/2000/svg"
   xmlns="http://www.w3.org/2000/svg"
   xmlns:sodipodi="http://sodipodi.sourceforge.net/DTD/sodipodi-0.dtd"
   xmlns:inkscape="http://www.inkscape.org/namespaces/inkscape"
   version="1.1"
   id="svg154"
   width="260.73129"
   height="317.00104"
   viewBox="0 0 260.73128 317.00103"
   sodipodi:docname="0.svg"
   inkscape:version="0.92.4 (5da689c313, 2019-01-14)">
  <metadata
     id="metadata160">
    <rdf:RDF>
      <cc:Work
         rdf:about="">
        <dc:format>image/svg+xml</dc:format>
        <dc:type
           rdf:resource="http://purl.org/dc/dcmitype/StillImage" />
        <dc:title />
      </cc:Work>
    </rdf:RDF>
  </metadata>
  <defs
     id="defs158" />
  <sodipodi:namedview
     pagecolor="#ffffff"
     bordercolor="#666666"
     borderopacity="1"
     objecttolerance="10"
     gridtolerance="10"
     guidetolerance="10"
     inkscape:pageopacity="0"
     inkscape:pageshadow="2"
     inkscape:window-width="1440"
     inkscape:window-height="783"
     id="namedview156"
     showgrid="false"
     fit-margin-top="0"
     fit-margin-left="0"
     fit-margin-right="0"
     fit-margin-bottom="0"
     inkscape:zoom="1.7163637"
     inkscape:cx="97.344066"
     inkscape:cy="149.85693"
     inkscape:window-x="0"
     inkscape:window-y="1"
     inkscape:window-maximized="1"
     inkscape:current-layer="svg154" />
  <path
     style="fill:#000000"
     d="M 104.15625 0 C 101.01477 1.2622548 92.200505 3.524364 101.21484 4.1347656 C 94.077075 5.4676622 81.860094 10.249228 92.740234 3.8574219 C 84.788204 6.0746534 85.791497 7.2213991 84.841797 10.394531 C 81.253607 15.797228 77.224308 2.9627803 80.617188 13.988281 C 84.654687 19.401259 87.865002 19.493676 85.820312 13.767578 C 88.074083 11.034806 103.53254 11.852786 103.24414 12.484375 C 95.832352 17.549667 88.173233 23.595974 78.751953 19.947266 C 68.652793 15.910031 60.482677 25.329959 55.185547 20.40625 C 57.374267 26.519112 60.902987 30.197733 59.873047 26.246094 C 61.475407 22.614107 72.565251 29.412364 71.300781 33.443359 C 74.085471 35.738396 64.175317 41.459782 64.310547 37.671875 C 59.996057 41.187036 57.86585 47.851209 57.6875 38.853516 C 55.05628 41.11276 56.018864 50.783187 48.152344 49.119141 C 44.614184 49.56302 29.02964 57.168377 41.59375 50.285156 C 41.79466 49.452469 20.140642 54.905122 30.169922 56.730469 C 19.656012 57.826012 36.82239 72.668268 40.46875 62.404297 C 42.05866 65.36606 53.593668 62.938243 42.486328 65.992188 C 33.551448 66.66947 28.300361 68.534541 24.181641 75.261719 C 17.245551 80.523803 7.9466524 79.299818 15.976562 89.601562 C 21.551933 93.42788 26.049334 96.353731 18.396484 97.355469 C 16.866184 92.974177 14.998634 100.11894 18.589844 101.3125 C 13.496044 104.09702 27.540588 109.00907 17.705078 114.65625 C 20.660698 119.18094 23.434799 108.04391 22.349609 115.34766 C 26.746419 118.24998 18.268798 121.49651 15.304688 120.1875 C 3.0390174 117.73331 12.832644 138.17598 22.021484 139.32422 C 22.106784 148.23656 -3.9059237 149.84123 0.50390625 154.23242 C 0.08753625 164.12636 12.225536 162.32458 16.347656 172.22266 C 19.540346 177.5999 24.836972 177.82981 30.482422 177.125 C 49.227332 176.36446 25.212573 157.71675 38.251953 152.20312 C 42.896533 150.79536 57.627611 156.61245 52.425781 143.87695 C 55.982051 141.80605 62.018026 129.66653 57.910156 121.29297 C 59.973736 110.53245 67.739671 115.86696 73.613281 111.29883 C 69.330731 101.61346 76.681123 103.29054 81.632812 98.585938 C 81.186432 89.650482 66.595777 85.650654 76.617188 78.378906 C 82.240188 73.601662 107.29412 74.175524 97.822266 59.757812 C 97.638126 57.261646 112.93137 62.351439 119.62695 60.78125 C 125.53623 69.886476 134.03826 77.457307 144.9375 79.664062 C 151.90392 82.332829 157.4377 72.333696 162.45508 84.205078 C 171.57111 94.346945 160.19083 97.9306 159.69141 109.39258 C 162.8947 122.55719 183.32016 127.51343 185.49609 136.35352 C 177.96881 134.21159 159.00868 129.36759 166.76953 141.78906 C 171.25634 148.48088 182.42361 155.72921 171.84375 144.73438 C 179.14094 144.17155 185.99862 152.81446 180.05273 151.98438 C 188.39746 157.16249 173.26541 150.78976 182.36328 157.25195 C 183.15825 161.41289 196.14832 168.75537 185.62305 173.05664 C 174.67845 177.37761 198.53285 179.23745 201.87695 187.375 C 205.44777 191.77666 204.96732 203.22793 197.9707 195.375 C 191.37909 190.94665 180.68088 191.24326 187.2168 201.02734 C 183.64837 207.56737 201.87926 224.48147 187.71484 213.22461 C 183.42269 207.19307 171.12356 195.98242 169.67969 207.42969 C 175.62873 206.14285 174.20439 217.50186 181.30859 224.12891 C 185.84017 229.67065 195.94117 237.94247 193.12305 240.3418 C 195.85834 237.81936 195.07468 245.61012 198.36719 242.77734 C 212.86507 250.50007 199.29467 266.99781 202.92969 278.9043 C 212.78307 286.47391 193.44324 286.0011 203.45312 289.33008 C 205.0687 295.64983 212.58061 287.854 213.43945 297.83203 C 215.97513 305.41765 216.22244 311.74489 225.64844 313.48242 C 231.45837 316.53673 237.51104 320.16461 240.18359 312.09375 C 247.71027 295.87302 252.59457 278.6477 255.54102 261.0332 C 261.30909 251.69631 242.93675 249.31643 238.96875 250.96875 C 234.01534 259.69495 232.06642 257.90091 233.61719 248.24023 C 242.39655 250.78243 256.27193 240.74459 257.9375 229.75391 C 268.85707 214.52284 244.54776 207.88168 240.03906 220.68359 C 233.89432 231.31959 232.184 211.46778 240.23438 206.04297 C 253.56796 195.36222 241.99234 183.08071 239.91797 170.10742 C 239.0886 160.98212 251.37749 148.22729 234.29492 148.14258 C 218.16701 153.49972 225.35132 130.3883 229.46875 121.51758 C 233.20693 108.62954 211.85555 105.21495 224.38086 91.904297 C 232.95151 83.460302 220.24102 58.678995 213.36133 73.876953 C 211.99769 80.514611 204.72787 101.35323 201.27734 92.78125 C 201.79459 81.577949 219.14351 68.002071 204.33789 60.056641 C 190.34384 60.891331 197.02258 40.441405 184.79297 40.105469 C 179.96687 33.063031 171.37668 30.716138 174.75 19.804688 C 168.27344 16.320964 161.79687 12.83724 155.32031 9.3535156 C 148.1108 13.343209 145.69726 17.037523 139.12305 15.214844 C 134.76825 13.017263 137.37296 11.669951 131.38867 14.238281 C 127.93899 9.0477673 126.6978 -0.93031236 117.8418 7.6074219 C 113.16454 5.3014496 109.28347 0.79216674 104.15625 0 z M 157.64648 10.818359 C 157.17414 15.275173 148.92681 12.243225 157.64648 10.818359 z M 117.20312 15.345703 C 117.54555 15.354167 117.89125 15.381454 118.23828 15.431641 C 120.99784 15.83072 122.32807 19.351428 124.83008 20.582031 C 129.79144 23.022254 135.36836 24.602642 140.89648 24.701172 C 145.39412 24.781339 149.58183 21.849939 154.08008 21.818359 C 157.51385 21.794252 161.4142 21.833483 164.17383 23.876953 C 166.37141 25.504236 166.90437 28.622791 168.08789 31.087891 C 170.31219 35.720806 170.79623 41.331444 174.06055 45.300781 C 176.95157 48.816195 182.74202 49.220384 185.39062 52.921875 C 187.99792 56.565633 185.57238 62.891865 188.89258 65.900391 C 191.36859 68.143972 195.79075 66.0526 198.7793 67.546875 C 200.64714 68.480796 203.20225 69.787649 203.3125 71.873047 C 203.59284 77.175848 194.15162 78.840927 193.01172 84.027344 C 191.74225 89.803301 193.44098 97.072667 197.75 101.12305 C 200.40916 103.6226 205.23378 105.09288 208.46094 103.38867 C 216.27483 99.262279 209.72407 79.199589 218.55469 78.876953 C 220.85619 78.792865 221.81826 82.760168 221.64453 85.056641 C 221.42897 87.906078 217.8857 89.460037 216.70117 92.060547 C 215.2653 95.212855 214.10028 98.692747 214.22852 102.1543 C 214.33544 105.04026 215.93814 107.67244 216.9082 110.39258 C 218.24452 114.13975 221.06769 117.54267 221.23242 121.51758 C 221.4726 127.31333 216.98484 132.44233 216.28906 138.20117 C 215.76961 142.50059 215.10426 147.2426 216.9082 151.17969 C 218.44578 154.53545 221.44126 157.6285 224.94141 158.80078 C 228.41421 159.9639 233.61052 154.67228 235.85742 157.56445 C 237.16398 159.24623 233.97574 161.44428 233.5918 163.53906 C 233.05952 166.4432 233.11886 169.48208 233.5918 172.39648 C 234.80913 179.89798 241.71028 186.48015 240.80273 194.02539 C 240.46375 196.84362 237.95108 198.94753 236.26953 201.23438 C 233.70177 204.72643 229.42321 207.09427 227.82422 211.12305 C 226.78446 213.7428 227.01967 216.77727 227.41211 219.56836 C 227.88677 222.9442 228.06046 227.10363 230.70898 229.25 C 233.39538 231.42707 237.62824 231.21571 241.00781 230.48438 C 245.40441 229.53296 248.77897 221.01918 252.54297 223.48242 C 255.55752 225.4552 252.99062 231.12565 251.10156 234.19336 C 248.74479 238.02061 244.18106 240.22043 239.97852 241.81445 C 236.35533 243.18868 231.08538 240.4211 228.44336 243.25586 C 223.23935 248.83951 223.99813 259.19564 227.20703 266.12109 C 228.2578 268.38886 230.69281 270.904 233.17969 270.6543 C 237.73001 270.19741 237.77954 261.34423 242.24414 260.35352 C 244.58549 259.83396 249.07475 260.8519 248.83594 263.23828 C 247.28527 278.73371 245.58659 289.62352 236.47656 306.08398 C 234.43749 309.76827 228.09868 303.71988 224.94141 300.93359 C 220.66805 297.16235 218.03711 291.66295 216.08398 286.30859 C 214.55979 282.13013 214.14889 277.571 214.02344 273.125 C 213.84635 266.84866 216.30096 260.64537 215.87695 254.38086 C 215.47657 248.46545 215.59299 241.59765 211.75781 237.07617 C 209.34912 234.23645 204.62599 234.71047 201.45898 232.75195 C 197.06937 230.03735 187.87709 227.48036 189.7168 222.6582 C 191.01421 219.25749 198.14507 225.51838 200.63477 222.86328 C 202.33145 221.05389 200.37482 217.90157 200.01562 215.44727 C 199.43646 211.48983 194.88672 206.69547 197.54492 203.70703 C 200.56923 200.307 207.77851 208.01191 211.13867 204.94336 C 216.31033 200.22053 214.46298 190.09606 211.13867 183.93164 C 208.29126 178.65157 199.24297 179.15553 196.10156 174.04492 C 194.50929 171.45454 196.21452 167.79839 195.07227 164.98047 C 193.93206 162.16759 188.19871 160.50891 189.50977 157.77148 C 190.96338 154.73642 197.34235 160.05677 199.60352 157.56445 C 202.00972 154.91228 200.84706 149.77725 198.7793 146.85352 C 196.52496 143.66598 188.57119 145.98687 188.06836 142.11523 C 187.72861 139.49924 193.3087 139.63691 194.24805 137.17188 C 195.71119 133.3323 194.41224 128.47209 192.1875 125.01758 C 187.34117 117.49236 172.05626 118.67779 169.94141 109.98047 C 168.92501 105.80053 175.37509 102.8889 176.12109 98.652344 C 177.07257 93.248856 176.07838 87.298091 173.64844 82.378906 C 171.32571 77.676762 167.61403 72.965895 162.73242 71.048828 C 159.27587 69.6914 155.28029 72.22892 151.60938 71.667969 C 147.54989 71.047642 143.62538 69.400844 140.07227 67.341797 C 135.13563 64.480988 131.9521 59.05749 126.89062 56.423828 C 123.66926 54.747634 119.98766 53.994965 116.38477 53.541016 C 108.48114 52.545191 98.161082 48.356479 92.490234 53.951172 C 89.311572 57.087147 94.922235 63.899521 92.078125 67.341797 C 89.478568 70.488087 83.851967 68.34317 80.130859 70.019531 C 75.109271 72.281759 68.137973 74.373851 66.740234 79.701172 C 65.282207 85.258274 76.399451 90.158051 73.951172 95.355469 C 72.922053 97.540172 68.385277 95.268845 66.947266 97.208984 C 64.697035 100.24495 69.850458 105.69738 67.359375 108.53906 C 64.494933 111.80665 57.416953 106.66665 54.380859 109.77539 C 51.01406 113.22275 54.797848 119.5988 53.351562 124.19531 C 51.623256 129.68813 49.197675 135.70352 44.494141 139.02539 C 41.062341 141.44907 35.186386 138.61028 32.134766 141.49805 C 25.74795 147.54195 33.858061 164.18106 25.542969 167.04102 C 21.283246 168.50614 18.217023 161.77293 14.832031 158.80078 C 13.810469 157.90381 11.855456 157.27433 11.947266 155.91797 C 12.360906 149.80705 23.423442 150.04648 26.572266 144.79297 C 28.574427 141.45256 30.052939 136.79608 28.425781 133.25781 C 26.777515 129.67364 17.562261 130.94691 18.333984 127.07812 C 19.027389 123.60197 26.182482 127.77774 28.837891 125.42969 C 30.335783 124.10518 30.304414 121.65332 30.486328 119.66211 C 31.007228 113.96039 28.285059 108.26512 28.837891 102.56641 C 29.163027 99.214838 32.337422 96.195474 31.722656 92.884766 C 30.96292 88.79335 23.613543 87.128735 24.101562 82.996094 C 24.691373 78.001478 31.243451 75.558461 35.841797 73.521484 C 41.941741 70.819329 50.35801 74.53676 55.617188 70.431641 C 58.673291 68.04616 61.490386 63.357935 60.148438 59.720703 C 58.97925 56.551723 50.846489 58.556788 51.085938 55.1875 C 51.393783 50.855779 59.589537 53.066252 63.445312 51.068359 C 67.456986 48.989686 71.165016 46.226631 74.363281 43.035156 C 77.143488 40.260852 81.134888 37.479468 81.365234 33.558594 C 81.527564 30.795454 75.596527 28.572271 77.246094 26.349609 C 79.261206 23.634405 83.76849 28.95338 87.132812 28.615234 C 92.758668 28.049783 97.375912 23.8173 102.58203 21.611328 C 107.42484 19.559303 112.06669 15.218748 117.20312 15.345703 z M 184.66016 43.179688 C 186.15075 45.709705 180.95899 45.87957 184.66016 43.179688 z M 50.066406 63.783203 C 53.690626 65.934905 47.852686 66.566459 50.066406 63.783203 z M 214.51367 67.121094 C 210.53238 69.781488 216.69831 69.528827 214.51367 67.121094 z M 154.74609 72.171875 C 158.46131 74.000253 151.34436 76.723201 154.74609 72.171875 z M 17.242188 110.7832 C 12.261287 112.68183 18.988457 113.59261 17.242188 110.7832 z M 15.242188 116.7832 C 10.261287 118.68183 16.988457 119.59261 15.242188 116.7832 z M 161.625 133.7832 C 156.41773 136.31351 166.64488 135.82101 161.625 133.7832 z M 185.59766 149.0957 C 200.03279 152.48131 189.37889 157.75589 185.59766 149.0957 z M 194.00586 184.7832 C 191.78438 186.49691 198.04924 187.59996 194.89453 185.07617 L 194.00586 184.7832 z M 189.06641 194.7832 C 192.69063 196.9349 186.85269 197.56646 189.06641 194.7832 z M 203.85156 242.79688 C 211.50024 246.57055 205.85217 251.27733 203.85156 242.79688 z M 207.33008 259.7832 C 208.65526 266.96795 201.56634 280.3778 205.38477 264.98828 C 205.92346 263.22521 206.14811 261.28509 207.33008 259.7832 z "
     id="path164" />
  <path
     style="fill:#ffffcf;fill-opacity:1;stroke:none;stroke-width:0;stroke-miterlimit:4;stroke-dasharray:none;stroke-opacity:1"
     d="m 231.63961,306.05734 c -3.92016,-2.06969 -10.94543,-9.59322 -12.96211,-13.88146 -4.47836,-9.52271 -5.33887,-16.07001 -3.65982,-27.84639 0.95707,-6.71267 1.06106,-9.12333 0.61064,-14.15541 -0.98279,-10.97979 -3.20717,-14.56113 -9.91561,-15.96454 -3.22194,-0.67403 -13.22892,-6.04191 -14.84585,-7.96353 -1.696,-2.01558 -1.82868,-2.9605 -0.56315,-4.01079 0.74302,-0.61666 1.45445,-0.57738 3.98394,0.21997 6.56942,2.07083 7.84244,0.95296 6.16273,-5.41166 -0.55356,-2.09749 -1.56235,-5.08072 -2.24177,-6.6294 -1.9864,-4.52784 -1.46269,-7.37637 1.35738,-7.383 0.65691,-0.002 3.09034,0.68725 5.40761,1.53066 3.9813,1.44906 4.29334,1.48098 5.66849,0.57995 3.74637,-2.45471 4.69346,-9.97478 2.17988,-17.30855 -1.65037,-4.81523 -3.08692,-6.16547 -10.09201,-9.48564 -6.53783,-3.09871 -7.47168,-4.35676 -7.3421,-9.89107 0.0794,-3.39176 0.0677,-3.4164 -2.99201,-6.28936 -4.71933,-4.43129 -3.6818,-5.58499 3.84359,-4.27395 2.98891,0.52071 4.04418,-0.17976 4.5809,-3.04071 0.44908,-2.39379 -0.46015,-5.82605 -2.0934,-7.90238 -0.89348,-1.13588 -2.0623,-1.63182 -5.08737,-2.15861 -2.16005,-0.37616 -4.25999,-0.95997 -4.66653,-1.29736 -1.29366,-1.07364 -0.82139,-2.62584 1.03258,-3.39378 3.91498,-1.62164 4.63717,-2.65981 4.63717,-6.66609 0,-2.89656 -0.34666,-4.34185 -1.63123,-6.80078 -1.96407,-3.75968 -4.20972,-5.34896 -11.76919,-8.32925 -6.8807,-2.71269 -9.11272,-4.06532 -10.2101,-6.18742 -1.44768,-2.7995 -1.07418,-4.6884 1.55197,-7.84883 4.03641,-4.857598 4.7313,-7.902734 3.40242,-14.90992 -1.26891,-6.690942 -6.2324,-14.252871 -11.48683,-17.500287 -1.79171,-1.107333 -2.49341,-1.195455 -6.47094,-0.812634 -6.08154,0.585321 -7.61728,0.46946 -11.50448,-0.867932 -4.91815,-1.692092 -7.85099,-3.596514 -13.10382,-8.508913 -2.69165,-2.517196 -5.98704,-4.973717 -7.71535,-5.751341 -2.87704,-1.294468 -16.17308,-4.026781 -23.07518,-4.741904 -4.015139,-0.416007 -7.858695,0.565084 -9.793448,2.499843 -1.282572,1.282568 -1.416163,1.791926 -1.097238,4.183555 1.143481,8.574973 1.145334,8.48446 -0.198315,9.696958 -0.921116,0.831205 -2.50479,1.253928 -5.745432,1.5336 -8.108235,0.699753 -18.095004,6.127815 -19.019641,10.337657 -0.503892,2.294205 0.245217,3.877675 3.993269,8.440997 2.510971,3.057155 3.269727,4.428502 3.269727,5.909598 0,2.170887 -0.707386,2.635939 -4.009518,2.635939 -3.671603,0 -4.340867,1.769888 -2.706314,7.156924 0.969763,3.19607 0.470041,5.32995 -1.360281,5.80859 -0.645694,0.16886 -3.150533,0.0223 -5.566309,-0.32577 -4.27073,-0.61526 -4.434865,-0.59333 -5.929203,0.79223 -1.519549,1.40894 -1.532723,1.491 -1.168089,7.27518 0.308129,4.88782 0.187203,6.37795 -0.735123,9.05874 -2.358097,6.85393 -5.755842,11.692 -9.230927,13.14399 -1.036161,0.43293 -3.538196,0.78715 -5.560079,0.78715 -6.939515,0 -8.195176,2.1117 -8.314636,13.98305 -0.108747,10.80677 -0.95857,12.8178 -5.416565,12.8178 -1.181094,0 -2.74371,-1.24186 -6.65256,-5.287 -2.824235,-2.9227 -5.10887,-5.78869 -5.10887,-6.40889 0,-1.7607 1.800733,-3.14858 7.855883,-6.05478 5.597102,-2.68634 5.627855,-2.71282 7.330034,-6.31089 3.344647,-7.06993 2.063583,-10.55001 -4.632265,-12.58381 -4.18919,-1.27243 -5.270729,-2.3467 -3.821564,-3.79586 0.653212,-0.65321 1.787366,-0.78269 4.781919,-0.5459 5.543756,0.43835 6.162293,-0.13502 6.457767,-5.98626 0.126546,-2.50598 -0.100197,-6.39898 -0.503873,-8.65111 -1.095002,-6.10906 -0.886883,-9.41932 0.855686,-13.610225 0.960525,-2.310075 1.387855,-4.149464 1.143138,-4.920501 -0.214946,-0.677234 -2.093506,-2.868302 -4.174577,-4.869044 -3.385511,-3.254823 -3.741277,-3.81009 -3.38007,-5.275467 0.627883,-2.547263 3.702646,-5.305991 8.479871,-7.608277 4.18368,-2.016239 4.706361,-2.120001 12.27784,-2.437392 7.316957,-0.30672 8.084702,-0.448353 10.270021,-1.894604 2.434371,-1.611074 5.41824,-6.517301 5.41824,-8.908944 0,-2.252732 -1.593433,-3.708605 -4.524335,-4.133749 -3.518288,-0.51035 -4.797699,-1.185259 -4.797699,-2.530864 0,-1.737994 1.262196,-2.319975 6.239174,-2.876797 3.301168,-0.369333 5.585071,-1.007638 7.674578,-2.144891 3.671217,-1.998126 13.341777,-10.42559 14.687238,-12.79928 1.956054,-3.450895 1.900029,-4.062657 -0.640913,-6.998488 -1.307642,-1.510863 -2.279517,-3.045014 -2.159717,-3.409225 0.416229,-1.265397 2.938241,-1.047989 6.038371,0.520533 2.896111,1.465299 3.315171,1.528743 5.885978,0.891128 1.522335,-0.377569 5.258606,-2.06769 8.302833,-3.755824 13.980764,-7.752839 15.767044,-8.59555 18.989894,-8.958811 2.22531,-0.250825 2.64667,-0.05479 5.56735,2.590195 2.47592,2.242204 4.20948,3.20847 8.00946,4.464377 7.4631,2.466583 11.07935,2.603334 17.8733,0.675894 6.72599,-1.908163 12.29227,-1.810296 15.6671,0.275461 2.02553,1.251846 4.53235,6.255265 6.56254,13.098339 1.16608,3.930451 3.23327,7.901712 4.90774,9.428223 0.75273,0.686207 2.94168,2.036384 4.86435,3.000394 5.30114,2.657946 6.04501,3.726995 6.99567,10.053884 1.05875,7.046251 1.62323,7.637927 7.71391,8.085466 4.78737,0.351774 7.14129,1.366619 8.33248,3.592373 1.07044,2.000138 -0.36616,4.316412 -4.64407,7.487756 -2.14229,1.588149 -4.25784,3.565375 -4.70122,4.393836 -1.10607,2.066712 -1.00101,8.126716 0.20329,11.725621 1.19545,3.572477 4.53665,7.652893 7.16609,8.751543 1.05061,0.43897 3.06308,0.79813 4.47216,0.79813 5.11429,0 6.7421,-2.98006 7.93552,-14.527645 0.69572,-6.731906 1.78409,-9.319132 4.29122,-10.200839 2.192,-0.770886 3.4005,0.583402 3.74802,4.200165 0.26206,2.727265 0.15016,3.004532 -2.34737,5.816628 -3.3826,3.808616 -4.70552,7.690987 -4.38442,12.866841 0.19722,3.17886 0.80266,5.08258 3.33468,10.48542 3.89682,8.31506 3.95059,9.76227 0.68119,18.33322 -3.98606,10.44971 -3.89687,17.94943 0.27855,23.42369 3.19702,4.19151 6.44229,5.16718 11.47887,3.45105 5.04421,-1.71874 6.98044,-0.22646 4.40011,3.39121 -1.17773,1.6512 -1.35143,2.57613 -1.34097,7.14055 0.0118,5.1639 0.0638,5.35441 3.41713,12.52649 4.30275,9.20269 4.83,12.74175 2.43698,16.35784 -0.86774,1.31124 -3.49027,4.39398 -5.82782,6.85051 -5.97995,6.28434 -6.38172,7.23026 -6.00152,14.13009 0.53232,9.66037 2.83427,12.76749 9.45898,12.76749 3.6967,0 6.08402,-1.15022 9.55625,-4.60422 2.26501,-2.25312 3.40909,-2.96993 4.74022,-2.96993 4.54182,0 2.72072,8.51259 -2.9092,13.59889 -3.89733,3.52101 -8.05657,5.04517 -13.76758,5.04517 -4.27522,0 -5.00813,0.15706 -6.11737,1.31091 -3.76237,3.9137 -4.7374,12.17159 -2.33249,19.75472 1.84955,5.83198 6.00992,8.97098 8.9527,6.75482 0.53189,-0.40056 1.95845,-2.54396 3.17015,-4.76312 1.62739,-2.98048 2.63979,-4.17909 3.8743,-4.58691 2.06622,-0.68257 5.91237,0.3466 6.44071,1.72343 0.53329,1.38973 -1.30023,14.75315 -2.87775,20.97425 -2.51433,9.91551 -8.69429,23.59751 -10.80484,23.92116 -0.46103,0.0707 -1.88697,-0.42514 -3.16875,-1.10187 z"
     id="path8962"
     inkscape:connector-curvature="0" />
</svg>
