<?xml version="1.0" encoding="UTF-8" standalone="no"?>
<!-- Created with Inkscape (http://www.inkscape.org/) -->

<svg
   xmlns:dc="http://purl.org/dc/elements/1.1/"
   xmlns:cc="http://creativecommons.org/ns#"
   xmlns:rdf="http://www.w3.org/1999/02/22-rdf-syntax-ns#"
   xmlns:svg="http://www.w3.org/2000/svg"
   xmlns="http://www.w3.org/2000/svg"
   xmlns:sodipodi="http://sodipodi.sourceforge.net/DTD/sodipodi-0.dtd"
   xmlns:inkscape="http://www.inkscape.org/namespaces/inkscape"
   version="1.1"
   id="svg64"
   width="211.24965"
   height="482.68854"
   viewBox="0 0 211.24966 482.68854"
   sodipodi:docname="3.svg"
   inkscape:version="0.92.4 (5da689c313, 2019-01-14)">
  <metadata
     id="metadata70">
    <rdf:RDF>
      <cc:Work
         rdf:about="">
        <dc:format>image/svg+xml</dc:format>
        <dc:type
           rdf:resource="http://purl.org/dc/dcmitype/StillImage" />
        <dc:title></dc:title>
      </cc:Work>
    </rdf:RDF>
  </metadata>
  <defs
     id="defs68" />
  <sodipodi:namedview
     pagecolor="#ffffff"
     bordercolor="#666666"
     borderopacity="1"
     objecttolerance="10"
     gridtolerance="10"
     guidetolerance="10"
     inkscape:pageopacity="0"
     inkscape:pageshadow="2"
     inkscape:window-width="1243"
     inkscape:window-height="789"
     id="namedview66"
     showgrid="false"
     fit-margin-top="0"
     fit-margin-left="0"
     fit-margin-right="0"
     fit-margin-bottom="0"
     inkscape:zoom="0.74567624"
     inkscape:cx="161.68894"
     inkscape:cy="209.10336"
     inkscape:window-x="0"
     inkscape:window-y="0"
     inkscape:window-maximized="0"
     inkscape:current-layer="svg64" />
  <path
     style="fill:#000000"
     d="M 147.6013,0 C 141.97565,7.0008223 133.45255,7.4097431 123.58038,10.098707 108.66095,20.58316 87.034909,26.5059 80.316499,45.001447 71.502449,55.08088 67.516719,67.946114 58.626669,78.04378 c 1.38322,15.846088 -14.98054,19.50151 -19.70499,30.55382 8.00439,13.16119 -9.59794,27.16925 -4.08738,41.54821 -4.72185,13.82469 -12.37542,26.61418 -15.31112,40.77707 3.91511,13.09158 -4.39246,25.35167 -10.99808,36.82346 5.34555,10.59879 -10.9271,19.53231 -2.28748,28.87949 -5.29947005,16.41482 1.11205,37.67385 -6.06015005,52.06948 -2.35659995,6.22186 19.70623005,15.13498 10.03321005,28.14062 0.69319,11.31595 3.1433,18.62415 -1.54096,26.62157 5.27458,8.39487 -7.06387,19.9752 4.57037,22.08769 -5.99729,6.05419 -14.06584005,18.46286 -2.14168,21.79289 1.35769,14.52499 8.65731,30.66295 4.21993,44.47608 4.87086,13.61069 20.35605,19.97363 28.86116,30.13784 10.48784,-0.35247 21.64137,1.99013 31.68743,-0.23521 7.0676,-11.81675 20.68798,-12.5027 24.621091,-29.58984 -1.124391,-12.15089 -1.724211,-31.15231 2.69531,-45.33008 4.52427,-10.80029 -2.15114,-20.23609 2.172,-31.78933 -0.87045,-7.02452 2.63808,-14.31426 2.09168,-19.56223 3.10207,-32.10694 1.1263,-64.52713 4.59936,-96.61549 0.11737,-24.51861 -0.90301,-49.1404 2.6897,-73.44311 2.24473,-20.63537 4.62102,-41.40368 9.99226,-61.48135 4.8183,-7.96356 7.56431,-18.71662 17.83782,-20.57138 5.31435,-4.86022 16.21974,0.47447 14.37198,-10.424882 0.91479,-5.35283 8.91345,-6.512781 10.77255,-13.043863 6.06756,0.05486 15.0524,-7.912398 13.47572,0.511596 11.62053,-6.636035 27.93977,-16.797134 29.65805,-33.332606 C 214.24641,26.806038 195.58128,12.371496 179.05505,5.2698203 167.31751,-1.899218 155.42332,6.2415137 147.6013,0 Z m 3.87891,1.0390625 c -2.70627,2.3562204 4.36581,1.8569363 0,0 z m 8.94726,0.65625 c 1.90657,2.781615 -3.53745,1.9570976 0,0 z M 49.978259,102.69531 c 2.61707,11.18882 -12.11824,5.91638 0,0 z m -2.57422,17.39844 c 1.49196,2.5313 -3.70603,2.6987 0,0 z m -3.96875,10.52734 c 0.0284,9.75185 -8.51684,7.67377 0,0 z M 17.243879,223.375 c 2.55784,11.02393 -6.67197,15.53234 0,0 z m -3.83789,20.32031 c 6.49355,9.50994 -9.68415,7.57588 0,0 z m -1.2168,18.22656 c 6.47076,7.37711 -7.72528,12.54019 -0.90146,0.3352 z m -1.26562,19.69922 c 2.9473,4.29661 -4.57359,9.08155 -1.30719,1.54916 z m -1.05664,23.07422 c 3.94258,2.43288 -4.0644,4.03783 0,0 z m 11.62304,160.39062 c -3.205,5.13073 3.42534,1.27295 0,0 z"
     id="path74"
     inkscape:connector-curvature="0" />
</svg>
